<svg xmlns="http://www.w3.org/2000/svg" width="81" height="81" viewBox="0 0 81 81"><g transform="translate(0.347)"><circle cx="40.5" cy="40.5" r="40.5" transform="translate(-0.347)" fill="#29235c"/><g transform="translate(19.018 15.52)" opacity="0.5"><g transform="translate(0)"><path d="M68.756,28.58a7.647,7.647,0,0,0,1.231-4.1,6.642,6.642,0,0,0-2.422-5.138,6.465,6.465,0,0,0,.51-2.512,7.128,7.128,0,0,0-3.866-6.3,5.731,5.731,0,0,0-4.353-6.254A6.889,6.889,0,0,0,53.731,0a6.72,6.72,0,0,0-5.737,3.444A6.72,6.72,0,0,0,42.256,0a6.889,6.889,0,0,0-6.125,4.272,5.731,5.731,0,0,0-4.353,6.254,7.128,7.128,0,0,0-3.866,6.3,6.464,6.464,0,0,0,.51,2.512A6.642,6.642,0,0,0,26,24.48a7.646,7.646,0,0,0,1.231,4.1A6.6,6.6,0,0,0,28,37.152a6.941,6.941,0,0,0,6.608,7.983h.087a7.539,7.539,0,0,0,13.3-.333,7.539,7.539,0,0,0,13.3.333h.087a6.933,6.933,0,0,0,6.694-6.981,6.123,6.123,0,0,0-.086-1,6.6,6.6,0,0,0,.767-8.571Zm-21.719-14.1a3.8,3.8,0,0,0-1.912-.515.956.956,0,0,0,0,1.912,1.915,1.915,0,0,1,1.912,1.912V35.971a7.632,7.632,0,0,0-5.737-2.6.956.956,0,1,0,0,1.912,5.744,5.744,0,0,1,5.737,5.737A5.965,5.965,0,0,1,41.3,47.047a5.754,5.754,0,0,1-5.192-3.335.957.957,0,0,0-.975-.548l-.2.026c-2.721.372-5.786-2.71-4.957-6.157a.956.956,0,0,0-.318-.959,4.76,4.76,0,0,1-1.743-3.658,4.706,4.706,0,0,1,.7-2.461,6.452,6.452,0,0,0,4.08,1.5.956.956,0,0,0,0-1.912,5.027,5.027,0,0,1-4.781-5.068,4.755,4.755,0,0,1,2.233-4.03.956.956,0,0,0,.32-1.279,4.706,4.706,0,0,1-.641-2.341,5.049,5.049,0,0,1,4.781-5.068,5.06,5.06,0,0,1,4.781,5.068.956.956,0,1,0,1.912,0,6.933,6.933,0,0,0-6.694-6.981,6.2,6.2,0,0,0-.954.075c0-.025,0-.05,0-.075a3.826,3.826,0,0,1,6.53-2.7.956.956,0,1,0,1.352-1.353A5.7,5.7,0,0,0,38.36,4.18a4.831,4.831,0,0,1,3.9-2.268,5.06,5.06,0,0,1,4.781,5.068ZM63.294,31.46a6.454,6.454,0,0,0,4.08-1.5,4.705,4.705,0,0,1,.7,2.46,4.761,4.761,0,0,1-1.743,3.658.956.956,0,0,0-.318.959,4.719,4.719,0,0,1,.149,1.121c0,2.968-2.685,5.367-5.105,5.036-.067-.009-.135-.018-.2-.026a.956.956,0,0,0-.975.548,5.754,5.754,0,0,1-5.192,3.335,5.965,5.965,0,0,1-5.737-6.024,5.744,5.744,0,0,1,5.737-5.737.956.956,0,1,0,0-1.912,7.632,7.632,0,0,0-5.737,2.6V17.786a1.915,1.915,0,0,1,1.912-1.912.956.956,0,1,0,0-1.912,3.8,3.8,0,0,0-1.912.515v-7.5a5.06,5.06,0,0,1,4.781-5.068,4.831,4.831,0,0,1,3.9,2.268,5.7,5.7,0,0,0-3.171,1.611.956.956,0,1,0,1.351,1.353,3.826,3.826,0,0,1,6.531,2.7c0,.025,0,.05,0,.075a6.2,6.2,0,0,0-.954-.075,6.933,6.933,0,0,0-6.694,6.981.956.956,0,0,0,1.912,0,4.789,4.789,0,1,1,9.562,0,4.706,4.706,0,0,1-.641,2.341.956.956,0,0,0,.32,1.279,4.755,4.755,0,0,1,2.233,4.03,5.025,5.025,0,0,1-4.781,5.068.956.956,0,1,0,0,1.912Z" transform="translate(-26)" fill="#faf8f8"/></g><g transform="translate(7.65 15.874)"><g transform="translate(0)"><path d="M117.231,170.6a.956.956,0,0,0-1.35-.075,4.79,4.79,0,0,1-7.969-3.564.956.956,0,0,0-1.913,0,6.7,6.7,0,0,0,5.6,6.6,2.874,2.874,0,0,1-2.735,2,.956.956,0,0,0,0,1.912,4.788,4.788,0,0,0,4.7-3.883,6.683,6.683,0,0,0,3.592-1.647A.956.956,0,0,0,117.231,170.6Z" transform="translate(-106 -166)" fill="#faf8f8"/></g></g><g transform="translate(7.65 37.198)"><g transform="translate(0)"><path d="M106.956,389a.956.956,0,1,0,0,1.912,5.06,5.06,0,0,1,4.781,5.068.956.956,0,0,0,1.912,0A6.933,6.933,0,0,0,106.956,389Z" transform="translate(-106 -389)" fill="#faf8f8"/></g></g><g transform="translate(8.644 29.548)"><g transform="translate(0)"><path d="M124.01,309a8.588,8.588,0,0,0-7.487,4.361.956.956,0,1,0,1.664.943,6.679,6.679,0,0,1,5.824-3.392.956.956,0,1,0,0-1.912Z" transform="translate(-116.398 -309)" fill="#faf8f8"/></g></g><g transform="translate(24.862 15.874)"><path d="M294.606,175.562a2.874,2.874,0,0,1-2.735-2,6.7,6.7,0,0,0,5.6-6.6.956.956,0,0,0-1.913,0,4.781,4.781,0,0,1-7.969,3.564.956.956,0,0,0-1.275,1.425,6.683,6.683,0,0,0,3.592,1.647,4.788,4.788,0,0,0,4.7,3.883.956.956,0,0,0,0-1.912Z" transform="translate(-286 -166)" fill="#faf8f8"/></g><g transform="translate(28.687 37.198)"><g transform="translate(0)"><path d="M332.694,389A6.933,6.933,0,0,0,326,395.981a.956.956,0,0,0,1.913,0,5.06,5.06,0,0,1,4.781-5.068.956.956,0,1,0,0-1.912Z" transform="translate(-326 -389)" fill="#faf8f8"/></g></g><g transform="translate(26.775 29.548)"><path d="M314.444,313.361A8.587,8.587,0,0,0,306.956,309a.956.956,0,0,0,0,1.912,6.68,6.68,0,0,1,5.823,3.392.956.956,0,1,0,1.664-.943Z" transform="translate(-306 -309)" fill="#faf8f8"/></g></g><g transform="translate(20.018 14.52)"><g transform="translate(0)"><path d="M68.756,28.58a7.647,7.647,0,0,0,1.231-4.1,6.642,6.642,0,0,0-2.422-5.138,6.465,6.465,0,0,0,.51-2.512,7.128,7.128,0,0,0-3.866-6.3,5.731,5.731,0,0,0-4.353-6.254A6.889,6.889,0,0,0,53.731,0a6.72,6.72,0,0,0-5.737,3.444A6.72,6.72,0,0,0,42.256,0a6.889,6.889,0,0,0-6.125,4.272,5.731,5.731,0,0,0-4.353,6.254,7.128,7.128,0,0,0-3.866,6.3,6.464,6.464,0,0,0,.51,2.512A6.642,6.642,0,0,0,26,24.48a7.646,7.646,0,0,0,1.231,4.1A6.6,6.6,0,0,0,28,37.152a6.941,6.941,0,0,0,6.608,7.983h.087a7.539,7.539,0,0,0,13.3-.333,7.539,7.539,0,0,0,13.3.333h.087a6.933,6.933,0,0,0,6.694-6.981,6.123,6.123,0,0,0-.086-1,6.6,6.6,0,0,0,.767-8.571Zm-21.719-14.1a3.8,3.8,0,0,0-1.912-.515.956.956,0,0,0,0,1.912,1.915,1.915,0,0,1,1.912,1.912V35.971a7.632,7.632,0,0,0-5.737-2.6.956.956,0,1,0,0,1.912,5.744,5.744,0,0,1,5.737,5.737A5.965,5.965,0,0,1,41.3,47.047a5.754,5.754,0,0,1-5.192-3.335.957.957,0,0,0-.975-.548l-.2.026c-2.721.372-5.786-2.71-4.957-6.157a.956.956,0,0,0-.318-.959,4.76,4.76,0,0,1-1.743-3.658,4.706,4.706,0,0,1,.7-2.461,6.452,6.452,0,0,0,4.08,1.5.956.956,0,0,0,0-1.912,5.027,5.027,0,0,1-4.781-5.068,4.755,4.755,0,0,1,2.233-4.03.956.956,0,0,0,.32-1.279,4.706,4.706,0,0,1-.641-2.341,5.049,5.049,0,0,1,4.781-5.068,5.06,5.06,0,0,1,4.781,5.068.956.956,0,1,0,1.912,0,6.933,6.933,0,0,0-6.694-6.981,6.2,6.2,0,0,0-.954.075c0-.025,0-.05,0-.075a3.826,3.826,0,0,1,6.53-2.7.956.956,0,1,0,1.352-1.353A5.7,5.7,0,0,0,38.36,4.18a4.831,4.831,0,0,1,3.9-2.268,5.06,5.06,0,0,1,4.781,5.068ZM63.294,31.46a6.454,6.454,0,0,0,4.08-1.5,4.705,4.705,0,0,1,.7,2.46,4.761,4.761,0,0,1-1.743,3.658.956.956,0,0,0-.318.959,4.719,4.719,0,0,1,.149,1.121c0,2.968-2.685,5.367-5.105,5.036-.067-.009-.135-.018-.2-.026a.956.956,0,0,0-.975.548,5.754,5.754,0,0,1-5.192,3.335,5.965,5.965,0,0,1-5.737-6.024,5.744,5.744,0,0,1,5.737-5.737.956.956,0,1,0,0-1.912,7.632,7.632,0,0,0-5.737,2.6V17.786a1.915,1.915,0,0,1,1.912-1.912.956.956,0,1,0,0-1.912,3.8,3.8,0,0,0-1.912.515v-7.5a5.06,5.06,0,0,1,4.781-5.068,4.831,4.831,0,0,1,3.9,2.268,5.7,5.7,0,0,0-3.171,1.611.956.956,0,1,0,1.351,1.353,3.826,3.826,0,0,1,6.531,2.7c0,.025,0,.05,0,.075a6.2,6.2,0,0,0-.954-.075,6.933,6.933,0,0,0-6.694,6.981.956.956,0,0,0,1.912,0,4.789,4.789,0,1,1,9.562,0,4.706,4.706,0,0,1-.641,2.341.956.956,0,0,0,.32,1.279,4.755,4.755,0,0,1,2.233,4.03,5.025,5.025,0,0,1-4.781,5.068.956.956,0,1,0,0,1.912Z" transform="translate(-26)" fill="#faf8f8"/></g><g transform="translate(7.65 15.874)"><g transform="translate(0)"><path d="M117.231,170.6a.956.956,0,0,0-1.35-.075,4.79,4.79,0,0,1-7.969-3.564.956.956,0,0,0-1.913,0,6.7,6.7,0,0,0,5.6,6.6,2.874,2.874,0,0,1-2.735,2,.956.956,0,0,0,0,1.912,4.788,4.788,0,0,0,4.7-3.883,6.683,6.683,0,0,0,3.592-1.647A.956.956,0,0,0,117.231,170.6Z" transform="translate(-106 -166)" fill="#faf8f8"/></g></g><g transform="translate(7.65 37.198)"><g transform="translate(0)"><path d="M106.956,389a.956.956,0,1,0,0,1.912,5.06,5.06,0,0,1,4.781,5.068.956.956,0,0,0,1.912,0A6.933,6.933,0,0,0,106.956,389Z" transform="translate(-106 -389)" fill="#faf8f8"/></g></g><g transform="translate(8.644 29.548)"><g transform="translate(0)"><path d="M124.01,309a8.588,8.588,0,0,0-7.487,4.361.956.956,0,1,0,1.664.943,6.679,6.679,0,0,1,5.824-3.392.956.956,0,1,0,0-1.912Z" transform="translate(-116.398 -309)" fill="#faf8f8"/></g></g><g transform="translate(24.862 15.874)"><path d="M294.606,175.562a2.874,2.874,0,0,1-2.735-2,6.7,6.7,0,0,0,5.6-6.6.956.956,0,0,0-1.913,0,4.781,4.781,0,0,1-7.969,3.564.956.956,0,0,0-1.275,1.425,6.683,6.683,0,0,0,3.592,1.647,4.788,4.788,0,0,0,4.7,3.883.956.956,0,0,0,0-1.912Z" transform="translate(-286 -166)" fill="#faf8f8"/></g><g transform="translate(28.687 37.198)"><g transform="translate(0)"><path d="M332.694,389A6.933,6.933,0,0,0,326,395.981a.956.956,0,0,0,1.913,0,5.06,5.06,0,0,1,4.781-5.068.956.956,0,1,0,0-1.912Z" transform="translate(-326 -389)" fill="#faf8f8"/></g></g><g transform="translate(26.775 29.548)"><path d="M314.444,313.361A8.587,8.587,0,0,0,306.956,309a.956.956,0,0,0,0,1.912,6.68,6.68,0,0,1,5.823,3.392.956.956,0,1,0,1.664-.943Z" transform="translate(-306 -309)" fill="#faf8f8"/></g></g></g></svg>