<svg xmlns="http://www.w3.org/2000/svg" width="81" height="81" viewBox="0 0 81 81"><g transform="translate(-1088.5 -4266)"><g transform="translate(661.5 2545)"><g transform="translate(395 613)"><circle cx="40.5" cy="40.5" r="40.5" transform="translate(32 1108)" fill="#faf8f8"/></g></g><path d="M62.7,22.117v5.567L41.8,37.995V32.169L56.531,24.9,41.8,17.61V11.8L62.7,22.117ZM20.9,32.169,6.165,24.9,20.9,17.61V11.8L0,22.117v5.567L20.9,37.995V32.169ZM39.308,4H33.88L23.4,45.8h5.415L39.308,4Z" transform="translate(1097.652 4281.101)" fill="#662483" opacity="0.496"/><path d="M62.7,22.117v5.567L41.8,37.995V32.169L56.531,24.9,41.8,17.61V11.8L62.7,22.117ZM20.9,32.169,6.165,24.9,20.9,17.61V11.8L0,22.117v5.567L20.9,37.995V32.169ZM39.308,4H33.88L23.4,45.8h5.415L39.308,4Z" transform="translate(1098.652 4280.101)" fill="#662483"/></g></svg>