<svg xmlns="http://www.w3.org/2000/svg" width="81" height="81" viewBox="0 0 81 81"><g transform="translate(-0.347)"><circle cx="40.5" cy="40.5" r="40.5" transform="translate(0.347)" fill="#29235c"/><g transform="translate(16.989 15.532)" opacity="0.499"><path d="M24.3,219.31a12.516,12.516,0,0,1-4.986-1.03L11.773,215A28.61,28.61,0,0,0,3.2,212.765l-2.478-.248A.8.8,0,0,1,0,211.724v-7.772a.8.8,0,0,1,.16-.478c.185-.248,4.626-6.049,11.409-4.54a28.806,28.806,0,0,1,8.792,3.616,8.877,8.877,0,0,0,4.688,1.311h7.545a3.624,3.624,0,0,1,3.083,1.72l6.5-7.486a6.893,6.893,0,0,1,5.479-2.713h.485a.8.8,0,0,1,.73,1.118l-5.877,13.356a10.471,10.471,0,0,1-7,5.9l-1.034.258-6.015,2.406A12.511,12.511,0,0,1,24.3,219.31ZM1.6,211l1.759.176a30.219,30.219,0,0,1,9.055,2.36l7.544,3.28a10.971,10.971,0,0,0,8.4.124l6.064-2.426a.821.821,0,0,1,.1-.033l1.086-.272a8.864,8.864,0,0,0,5.925-5l5.36-12.182a5.331,5.331,0,0,0-3.477,2.063l-7.2,8.3c0,.031,0,.062,0,.093a3.628,3.628,0,0,1-3.624,3.624H22.067a12.691,12.691,0,0,0-4.019.652l-.293-.744-.248-.758.041-.013a14.274,14.274,0,0,1,4.519-.732H32.594a2.029,2.029,0,1,0,0-4.058H25.049a10.47,10.47,0,0,1-5.529-1.55,27.21,27.21,0,0,0-8.3-3.414c-5.137-1.139-8.833,2.8-9.628,3.743V211Zm0,0" transform="translate(0 -172.615)" fill="#faf8f8"/><path d="M231,104.106a9.36,9.36,0,0,1-4.116-1.136.8.8,0,0,1-.394-.445c-.062-.173-1.487-4.272.778-7.3,1.646-2.2,4.74-3.2,9.2-2.947a.8.8,0,0,1,.751.757c.016.317.345,7.791-3.466,10.28A4.929,4.929,0,0,1,231,104.106Zm-3.1-2.416c2.095.982,3.769,1.079,4.983.286,2.26-1.476,2.749-5.858,2.761-8.138-3.5-.085-5.877.7-7.1,2.338C227.087,98.125,227.653,100.8,227.9,101.691Zm0,0" transform="translate(-199.59 -81.519)" fill="#faf8f8"/><path d="M105.513,12.606a7.462,7.462,0,0,1-4.469-1.346c-2.415-1.769-3.524-5.138-3.3-10.012a.8.8,0,0,1,.75-.759c.345-.02,8.51-.455,11.257,3.669,1.279,1.92,1.174,4.434-.311,7.474a.8.8,0,0,1-.441.4A11.012,11.012,0,0,1,105.513,12.606Zm3.212-1.325h.008Zm-9.41-9.223c-.069,3.9.829,6.565,2.672,7.916,2.207,1.617,5.219.929,6.167.653,1.084-2.352,1.175-4.229.272-5.585C106.746,2.521,101.821,2.028,99.315,2.058Zm0,0" transform="translate(-86.302 -0.467)" fill="#faf8f8"/><path d="M148.313,71.612c-.025,0-.05,0-.076,0a.8.8,0,0,1-.721-.834q.07-1.407.236-2.671c.332-5.643.161-18.785-8.148-22.421a.8.8,0,1,1,.639-1.461c4.9,2.142,7.977,7.476,8.906,15.424.083.712.146,1.414.193,2.1,2.188-5.53,5.536-7.483,5.735-7.6a.8.8,0,0,1,.784,1.388c-.084.049-5.218,3.13-6.507,12.631-.1,1.625-.24,2.661-.253,2.756A.8.8,0,0,1,148.313,71.612Zm0,0" transform="translate(-122.874 -39.051)" fill="#faf8f8"/></g><g transform="translate(17.989 14.532)"><path d="M24.3,219.31a12.516,12.516,0,0,1-4.986-1.03L11.773,215A28.61,28.61,0,0,0,3.2,212.765l-2.478-.248A.8.8,0,0,1,0,211.724v-7.772a.8.8,0,0,1,.16-.478c.185-.248,4.626-6.049,11.409-4.54a28.806,28.806,0,0,1,8.792,3.616,8.877,8.877,0,0,0,4.688,1.311h7.545a3.624,3.624,0,0,1,3.083,1.72l6.5-7.486a6.893,6.893,0,0,1,5.479-2.713h.485a.8.8,0,0,1,.73,1.118l-5.877,13.356a10.471,10.471,0,0,1-7,5.9l-1.034.258-6.015,2.406A12.511,12.511,0,0,1,24.3,219.31ZM1.6,211l1.759.176a30.219,30.219,0,0,1,9.055,2.36l7.544,3.28a10.971,10.971,0,0,0,8.4.124l6.064-2.426a.821.821,0,0,1,.1-.033l1.086-.272a8.864,8.864,0,0,0,5.925-5l5.36-12.182a5.331,5.331,0,0,0-3.477,2.063l-7.2,8.3c0,.031,0,.062,0,.093a3.628,3.628,0,0,1-3.624,3.624H22.067a12.691,12.691,0,0,0-4.019.652l-.293-.744-.248-.758.041-.013a14.274,14.274,0,0,1,4.519-.732H32.594a2.029,2.029,0,1,0,0-4.058H25.049a10.47,10.47,0,0,1-5.529-1.55,27.21,27.21,0,0,0-8.3-3.414c-5.137-1.139-8.833,2.8-9.628,3.743V211Zm0,0" transform="translate(0 -172.615)" fill="#faf8f8"/><path d="M231,104.106a9.36,9.36,0,0,1-4.116-1.136.8.8,0,0,1-.394-.445c-.062-.173-1.487-4.272.778-7.3,1.646-2.2,4.74-3.2,9.2-2.947a.8.8,0,0,1,.751.757c.016.317.345,7.791-3.466,10.28A4.929,4.929,0,0,1,231,104.106Zm-3.1-2.416c2.095.982,3.769,1.079,4.983.286,2.26-1.476,2.749-5.858,2.761-8.138-3.5-.085-5.877.7-7.1,2.338C227.087,98.125,227.653,100.8,227.9,101.691Zm0,0" transform="translate(-199.59 -81.519)" fill="#faf8f8"/><path d="M105.513,12.606a7.462,7.462,0,0,1-4.469-1.346c-2.415-1.769-3.524-5.138-3.3-10.012a.8.8,0,0,1,.75-.759c.345-.02,8.51-.455,11.257,3.669,1.279,1.92,1.174,4.434-.311,7.474a.8.8,0,0,1-.441.4A11.012,11.012,0,0,1,105.513,12.606Zm3.212-1.325h.008Zm-9.41-9.223c-.069,3.9.829,6.565,2.672,7.916,2.207,1.617,5.219.929,6.167.653,1.084-2.352,1.175-4.229.272-5.585C106.746,2.521,101.821,2.028,99.315,2.058Zm0,0" transform="translate(-86.302 -0.467)" fill="#faf8f8"/><path d="M148.313,71.612c-.025,0-.05,0-.076,0a.8.8,0,0,1-.721-.834q.07-1.407.236-2.671c.332-5.643.161-18.785-8.148-22.421a.8.8,0,1,1,.639-1.461c4.9,2.142,7.977,7.476,8.906,15.424.083.712.146,1.414.193,2.1,2.188-5.53,5.536-7.483,5.735-7.6a.8.8,0,0,1,.784,1.388c-.084.049-5.218,3.13-6.507,12.631-.1,1.625-.24,2.661-.253,2.756A.8.8,0,0,1,148.313,71.612Zm0,0" transform="translate(-122.874 -39.051)" fill="#faf8f8"/></g></g></svg>