<svg xmlns="http://www.w3.org/2000/svg" width="81" height="81" viewBox="0 0 81 81"><g transform="translate(-0.007)"><circle cx="40.5" cy="40.5" r="40.5" transform="translate(0.007)" fill="#29235c"/><g transform="translate(20.019 13.852)" opacity="0.495"><path d="M83.1,11.441,80.32,10.37V5.619a.737.737,0,0,0-.737-.737h-1.7V.737a.737.737,0,1,0-1.473,0V4.882H74.7a.737.737,0,0,0-.737.737V7.926L61.947,3.3a.737.737,0,0,0-1,.688V9.764H55.909V7.246a.737.737,0,0,0-1.473,0V9.764h-2.42a.737.737,0,1,0,0,1.473H64.2v1.781H46.145V11.238h2.924a.737.737,0,0,0,0-1.473H45.408a.737.737,0,0,0-.737.737v3.255a.737.737,0,0,0,.737.737H46.3V17.9H42.154a.737.737,0,0,0-.737.737v3.255a.737.737,0,0,0,.737.737h.891V49.557a.737.737,0,0,0,.737.737H82.838a.737.737,0,0,0,.737-.737V12.128A.737.737,0,0,0,83.1,11.441ZM75.438,6.355h3.408V9.8L75.438,8.493ZM82.1,12.634V14.31L62.419,6.74V5.064ZM47.773,14.492h14.8V17.9h-14.8ZM42.89,19.375H67.455v1.781H42.89Zm9.918,6.509V48.821H51.027V25.884Zm1.473,0h1.781V48.821H54.282Zm3.255,0h1.781V48.821H57.537Zm3.255,0h1.781V48.821H60.791Zm3.255,0h1.781V48.821H64.046Zm1.781-1.473H44.518V22.629h21.31ZM47.773,25.884h1.781V48.821H47.773Zm-3.255,0H46.3V48.821H44.518ZM67.3,48.821V22.629h.89a.737.737,0,0,0,.737-.737V18.638a.737.737,0,0,0-.737-.737H64.046V14.492h.891a.737.737,0,0,0,.737-.737V10.5a.737.737,0,0,0-.737-.737H62.419V8.319L82.1,15.889V48.821Z" transform="translate(-41.417)" fill="#faf8f8"/><path d="M360.174,165.667H356.92a.737.737,0,0,0-.737.737v3.255a.737.737,0,0,0,.737.737h3.255a.737.737,0,0,0,.737-.737V166.4A.737.737,0,0,0,360.174,165.667Zm-.737,3.255h-1.781V167.14h1.781Z" transform="translate(-325.263 -149.393)" fill="#faf8f8"/><path d="M360.174,248.5H356.92a.737.737,0,0,0-.737.737v3.255a.737.737,0,0,0,.737.737h3.255a.737.737,0,0,0,.737-.737v-3.255A.737.737,0,0,0,360.174,248.5Zm-.737,3.255h-1.781v-1.781h1.781Z" transform="translate(-325.263 -224.089)" fill="#faf8f8"/><path d="M360.174,331.333H356.92a.737.737,0,0,0-.737.737v3.255a.737.737,0,0,0,.737.737h3.255a.737.737,0,0,0,.737-.737V332.07A.737.737,0,0,0,360.174,331.333Zm-.737,3.255h-1.781v-1.781h1.781Z" transform="translate(-325.263 -298.786)" fill="#faf8f8"/><path d="M360.174,414.167H356.92a.737.737,0,0,0-.737.737v3.254a.737.737,0,0,0,.737.737h3.255a.737.737,0,0,0,.737-.737V414.9A.737.737,0,0,0,360.174,414.167Zm-.737,3.255h-1.781V415.64h1.781Z" transform="translate(-325.263 -373.483)" fill="#faf8f8"/></g><g transform="translate(21.019 12.853)"><path d="M83.1,11.441,80.32,10.37V5.619a.737.737,0,0,0-.737-.737h-1.7V.737a.737.737,0,1,0-1.473,0V4.882H74.7a.737.737,0,0,0-.737.737V7.926L61.947,3.3a.737.737,0,0,0-1,.688V9.764H55.909V7.246a.737.737,0,0,0-1.473,0V9.764h-2.42a.737.737,0,1,0,0,1.473H64.2v1.781H46.145V11.238h2.924a.737.737,0,0,0,0-1.473H45.408a.737.737,0,0,0-.737.737v3.255a.737.737,0,0,0,.737.737H46.3V17.9H42.154a.737.737,0,0,0-.737.737v3.255a.737.737,0,0,0,.737.737h.891V49.557a.737.737,0,0,0,.737.737H82.838a.737.737,0,0,0,.737-.737V12.128A.737.737,0,0,0,83.1,11.441ZM75.438,6.355h3.408V9.8L75.438,8.493ZM82.1,12.634V14.31L62.419,6.74V5.064ZM47.773,14.492h14.8V17.9h-14.8ZM42.89,19.375H67.455v1.781H42.89Zm9.918,6.509V48.821H51.027V25.884Zm1.473,0h1.781V48.821H54.282Zm3.255,0h1.781V48.821H57.537Zm3.255,0h1.781V48.821H60.791Zm3.255,0h1.781V48.821H64.046Zm1.781-1.473H44.518V22.629h21.31ZM47.773,25.884h1.781V48.821H47.773Zm-3.255,0H46.3V48.821H44.518ZM67.3,48.821V22.629h.89a.737.737,0,0,0,.737-.737V18.638a.737.737,0,0,0-.737-.737H64.046V14.492h.891a.737.737,0,0,0,.737-.737V10.5a.737.737,0,0,0-.737-.737H62.419V8.319L82.1,15.889V48.821Z" transform="translate(-41.417)" fill="#faf8f8"/><path d="M360.174,165.667H356.92a.737.737,0,0,0-.737.737v3.255a.737.737,0,0,0,.737.737h3.255a.737.737,0,0,0,.737-.737V166.4A.737.737,0,0,0,360.174,165.667Zm-.737,3.255h-1.781V167.14h1.781Z" transform="translate(-325.263 -149.393)" fill="#faf8f8"/><path d="M360.174,248.5H356.92a.737.737,0,0,0-.737.737v3.255a.737.737,0,0,0,.737.737h3.255a.737.737,0,0,0,.737-.737v-3.255A.737.737,0,0,0,360.174,248.5Zm-.737,3.255h-1.781v-1.781h1.781Z" transform="translate(-325.263 -224.089)" fill="#faf8f8"/><path d="M360.174,331.333H356.92a.737.737,0,0,0-.737.737v3.255a.737.737,0,0,0,.737.737h3.255a.737.737,0,0,0,.737-.737V332.07A.737.737,0,0,0,360.174,331.333Zm-.737,3.255h-1.781v-1.781h1.781Z" transform="translate(-325.263 -298.786)" fill="#faf8f8"/><path d="M360.174,414.167H356.92a.737.737,0,0,0-.737.737v3.254a.737.737,0,0,0,.737.737h3.255a.737.737,0,0,0,.737-.737V414.9A.737.737,0,0,0,360.174,414.167Zm-.737,3.255h-1.781V415.64h1.781Z" transform="translate(-325.263 -373.483)" fill="#faf8f8"/></g></g></svg>