<svg xmlns="http://www.w3.org/2000/svg" xmlns:xlink="http://www.w3.org/1999/xlink" width="388.624" height="417.37" viewBox="0 0 388.624 417.37"><defs><linearGradient id="a" x1="0.5" y1="1" x2="0.5" gradientUnits="objectBoundingBox"><stop offset="0" stop-color="gray" stop-opacity="0.251"/><stop offset="0.535" stop-color="gray" stop-opacity="0.122"/><stop offset="1" stop-color="gray" stop-opacity="0.102"/></linearGradient></defs><path d="M417.241,158.66,401.664,142.3s-17.135-25.7-29.6-18.692,17.913,23.365,17.913,23.365l15.577,25.7Z" transform="translate(-100.305 -87.668)" fill="#a0616a"/><path d="M317.227,787.668s11.683,22.587,3.115,24.144-50.625,3.894-51.4,1.558-7.01-10.125-2.336-13.24,23.365-5.452,23.365-5.452l6.231-6.231Z" transform="translate(48.776 -399.685)" fill="#2f2e41"/><path d="M308.949,371.407s24.923,31.154,4.673,63.086l-4.673,53.74s8.567,73.99-2.337,98.914l-1.558,8.567H277.8l7.01-65.423s-.779-7.789-3.115-9.346-40.5-85.673-40.5-85.673,6.231-11.683,3.894-14.019,2.337-49.067,4.673-50.625S308.949,371.407,308.949,371.407Z" transform="translate(63.284 -203.838)" fill="#7977a7"/><path d="M66.253,714.725l-3.115,17.913,30.375-1.557L89.618,711.61Z" transform="translate(261.586 -333.752)" fill="#a0616a"/><ellipse cx="23.365" cy="23.365" rx="23.365" ry="23.365" transform="translate(309.926 16.474)" fill="#a0616a"/><path d="M316.847,139.35l2.337,28.038L294.26,179.071s4.284-26.091,1.168-33.1Z" transform="translate(37.473 -95.617)" fill="#a0616a"/><path d="M257.115,192.648l2.337-9.346,31.933-11.683s3.115,0,2.337,5.452-.779,4.673-.779,4.673,10.9,4.673,11.683,12.462,13.24,10.125,12.461,21.808-4.673,17.913-4.673,17.913,3.894,9.346-2.336,14.8c0,0-6.231,10.9-3.115,18.692s7.01,21.029-1.558,18.692-67.76-6.231-67.76-6.231-8.567-31.933.779-43.615c0,0,0-7.01,7.01-21.029S257.115,192.648,257.115,192.648Z" transform="translate(71.503 -110.751)" fill="#29235c"/><path d="M313.373,371.465s-10.125,42.836-22.587,47.51c0,0-2.336,31.154-15.577,29.6s0-29.6,0-29.6l14.8-53.74Z" transform="translate(56.524 -201.559)" fill="#a0616a"/><path d="M376.871,201.555s-11.683-18.692-14.8-15.577-18.692,12.462-17.913,18.692,7.788,6.231,7.788,6.231L368.3,223.362Z" transform="translate(-46.695 -117.321)" fill="#29235c"/><path d="M306.871,478.177l-9.346,6.718-6.231,66.493s22.587,90.346,28.817,91.125,31.933.779,31.154-1.558-4.673-11.683-4.673-14.019-8.123-21.022-8.123-21.022L327.9,562.292l2.337-34.269Z" transform="translate(6.949 -254.53)" fill="#7977a7"/><path d="M313.931,789.28s32.712-10.125,34.269-7.789,11.948,25.886-2.593,28.52-66.724,7.307-66.724.3,1.558-11.683,6.231-11.683,25.7-10.125,27.26-12.462S313.931,789.28,313.931,789.28Z" transform="translate(11.572 -396.624)" fill="#2f2e41"/><path d="M331.649,100.71a2.306,2.306,0,0,0-3.12-3.084l-.041.024a4.042,4.042,0,0,0-1.9,4.041c-2.809-2.8-.739-8.423-3.773-10.978-1.4-1.183-3.685-1.443-4.406-3.132-.42-.983-.134-2.148-.5-3.151-.55-1.489-2.307-2.111-3.877-2.345-4.938-.736-9.932.517-14.767,1.76a10.356,10.356,0,0,0-4.942,2.266c-1.364,1.37-1.839,3.362-2.675,5.1s-6.322,1.586-8.24,1.339c-.667-1.894,4.257-2.037,4.659-4,1.1-5.376-2.727-11.094-.85-16.25,1.131-3.107,4.085-5.164,7.06-6.609a37.469,37.469,0,0,1,26.511-2.262,5.886,5.886,0,0,1,2.449,1.184c1.132,1.057,1.342,2.753,2.1,4.106,1.718,3.082,5.791,3.814,8.538,6.029,4.16,3.354,4.629,9.409,4.764,14.751.068,2.69.116,5.485-.986,7.941s-3.713,4.456-6.354,3.941C331.412,101.178,331.532,100.951,331.649,100.71Z" transform="translate(23.797 -59.335)" fill="#2f2e41"/><path d="M256.874,227.3a16.6,16.6,0,0,1,20.256,1.029c5.368,4.561,11.142,11.1,10.719,17.862-.779,12.461-5.452,63.865-11.683,64.644s-28.817-5.452-28.817-9.346,5.452-8.567,5.452-8.567l-6.62-39.718a26.254,26.254,0,0,1,10.343-25.656Z" transform="translate(94.508 -135.477)" fill="#29235c"/><g transform="translate(187.095 16.284)" opacity="0.5"><ellipse cx="40.103" cy="40.103" rx="40.103" ry="40.103" transform="translate(0)" fill="url(#a)"/></g><ellipse cx="39.258" cy="39.258" rx="39.258" ry="39.258" transform="translate(187.863 16.873)" fill="#f5f5f5"/><path d="M495.8,149.1c0,13.059,9.383,19.485,21.565,19.485s22.55-6.426,22.55-19.485-9.876-23.645-22.058-23.645S495.8,136.04,495.8,149.1Z" transform="translate(-290.28 -89.099)" fill="#333"/><path d="M517.395,223.839a39.075,39.075,0,0,1-21.579-6.458c1.447-7.906,6.952-8.356,6.952-8.356h30.354s5.195.427,6.817,7.7A39.077,39.077,0,0,1,517.395,223.839Z" transform="translate(-290.306 -128.295)" fill="#662483"/><path d="M304.065,133.874H291.923v10.052a5.732,5.732,0,0,0,5.732,5.732h.677a5.732,5.732,0,0,0,5.732-5.732V133.874Z" transform="translate(-70.448 -62.788)" opacity="0.1"/><path d="M302.971,133.027h-9.954a1.094,1.094,0,0,0-1.094,1.094v8.958a5.732,5.732,0,0,0,5.732,5.732h.677a5.732,5.732,0,0,0,5.732-5.732v-8.958A1.094,1.094,0,0,0,302.971,133.027Z" transform="translate(-70.448 -62.39)" fill="#fda57d"/><path d="M538.163,198.21a17.474,17.474,0,0,1-12.142.034v-1.491h12.142Z" transform="translate(-304.57 -122.539)" opacity="0.1"/><ellipse cx="17.403" cy="17.403" rx="17.403" ry="17.403" transform="translate(210.097 41.678)" fill="#fda57d"/><path d="M539.1,152.641a31.254,31.254,0,0,1-19.047-11.823s-10.837,11.932-18.391,10.618c0,0-4.379-4.6,0-9.2s7.772-10.4,13.574-9.633,12.917,1.095,15.982,3.831S539.1,152.641,539.1,152.641Z" transform="translate(-291.545 -92.423)" opacity="0.1"/><path d="M539.1,152.229a31.254,31.254,0,0,1-19.047-11.822s-10.837,11.932-18.391,10.618c0,0-4.379-4.6,0-9.2s7.772-10.4,13.574-9.633,12.917,1.095,15.982,3.831S539.1,152.229,539.1,152.229Z" transform="translate(-291.545 -92.229)" fill="#333"/><ellipse cx="1.619" cy="3.035" rx="1.619" ry="3.035" transform="translate(243.292 56.029)" fill="#fda57d"/><ellipse cx="1.619" cy="3.035" rx="1.619" ry="3.035" transform="translate(208.481 56.029)" fill="#fda57d"/><g transform="translate(17.256 19.144)" opacity="0.5"><ellipse cx="40.103" cy="40.103" rx="40.103" ry="40.103" transform="translate(0)" fill="url(#a)"/></g><ellipse cx="39.258" cy="39.258" rx="39.258" ry="39.258" transform="translate(18.024 19.733)" fill="#f5f5f5"/><path d="M837.249,229.226a39.075,39.075,0,0,1-21.579-6.458c1.447-7.906,6.952-8.356,6.952-8.356h30.354s5.195.427,6.818,7.7A39.078,39.078,0,0,1,837.249,229.226Z" transform="translate(-779.998 -130.822)" fill="#662483"/><ellipse cx="18.949" cy="18.949" rx="18.949" ry="18.949" transform="translate(38.713 39.215)" fill="#72351c"/><path d="M623.918,139.261H611.777v10.052a5.732,5.732,0,0,0,5.732,5.732h.677a5.732,5.732,0,0,0,5.732-5.732Z" transform="translate(-560.141 -65.314)" opacity="0.1"/><path d="M622.825,138.414H612.87a1.094,1.094,0,0,0-1.094,1.094v8.958a5.732,5.732,0,0,0,5.732,5.732h.677a5.732,5.732,0,0,0,5.732-5.732v-8.958a1.094,1.094,0,0,0-1.094-1.094Z" transform="translate(-560.141 -64.917)" fill="#fda57d"/><path d="M858.017,203.6a17.474,17.474,0,0,1-12.142.034v-1.492h12.142Z" transform="translate(-794.262 -125.065)" opacity="0.1"/><ellipse cx="17.403" cy="17.403" rx="17.403" ry="17.403" transform="translate(40.259 44.538)" fill="#fda57d"/><path d="M862.029,139.961s-7.334,14.888-28.024,6.24l4.816-7.553,8.539-3.065Z" transform="translate(-791.971 -93.85)" opacity="0.1"/><path d="M862.029,139.549s-7.334,14.888-28.024,6.24l4.816-7.553,8.539-3.065Z" transform="translate(-791.971 -93.656)" fill="#72351c"/><path d="M858.433,130.915a10.054,10.054,0,0,0-2.492-4.053c-3.424-3.384-9.035-4.1-11.913-7.956a2.253,2.253,0,0,0,1.032,3.178c-2.754-.018-5.954-.259-7.513-2.53a5.159,5.159,0,0,0,.87,5.447c-2.444.111-5.053,1.77-5.211,4.212a4.863,4.863,0,0,0,2.251,4.1A12.516,12.516,0,0,0,840,135.023C844.651,136.048,861.465,140.342,858.433,130.915Z" transform="translate(-788.31 -86.028)" fill="#72351c"/><path d="M824.593,173.928h.461l8.976,7.991c8.648-4.05,15,0,15,0l9.414-7.663.949.119a17.4,17.4,0,1,1-34.8-.448Zm17.429,11.056c3.386,0,6.13-.686,6.13-1.533s-2.745-1.533-6.13-1.533-6.13.686-6.13,1.533S838.637,184.984,842.022,184.984Z" transform="translate(-784.334 -111.834)" fill="#72351c"/><ellipse cx="1.619" cy="3.035" rx="1.619" ry="3.035" transform="translate(73.453 58.889)" fill="#fda57d"/><ellipse cx="1.619" cy="3.035" rx="1.619" ry="3.035" transform="translate(38.642 58.889)" fill="#fda57d"/><g transform="translate(102.171 84.939)" opacity="0.5"><ellipse cx="40.103" cy="40.103" rx="40.103" ry="40.103" transform="translate(0)" fill="url(#a)"/></g><ellipse cx="39.258" cy="39.258" rx="39.258" ry="39.258" transform="translate(103.016 85.565)" fill="#f5f5f5"/><path d="M693.424,292.723s4.452,21.927,6.88,20.713c0,0-23.429,20.236-44.115,0,0,0,3.642-15.452,8.9-20.713Z" transform="translate(-535.828 -167.55)" fill="#333"/><path d="M677.331,353.136a39.075,39.075,0,0,1-21.579-6.458c1.447-7.906,6.951-8.356,6.951-8.356h30.354s5.195.427,6.817,7.7A39.077,39.077,0,0,1,677.331,353.136Z" transform="translate(-535.166 -188.936)" fill="#662483"/><ellipse cx="17.403" cy="17.403" rx="17.403" ry="17.403" transform="translate(125.173 106.556)" fill="#333"/><path d="M464,263.171H451.859v10.052a5.732,5.732,0,0,0,5.732,5.732h.677A5.732,5.732,0,0,0,464,273.223V263.171Z" transform="translate(-315.309 -123.429)" opacity="0.1"/><path d="M462.907,262.324h-9.954a1.094,1.094,0,0,0-1.094,1.094v8.958a5.732,5.732,0,0,0,5.732,5.732h.677A5.732,5.732,0,0,0,464,272.376v-8.958a1.094,1.094,0,0,0-1.094-1.094Z" transform="translate(-315.309 -123.032)" fill="#be7c5e"/><path d="M698.1,327.507a17.475,17.475,0,0,1-12.142.034v-1.492H698.1Z" transform="translate(-549.43 -183.18)" opacity="0.1"/><ellipse cx="17.403" cy="17.403" rx="17.403" ry="17.403" transform="translate(125.173 110.333)" fill="#be7c5e"/><path d="M699.285,273.985H666.1s2.833-13.4,15.379-12.546S699.285,273.985,699.285,273.985Z" transform="translate(-540.071 -152.859)" fill="#333"/><ellipse cx="1.619" cy="3.035" rx="1.619" ry="3.035" transform="translate(158.001 123.959)" fill="#be7c5e"/><ellipse cx="1.619" cy="3.035" rx="1.619" ry="3.035" transform="translate(124.004 123.959)" fill="#be7c5e"/><path d="M699.285,274.832H666.1s2.833-13.4,15.379-12.546S699.285,274.832,699.285,274.832Z" transform="translate(-540.071 -153.256)" opacity="0.1"/><path d="M657.743,215.666A36.553,36.553,0,1,0,694.3,252.218a36.553,36.553,0,0,0-36.553-36.553m0-9.027a45.579,45.579,0,1,1-45.579,45.579A45.579,45.579,0,0,1,657.743,206.639Z" transform="translate(-515.469 -127.176)" fill="#ccc"/><rect width="10.685" height="11.247" transform="translate(138.338 68.808)" fill="#ccc"/><rect width="11.247" height="10.685" transform="translate(115.916 88.507) rotate(-121)" fill="#ccc"/><rect width="11.247" height="10.685" transform="matrix(-0.875, -0.485, 0.485, -0.875, 101.181, 106.581)" fill="#ccc"/><rect width="10.685" height="11.247" transform="translate(96.666 157.993) rotate(-122)" fill="#ccc"/><rect width="10.685" height="11.247" transform="matrix(-0.485, -0.875, 0.875, -0.485, 183.367, 106.581)" fill="#ccc"/><rect width="11.247" height="10.685" transform="translate(187.88 157.993) rotate(-148)" fill="#ccc"/><rect width="10.685" height="11.247" transform="translate(168.63 88.507) rotate(-149)" fill="#ccc"/><rect width="10.685" height="11.247" transform="translate(138.338 170.03)" fill="#ccc"/><rect width="10.685" height="11.247" transform="translate(119.281 176.72) rotate(-149)" fill="#ccc"/><rect width="11.247" height="10.685" transform="translate(165.264 176.72) rotate(-121)" fill="#ccc"/><rect width="12.934" height="9.56" transform="translate(186.7 120.544)" fill="#ccc"/><rect width="12.934" height="9.56" transform="translate(84.915 120.544)" fill="#ccc"/><path d="M817.66,91.756a36.553,36.553,0,1,0,36.553,36.553A36.553,36.553,0,0,0,817.66,91.756m0-9.027a45.579,45.579,0,1,1-45.579,45.579A45.58,45.58,0,0,1,817.66,82.729Z" transform="translate(-760.301 -69.061)" fill="#ccc"/><rect width="10.685" height="11.247" transform="translate(53.423 3.013)" fill="#ccc"/><rect width="11.247" height="10.685" transform="translate(31.001 22.712) rotate(-121)" fill="#ccc"/><rect width="11.247" height="10.685" transform="matrix(-0.875, -0.485, 0.485, -0.875, 16.266, 40.786)" fill="#ccc"/><rect width="10.685" height="11.247" transform="translate(11.752 92.197) rotate(-122)" fill="#ccc"/><rect width="10.685" height="11.247" transform="matrix(-0.485, -0.875, 0.875, -0.485, 98.453, 40.786)" fill="#ccc"/><rect width="11.247" height="10.685" transform="translate(102.966 92.198) rotate(-148)" fill="#ccc"/><rect width="10.685" height="11.247" transform="translate(83.716 22.712) rotate(-149)" fill="#ccc"/><rect width="10.685" height="11.247" transform="translate(53.423 104.235)" fill="#ccc"/><rect width="10.685" height="11.247" transform="translate(34.367 110.925) rotate(-149)" fill="#ccc"/><rect width="11.247" height="10.685" transform="translate(80.35 110.925) rotate(-121)" fill="#ccc"/><rect width="12.934" height="9.56" transform="translate(101.785 54.749)" fill="#ccc"/><rect width="12.934" height="9.56" transform="translate(0 54.749)" fill="#ccc"/><path d="M497.141,86.454q-.644,0-1.291.022a36.55,36.55,0,1,0,1.245,73.089c.429-.006.859-.013,1.291-.028a36.55,36.55,0,1,0-1.245-73.089m0-9.021v0a45.576,45.576,0,1,1,1.56,91.139c-.533.011-1.073.021-1.6.021a45.576,45.576,0,1,1-1.559-91.139c.533-.011,1.072-.021,1.6-.021Z" transform="translate(-269.929 -66.571)" fill="#ccc"/><rect width="11.247" height="10.685" transform="matrix(-0.035, -0.999, 0.999, -0.035, 221.695, 11.611)" fill="#ccc"/><rect width="11.247" height="10.685" transform="translate(199.579 20.838) rotate(-122.988)" fill="#ccc"/><rect width="11.247" height="10.685" transform="translate(185.481 39.412) rotate(-152.988)" fill="#ccc"/><rect width="10.685" height="11.247" transform="matrix(-0.559, -0.829, 0.829, -0.559, 182.753, 90.95)" fill="#ccc"/><rect width="10.685" height="11.247" transform="matrix(-0.515, -0.857, 0.857, -0.515, 267.618, 36.56)" fill="#ccc"/><rect width="11.247" height="10.685" transform="translate(273.912 87.784) rotate(-149.988)" fill="#ccc"/><rect width="10.685" height="11.247" transform="translate(252.262 19.008) rotate(-150.988)" fill="#ccc"/><rect width="11.247" height="10.685" transform="matrix(-0.035, -0.999, 0.999, -0.035, 225.207, 112.772)" fill="#ccc"/><rect width="10.685" height="11.247" transform="translate(206.004 108.88) rotate(-150.988)" fill="#ccc"/><rect width="11.247" height="10.685" transform="translate(251.959 107.286) rotate(-122.988)" fill="#ccc"/><rect width="12.934" height="9.56" transform="matrix(-0.999, 0.035, -0.035, -0.999, 284.688, 59.503)" fill="#ccc"/><rect width="12.934" height="9.56" transform="translate(169.709 53.931) rotate(-1.988)" fill="#ccc"/></svg>