<svg id="Calque_1" data-name="Calque 1" xmlns="http://www.w3.org/2000/svg" xmlns:xlink="http://www.w3.org/1999/xlink" viewBox="0 0 103.7 103.7"><defs><style>.cls-1,.cls-2{fill:none;stroke-miterlimit:10;stroke-width:2px;}.cls-1{stroke:#82368c;}.cls-2{stroke:#27348b;}.cls-3{opacity:0.5;}.cls-4{fill:url(#Dégradé_sans_nom_8);}.cls-5{fill:url(#Dégradé_sans_nom_8-2);}.cls-6{fill:url(#Dégradé_sans_nom_8-3);}.cls-7{fill:url(#Dégradé_sans_nom_8-4);}.cls-8{fill:url(#Dégradé_sans_nom_8-5);}.cls-9{fill:url(#Dégradé_sans_nom_8-6);}.cls-10{fill:url(#Dégradé_sans_nom_8-7);}.cls-11{fill:url(#Dégradé_sans_nom_8-8);}</style><linearGradient id="Dégradé_sans_nom_8" x1="572.92" y1="370.86" x2="585.48" y2="449.01" gradientTransform="matrix(1, 0, 0, -1, -83.36, 911.81)" gradientUnits="userSpaceOnUse"><stop offset="0" stop-color="#81358a"/><stop offset="1" stop-color="#29235c"/></linearGradient><linearGradient id="Dégradé_sans_nom_8-2" x1="300.36" y1="537.91" x2="312.92" y2="616.06" gradientTransform="matrix(1, 0, 0, -1, -243.4, 628.39)" xlink:href="#Dégradé_sans_nom_8"/><linearGradient id="Dégradé_sans_nom_8-3" x1="574.05" y1="370.68" x2="586.61" y2="448.83" xlink:href="#Dégradé_sans_nom_8"/><linearGradient id="Dégradé_sans_nom_8-4" x1="301.49" y1="537.73" x2="314.05" y2="615.88" gradientTransform="matrix(1, 0, 0, -1, -243.4, 628.39)" xlink:href="#Dégradé_sans_nom_8"/><linearGradient id="Dégradé_sans_nom_8-5" x1="-9272.96" y1="-4142.04" x2="-9260.4" y2="-4063.89" gradientTransform="matrix(-1, 0, 0, 1, -8757.89, 4566.14)" xlink:href="#Dégradé_sans_nom_8"/><linearGradient id="Dégradé_sans_nom_8-6" x1="-9259.67" y1="-4144.18" x2="-9247.11" y2="-4066.03" gradientTransform="matrix(-1, 0, 0, 1, -9203.8, 4113.53)" xlink:href="#Dégradé_sans_nom_8"/><linearGradient id="Dégradé_sans_nom_8-7" x1="-9273.79" y1="-4141.91" x2="-9261.23" y2="-4063.76" gradientTransform="matrix(-1, 0, 0, 1, -8757.89, 4566.14)" xlink:href="#Dégradé_sans_nom_8"/><linearGradient id="Dégradé_sans_nom_8-8" x1="-9260.49" y1="-4144.05" x2="-9247.93" y2="-4065.89" gradientTransform="matrix(-1, 0, 0, 1, -9203.8, 4113.53)" xlink:href="#Dégradé_sans_nom_8"/></defs><title>icontoken</title><circle class="cls-1" cx="50.35" cy="53.35" r="49.35"/><circle class="cls-2" cx="499.25" cy="502.96" r="49.35" transform="translate(-520.02 -366.14) rotate(-9.22)"/><g id="V3"><g id="bottom"><g class="cls-3"><path class="cls-4" d="M478,521.7l15.7-13.15a14.61,14.61,0,0,0,9.89,18.14,14.33,14.33,0,0,0,5.79.5l-15.7,13.15A12.18,12.18,0,0,1,478,521.7Z" transform="translate(-445.9 -452.61)"/><ellipse class="cls-5" cx="61.84" cy="60.08" rx="11.46" ry="11.44"/></g><path class="cls-6" d="M479.38,520.5l15.7-13.15A14.6,14.6,0,0,0,505,525.49a14.34,14.34,0,0,0,5.79.5l-15.7,13.15a12.18,12.18,0,1,1-15.67-18.64Z" transform="translate(-445.9 -452.61)"/><ellipse class="cls-7" cx="63.2" cy="58.88" rx="11.46" ry="11.44"/></g><g id="top"><g class="cls-3"><path class="cls-8" d="M519.66,486.55,504,499.7a14.6,14.6,0,0,0-15.67-18.64L504,467.91a12.18,12.18,0,0,1,15.67,18.64Z" transform="translate(-445.9 -452.61)"/><ellipse class="cls-9" cx="44.04" cy="42.96" rx="11.46" ry="11.44"/></g><path class="cls-10" d="M520.7,485.35,505,498.5a14.6,14.6,0,0,0-15.67-18.64L505,466.71a12.18,12.18,0,1,1,15.67,18.64Z" transform="translate(-445.9 -452.61)"/><ellipse class="cls-11" cx="45.08" cy="41.76" rx="11.46" ry="11.44"/></g></g></svg>