<svg xmlns="http://www.w3.org/2000/svg" width="519.623" height="301.95" viewBox="0 0 519.623 301.95">
  <g id="undraw_sculpting_1c9p" transform="translate(-0.08 -0.013)">
    <path id="Tracé_236" data-name="Tracé 236" d="M572.463,253.867a83.414,83.414,0,0,0-163-25.089,84.168,84.168,0,0,0-34.566,1.6,247.286,247.286,0,0,1-124.493,0,84.168,84.168,0,0,0-34.566-1.6A83.415,83.415,0,1,0,95.6,326.6,83.419,83.419,0,0,0,212.4,440.278a83.423,83.423,0,0,0,100.231-6.263A83.423,83.423,0,0,0,412.9,440.278,83.411,83.411,0,0,0,529.707,326.62a83.385,83.385,0,0,0,42.756-72.754Z" transform="translate(-52.76 -152.153)" fill="#662483" opacity="0.1"/>
    <path id="Tracé_237" data-name="Tracé 237" d="M427.96,413.822s-24.69-1.743-30.387.157-17.093,27.064-17.093,27.064l36.56,1.424,15.668-3.324Z" transform="translate(-224.836 -279.642)" fill="#2f2e41"/>
    <path id="Tracé_238" data-name="Tracé 238" d="M684.72,568.7l1.424-59.963,43.682-.812V568.7Z" transform="translate(-359.572 -266.757)" fill="#3f3d56"/>
    <path id="Tracé_239" data-name="Tracé 239" d="M533.221,495.5c2.915,3.969,3.385,9.168,3.751,14.078q1.064,14.244,2.118,28.488c.475,6.377.95,12.82-.161,19.135a3.711,3.711,0,0,1-.475,1.424,3.6,3.6,0,0,1-2.327,1.253c-8.708,2.037-17.8.038-26.518-1.961-1.6-12.012.992-24.243,5.133-35.61,2.526-6.937,5.617-13.641,8.732-20.326,1.277-2.73,2.478-7.678,4.563-9.814C530.391,489.712,531.654,493.373,533.221,495.5Z" transform="translate(-292.402 -320.742)" fill="#2f2e41"/>
    <path id="Tracé_240" data-name="Tracé 240" d="M533.221,495.5c2.915,3.969,3.385,9.168,3.751,14.078q1.064,14.244,2.118,28.488c.475,6.377.95,12.82-.161,19.135a3.711,3.711,0,0,1-.475,1.424,3.6,3.6,0,0,1-2.327,1.253c-8.708,2.037-17.8.038-26.518-1.961-1.6-12.012.992-24.243,5.133-35.61,2.526-6.937,5.617-13.641,8.732-20.326,1.277-2.73,2.478-7.678,4.563-9.814C530.391,489.712,531.654,493.373,533.221,495.5Z" transform="translate(-292.402 -320.742)" opacity="0.1"/>
    <path id="Tracé_241" data-name="Tracé 241" d="M600.1,589.146a24.263,24.263,0,0,1,6.486-5.318c3.138-1.538,6.756-1.638,10.208-2.213a67.9,67.9,0,0,1,8.133-1.358c2.749-.142,5.7.437,7.7,2.308,2.374,2.184,2.982,5.6,3.466,8.77,1.163,7.659,2.056,16.077-2.094,22.615a19.815,19.815,0,0,1-12.791,8.38,47.7,47.7,0,0,1-9.7.65l-30.482-.033c-.565,0-.176-8.86-.043-9.681a17.036,17.036,0,0,1,3.081-7.473C588.594,599.8,594.876,594.568,600.1,589.146Z" transform="translate(-330.004 -367.426)" fill="#fbbebe"/>
    <path id="Tracé_242" data-name="Tracé 242" d="M600.1,589.146a24.263,24.263,0,0,1,6.486-5.318c3.138-1.538,6.756-1.638,10.208-2.213a67.9,67.9,0,0,1,8.133-1.358c2.749-.142,5.7.437,7.7,2.308,2.374,2.184,2.982,5.6,3.466,8.77,1.163,7.659,2.056,16.077-2.094,22.615a19.815,19.815,0,0,1-12.791,8.38,47.7,47.7,0,0,1-9.7.65l-30.482-.033c-.565,0-.176-8.86-.043-9.681a17.036,17.036,0,0,1,3.081-7.473C588.594,599.8,594.876,594.568,600.1,589.146Z" transform="translate(-330.004 -367.426)" opacity="0.1"/>
    <path id="Tracé_243" data-name="Tracé 243" d="M340.518,350.7l-5.907,7.744c-4.235,5.56-9.168,11.547-16.077,12.6-.427,1.453,1,2.735,2.26,3.566,17.962,11.785,38.9,19.329,60.357,20.293,2.763.128,6.172-.261,7.226-2.825.95-2.322-.788-4.848-2.64-6.543-2.778-2.55-6.343-5.033-6.614-8.793-.18-2.526,1.244-4.843,2.07-7.241,1.125-3.267,1.149-6.794,1.163-10.246a9.589,9.589,0,0,0-.475-3.68,8.142,8.142,0,0,0-1.9-2.521c-6.443-6.367-15.137-9.5-23.346-12.862-2.754-1.135-7.815-4.833-10.227-1.657-1.13,1.486-1.116,4.273-1.947,6.049a34.792,34.792,0,0,1-3.946,6.12Z" transform="translate(-192.262 -239.819)" fill="#fbbebe"/>
    <path id="Tracé_244" data-name="Tracé 244" d="M340.518,350.7l-5.907,7.744c-4.235,5.56-9.168,11.547-16.077,12.6-.427,1.453,1,2.735,2.26,3.566,17.962,11.785,38.9,19.329,60.357,20.293,2.763.128,6.172-.261,7.226-2.825.95-2.322-.788-4.848-2.64-6.543-2.778-2.55-6.343-5.033-6.614-8.793-.18-2.526,1.244-4.843,2.07-7.241,1.125-3.267,1.149-6.794,1.163-10.246a9.589,9.589,0,0,0-.475-3.68,8.142,8.142,0,0,0-1.9-2.521c-6.443-6.367-15.137-9.5-23.346-12.862-2.754-1.135-7.815-4.833-10.227-1.657-1.13,1.486-1.116,4.273-1.947,6.049a34.792,34.792,0,0,1-3.946,6.12Z" transform="translate(-192.262 -239.819)" opacity="0.1"/>
    <circle id="Ellipse_75" data-name="Ellipse 75" cx="39.883" cy="39.883" r="39.883" transform="translate(146.385 43.893)" fill="#fbbebe"/>
    <path id="Tracé_245" data-name="Tracé 245" d="M302.664,422.234c-5.7,1.22-11.6-.5-17.193-2.208-8.043-2.455-16.708-5.36-21.4-12.345-1.092-1.629-2.008-3.513-3.713-4.477-3.68-2.084-7.939,1.282-11.011,4.183-14.985,14.149-35.135,23.351-45.913,40.909-6.149,10.023-8.627,21.893-9.273,33.64-.328,5.954-.2,12.036,1.581,17.724,5.356,17.093,24.167,27.125,30.022,44.052,3.556,10.279.988,20.212-.522,30.986l142.611.294a371.357,371.357,0,0,1-3.4-61.249,59.831,59.831,0,0,1,1.4-13.114c.883-3.48,2.374-6.875,2.407-10.446.1-6.567-4.52-12.725-3.547-19.22s7.326-11.87,6.144-18.27c-1.424-7.6-3.058-15.773-6.258-22.791-1.662-3.665-3.533-7.326-6.348-10.208a30.789,30.789,0,0,0-10.042-6.4,67.991,67.991,0,0,0-27.648-5.555,5.93,5.93,0,0,0-2.516.413c-2.341,1.121-2.322,4.363-3.024,6.866C313.661,419.86,307.446,423.782,302.664,422.234Z" transform="translate(-126.908 -274.108)" fill="#2f2e41"/>
    <rect id="Rectangle_80" data-name="Rectangle 80" width="0.95" height="14.719" transform="translate(228.543 202.187) rotate(-24.98)" fill="#d0d2d5"/>
    <rect id="Rectangle_81" data-name="Rectangle 81" width="5.698" height="46.056" transform="translate(230.219 210.831) rotate(-24.98)" fill="#662483"/>
    <path id="Tracé_246" data-name="Tracé 246" d="M214.468,615.633c-1.762,12.221,3.832,24.134,6.519,36.189,1.989,8.922,2.374,18.123,2.4,27.263.271-.085.223.09.475,0h97.467c15.6-13.921,31.641-28.047,52.157-32.1a70.161,70.161,0,0,0,8.784-1.9c10.845-3.656,16.941-14.89,21.689-25.3,1.686-3.7,3.324-8.133,1.258-11.642a10.251,10.251,0,0,0-2.811-2.911A24.585,24.585,0,0,0,380,601.783c-13.7,4.781-20.416,20.464-32.714,28.141-5.7,3.547-12.321,5.223-18.441,7.948-9.14,4.088-17.093,10.545-26.3,14.458-12.473,5.294-26.48,5.617-39.409,9.672,4.677-5.37,6.286-12.943,5.436-20.013s-3.931-13.693-7.7-19.733c-3.381-5.413-7.716-10.73-13.769-12.706C236.384,606.061,225.54,613.634,214.468,615.633Z" transform="translate(-137.47 -378.059)" fill="#fbbebe"/>
    <path id="Tracé_247" data-name="Tracé 247" d="M344.5,263.634c4.069-3.148,4.852-5.807,5.864-10.849.631-3.157.7-6.747,3-9.021,4.667-4.577,13.712.536,18.66-3.737,3.086-2.659,2.93-7.725,5.807-10.607,2.113-2.122,5.356-2.559,8.352-2.692a71.183,71.183,0,0,1,13.522.693,62.583,62.583,0,0,0,9.605,1.135c6.457-.047,12.516-2.915,18.332-5.721a2.578,2.578,0,0,1-2.175-1.458,55.725,55.725,0,0,1,6.975-3.091c-.627-1.928-4.833-.389-5.047-2.412a2.175,2.175,0,0,1,.551-1.424l4.1-5.85c-3.9,1-7.834-1.7-10.289-4.89s-4.1-7.013-6.984-9.824c-5.769-5.617-14.762-5.769-22.79-5.569l-14.875.366c-6.9.171-13.883.356-20.568,2.094a25.278,25.278,0,0,0-8.589,3.751c-3.21,2.3-5.574,5.6-8.613,8.119-4.069,3.376-9.368,5.408-12.4,9.738a13.038,13.038,0,0,0-2.156,9.411c.594,3.684,2.754,6.946,3.627,10.579,1.491,6.234-.95,12.886.475,19.144,1.049,4.691,4.126,8.632,7.122,12.392.688.864,1.515,1.8,2.616,1.852a5.114,5.114,0,0,0,1.947-.527" transform="translate(-195.501 -161.564)" fill="#2f2e41"/>
    <path id="Tracé_248" data-name="Tracé 248" d="M686.944,540.694v9.971l-20.891,26.114L446.22,570.606v-10.92l58.89-21.466Z" transform="translate(-234.312 -282.666)" fill="#3f3d56"/>
    <path id="Tracé_249" data-name="Tracé 249" d="M686.944,543.43V553.4l-20.891,26.114L446.22,573.342v-9.971l218.409,5.223Z" transform="translate(-234.312 -285.402)" opacity="0.1"/>
    <path id="Tracé_250" data-name="Tracé 250" d="M749.968,525.43v8.546l-22.316,25.165-161.433-3.86V544.9l52.7-19.467Z" transform="translate(-297.336 -275.948)" fill="#d0d2d5"/>
    <path id="Tracé_251" data-name="Tracé 251" d="M749.968,525.43v8.546l-22.316,25.165-161.433-3.86V544.9l161.433,4.273Z" transform="translate(-297.336 -275.948)" opacity="0.1"/>
    <path id="Tracé_252" data-name="Tracé 252" d="M684.22,425.786l1.424-104.931,43.682-1.424V425.786Z" transform="translate(-359.309 -167.758)" fill="#3f3d56"/>
    <path id="Tracé_253" data-name="Tracé 253" d="M396.461,577.107l5.247,3.324-3.186-5.793a5.185,5.185,0,0,1,3.172-1.135h.085a5.537,5.537,0,0,0,1.087-.081l1.781,1.13-.764-1.386a6.339,6.339,0,0,0,3.11-2.374l3.181,2.018-2.008-3.656a9.3,9.3,0,0,1,7.122-3.6c3.324,0,6.258,1.966,8.157,5.033a6.106,6.106,0,0,0,5.394,2.911h.18c3.651,0,6.614,4.145,6.614,9.254S432.669,592,429.018,592a4.924,4.924,0,0,1-2.3-.575,9.553,9.553,0,0,0-8.01-.157,8.352,8.352,0,0,1-6.8,0,9.567,9.567,0,0,0-7.939.157,4.948,4.948,0,0,1-2.279.56c-3.651,0-6.614-4.14-6.614-9.249A11.694,11.694,0,0,1,396.461,577.107Z" transform="translate(-232.498 -359.712)" fill="#662483"/>
    <path id="Tracé_254" data-name="Tracé 254" d="M418.78,603.983a9.772,9.772,0,0,1,5.669.617,8.366,8.366,0,0,0,6.809,0,9.543,9.543,0,0,1,8.005.157,5,5,0,0,0,2.3.575c3.248,0,5.944-3.271,6.51-7.6a6.211,6.211,0,0,1-1.624-1.747c-1.9-3.067-4.853-5.038-8.157-5.038s-6.225,1.947-8.129,4.981a6.258,6.258,0,0,1-5.389,2.963h-.085C422.108,598.893,419.867,600.945,418.78,603.983Z" transform="translate(-244.951 -373.052)" opacity="0.1"/>
    <path id="Tracé_255" data-name="Tracé 255" d="M203.52,508.85a161.362,161.362,0,0,0-3.95,19.22,80.536,80.536,0,0,0,1.14,26.309,36.792,36.792,0,0,1,1.187,7.678,9.477,9.477,0,0,1-2.716,7.051,42.711,42.711,0,0,1,41.379-2.592c6.334,3.1,12.625,7.958,19.59,6.856.641-3.908-3.153-7.6-2.265-11.476.65-2.82,3.608-4.615,4.425-7.393,1.049-3.547-1.681-6.97-2.892-10.446a27.777,27.777,0,0,1-1.078-5.327c-1.016-7.383-2.374-14.785-5.152-21.7s-7.07-13.375-13.1-17.762a45.732,45.732,0,0,0-12.055-5.93c-3.347-1.159-8.219-3.471-11.837-2.849C208.405,491.88,205.115,502.45,203.52,508.85Z" transform="translate(-129.513 -320.233)" opacity="0.1"/>
    <path id="Tracé_256" data-name="Tracé 256" d="M200.52,505.85a161.367,161.367,0,0,0-3.95,19.22,80.536,80.536,0,0,0,1.14,26.309,36.793,36.793,0,0,1,1.187,7.677,9.477,9.477,0,0,1-2.716,7.051,42.711,42.711,0,0,1,41.379-2.592c6.334,3.1,12.625,7.958,19.59,6.856.641-3.908-3.153-7.6-2.265-11.476.65-2.82,3.608-4.615,4.425-7.393,1.049-3.547-1.681-6.97-2.892-10.446a27.781,27.781,0,0,1-1.078-5.327c-1.016-7.383-2.374-14.785-5.152-21.7s-7.07-13.375-13.1-17.762a45.73,45.73,0,0,0-12.055-5.93c-3.347-1.159-8.219-3.471-11.837-2.849C205.405,488.88,202.115,499.45,200.52,505.85Z" transform="translate(-127.938 -318.658)" fill="#2f2e41"/>
    <path id="Tracé_257" data-name="Tracé 257" d="M773.731,399.693c-1.671,9.434-8.523,16.984-15.08,23.973-8.371,8.922-16.243,17.748-24.614,26.674H626.681a13.588,13.588,0,0,0-3.4.085l-1.61.475c-7.972-5.864-14.144-13.769-20.208-21.6l-10.977-14.149c-5.6-7.227-11.523-15.578-10.161-24.618a5.332,5.332,0,0,1,1.007-2.673,6.172,6.172,0,0,1,1.97-1.372c15.194-7.716,32.286-10.683,48.667-15.493,2.535-.745,5.223-1.629,6.937-3.628,2.317-2.664,2.374-6.533,3.091-9.971s2.255-6.818,3.115-10.3a55.819,55.819,0,0,0,1.135-12.43q.114-6.733.223-13.461t.218-13.366c17.568-.342,34.907-1.7,52.4-.332,1.79.142,3.727.356,5.028,1.586a7.64,7.64,0,0,1,1.79,3.675,90.09,90.09,0,0,1,2.431,16.219c.594,7.939.727,15.958,2.051,23.8.731,4.335,1.9,8.765,4.682,12.174,3.86,4.748,10.08,6.685,15.9,8.546q18.095,5.755,35.61,13.1a14.821,14.821,0,0,1,4.881,2.849C774.05,392.006,774.368,396.1,773.731,399.693Z" transform="translate(-329.688 -223.872)" fill="#d0d2d5"/>
    <path id="Tracé_258" data-name="Tracé 258" d="M781.717,328.942c-3.542,3.851-10.56,6.139-14.543,8.323s-8.072,4.387-12.544,4.838c-5.285.537-10.469-1.424-15.422-3.324a44.119,44.119,0,0,1-7.753-3.608c-5.223-3.324-8.6-8.47-11.6-13.992q.109-6.68.219-13.366c17.568-.342,34.907-1.7,52.4-.332,1.79.142,3.727.356,5.028,1.586a7.64,7.64,0,0,1,1.79,3.675A87.992,87.992,0,0,1,781.717,328.942Z" transform="translate(-403.073 -223.862)" opacity="0.1"/>
    <path id="Tracé_259" data-name="Tracé 259" d="M770.92,213.632c1.263-.95,2.759-1.586,3.979-2.6a13.559,13.559,0,0,0,3.025-3.979c2.16-3.884,3.77-8.257,3.423-12.687s-3.01-8.884-7.217-10.313c2.645-8.167.475-17.022-1.738-25.321a37.35,37.35,0,0,0-2.706-7.829c-2.569-4.914-7.174-8.423-11.87-11.348-5.408-3.366-11.262-6.229-17.568-7.165A40.7,40.7,0,0,0,720.8,134.81a23.635,23.635,0,0,0-9.126,5.3c-1.809,1.856-3.091,4.159-4.686,6.206-2.583,3.324-6,5.978-8.138,9.6-2.374,4.012-2.92,8.8-3.428,13.432l-1.69,15.388c-1.12-1.562-3.547-1.7-5.223-.722a8.159,8.159,0,0,0-3.257,4.61,18.859,18.859,0,0,0,1.9,16.015c1.315,2.056,3.02,3.832,4.525,5.755,7.654,9.752,10.583,23.574,21.053,30.226a44.118,44.118,0,0,0,7.753,3.609c4.952,1.9,10.137,3.879,15.422,3.324,4.492-.475,8.584-2.673,12.544-4.843,4.848-2.654,14.206-5.474,16.3-11.072C767.088,225.535,764.861,218.218,770.92,213.632Z" transform="translate(-384.389 -132.04)" fill="#d0d2d5"/>
    <path id="Tracé_260" data-name="Tracé 260" d="M757.19,308.11a25.341,25.341,0,0,1,4.188-2.849,8.974,8.974,0,0,1,6.728-.285,3.878,3.878,0,0,0,1.367.351,4.749,4.749,0,0,0,1.719-.613c2.1-.916,4.549-.252,6.647.674a58.057,58.057,0,0,1,7.991,4.587,18.645,18.645,0,0,0-2.939,1.206c-1.087.56-2.122,1.23-3.21,1.795a24.257,24.257,0,0,1-8.774,2.407,20.386,20.386,0,0,1-2.464.119c-3.357-.066-6.576-1.277-9.714-2.474l-2.773-1.045-1.382-.522c-.28-.109-1.168-.275-1.325-.518-.328-.475,1.173-1.026,1.6-1.282C755.661,309.183,756.43,308.661,757.19,308.11Z" transform="translate(-420.589 -222.492)" opacity="0.1"/>
    <path id="Tracé_261" data-name="Tracé 261" d="M814.3,232.079a10.585,10.585,0,0,1,1.116-.427,10.275,10.275,0,0,1,11.917,4.534c-.347.076-.646-.218-.912-.451a9.911,9.911,0,0,0-2.436-1.325c-.575-.271-1.13-.584-1.714-.831a10.669,10.669,0,0,0-6.524-.385,27.5,27.5,0,0,0-5.7,2.426c0-.688,1.292-1.633,1.795-2.046A10.775,10.775,0,0,1,814.3,232.079Z" transform="translate(-450.446 -184.098)" opacity="0.1"/>
    <path id="Tracé_262" data-name="Tracé 262" d="M822.1,245.973c2.061.066,4.273-.161,5.878-1.424a9.038,9.038,0,0,0-2.887.475,11.965,11.965,0,0,1-5.318.043c-.874-.195-1.728-.475-2.616-.631a4.107,4.107,0,0,0-2.2.1c.228.66,2.654.907,3.324,1.03A25.917,25.917,0,0,0,822.1,245.973Z" transform="translate(-453.024 -191.008)" opacity="0.1"/>
    <path id="Tracé_263" data-name="Tracé 263" d="M740.483,232.079a10.253,10.253,0,0,0-13.033,4.107c.347.076.646-.218.916-.451a9.873,9.873,0,0,1,2.431-1.32c.575-.271,1.13-.584,1.714-.831a10.683,10.683,0,0,1,6.529-.385,26.877,26.877,0,0,1,5.674,2.426c0-.688-1.3-1.633-1.8-2.046A10.668,10.668,0,0,0,740.483,232.079Z" transform="translate(-407.064 -184.098)" opacity="0.1"/>
    <path id="Tracé_264" data-name="Tracé 264" d="M737.383,245.973c-2.056.066-4.273-.161-5.873-1.424a9.038,9.038,0,0,1,2.887.475,11.946,11.946,0,0,0,5.313.043c.878-.195,1.733-.475,2.616-.631a4.13,4.13,0,0,1,2.2.1c-.228.66-2.659.907-3.323,1.03A26.054,26.054,0,0,1,737.383,245.973Z" transform="translate(-409.197 -191.008)" opacity="0.1"/>
    <ellipse id="Ellipse_76" data-name="Ellipse 76" cx="3.02" cy="1.211" rx="3.02" ry="1.211" transform="translate(339.121 71.616)" opacity="0.1"/>
    <ellipse id="Ellipse_77" data-name="Ellipse 77" cx="3.02" cy="1.211" rx="3.02" ry="1.211" transform="translate(352.421 71.616)" opacity="0.1"/>
    <path id="Tracé_265" data-name="Tracé 265" d="M652.27,469.7a34.765,34.765,0,0,1,11.96-1.956c3.979.052,7.915.788,11.87,1.2a146.883,146.883,0,0,0,18.8.361" transform="translate(-367.58 -308.344)" opacity="0.1"/>
    <path id="Tracé_266" data-name="Tracé 266" d="M856.683,469.7a34.765,34.765,0,0,0-11.96-1.956c-3.979.052-7.915.788-11.87,1.2a146.827,146.827,0,0,1-18.793.361" transform="translate(-452.552 -308.344)" opacity="0.1"/>
    <path id="Tracé_267" data-name="Tracé 267" d="M758.57,518c1.562,4.273,6.828,6.039,9.13,9.971a16.822,16.822,0,0,1,1.572,4.373l1.225,4.748A28.037,28.037,0,0,1,769.68,530a9.12,9.12,0,0,1,2.792-6.391,13.766,13.766,0,0,1,3.238-1.9l7.279-3.452" transform="translate(-423.408 -334.739)" opacity="0.1"/>
    <g id="Groupe_101" data-name="Groupe 101" transform="translate(140.802 26.703)" opacity="0.1">
      <path id="Tracé_268" data-name="Tracé 268" d="M357.254,305.868c-2.3,2.255-2.374,5.845-3,9.021-.95,4.682-1.686,7.307-5.038,10.175a3.4,3.4,0,0,0,2.251,1.424,5.114,5.114,0,0,0,1.947-.527l4-1.633c4.069-3.148,4.852-5.807,5.864-10.849.632-3.157.7-6.747,3-9.021a6.052,6.052,0,0,1,.636-.537C363.3,303.727,359.685,303.485,357.254,305.868Z" transform="translate(-349.22 -248.947)"/>
      <path id="Tracé_269" data-name="Tracé 269" d="M461.487,221.376a55.729,55.729,0,0,1,6.975-3.091c-.627-1.928-4.833-.389-5.047-2.412a2.174,2.174,0,0,1,.551-1.424l4.1-5.85c-3.9,1-7.834-1.7-10.289-4.89s-4.1-7.013-6.984-9.824c-5.769-5.617-14.762-5.769-22.79-5.569l-14.876.366c-6.68.166-13.427.347-19.908,1.932,3.613-.323,7.26-.418,10.887-.508l14.876-.366c8.048-.2,17.041-.047,22.79,5.569,2.882,2.811,4.53,6.647,6.984,9.824s6.391,5.888,10.289,4.89l-4.1,5.85a2.175,2.175,0,0,0-.551,1.424c.214,2.023,4.42.475,5.047,2.412a55.731,55.731,0,0,0-6.975,3.091,2.578,2.578,0,0,0,2.2,1.462,78.748,78.748,0,0,1-10.07,4.273h.76c6.457-.048,12.516-2.915,18.332-5.721A2.578,2.578,0,0,1,461.487,221.376Z" transform="translate(-372.329 -188.267)"/>
      <path id="Tracé_270" data-name="Tracé 270" d="M419.136,272.2c-3,.133-6.239.57-8.352,2.692-2.877,2.882-2.721,7.948-5.807,10.607a4.512,4.512,0,0,1-.418.328c3.466.176,6.965.385,9.439-1.752,3.086-2.659,2.93-7.725,5.807-10.607a7.374,7.374,0,0,1,1.837-1.329C420.808,272.15,419.963,272.164,419.136,272.2Z" transform="translate(-378.285 -232.317)"/>
    </g>
  </g>
</svg>
