<svg xmlns="http://www.w3.org/2000/svg" width="517.559" height="381.146" viewBox="0 0 517.559 381.146"><rect width="433.283" height="233.306" transform="translate(28.33 50.232)" fill="#f2f2f2"/><rect width="139.984" height="171.885" transform="translate(70.23 90.228)" fill="#662483" opacity="0.3"/><rect width="111.892" height="6.19" transform="translate(264.017 102.607)" fill="#3f3d56"/><rect width="162.838" height="6.19" transform="translate(264.017 114.034)" fill="#3f3d56"/><rect width="111.892" height="6.19" transform="translate(264.017 141.65)" fill="#3f3d56"/><rect width="111.892" height="6.19" transform="translate(264.017 187.359)" fill="#3f3d56"/><rect width="162.838" height="6.19" transform="translate(264.017 153.077)" fill="#3f3d56"/><rect width="162.838" height="6.19" transform="translate(264.017 164.505)" fill="#3f3d56"/><rect width="162.838" height="6.19" transform="translate(264.017 175.932)" fill="#3f3d56"/><rect width="58.565" height="16.189" transform="translate(264.017 214.975)" fill="#662483"/><rect width="139.984" height="171.885" transform="translate(79.276 80.943)" fill="#3f3d56"/><path d="M435.462,335.9c0,33.382-19.845,45.038-44.325,45.038s-44.325-11.656-44.325-45.038,44.325-75.85,44.325-75.85S435.462,302.522,435.462,335.9Z" transform="translate(-236.2 -159.921)" fill="#662483"/><path d="M360.413,326.086l.454-27.938,18.893-34.563-18.822,30.181.2-12.562L374.163,256.2,361.2,277.879h0l.367-22.594,13.943-19.908-13.885,16.355.229-41.428-1.441,54.844.119-2.263-14.176-21.7L360.3,267.229l-1.321,25.233-.039-.67L342.6,268.958l16.293,25.2-.165,3.156-.03.048.013.259-3.351,64.018h4.477l.538-33.067,16.252-25.139Z" transform="translate(-207.091 -110.171)" fill="#3f3d56"/><ellipse cx="62.374" cy="8.094" rx="62.374" ry="8.094" transform="translate(392.573 364.958)" fill="#3f3d56"/><path d="M136.793,362.626l2.072,4.921L136.534,399.4s1.295,1.813,0,3.108-1.036,1.813-1.036,1.813,2.072,0,1.036,1.554a4.967,4.967,0,0,0-1.036,2.331l.518,1.554a4.847,4.847,0,0,0-1.036,2.331c0,1.036-6.734,32.892-6.734,32.892l-6.475-12.69,3.626-50.5Z" transform="translate(347.616 -213.655)" fill="#662483"/><path d="M274.717,529.983s-11.395,8.393-11.8,15.1,14.689-9.995,14.791-11.878S274.717,529.983,274.717,529.983Z" transform="translate(141.564 -301.327)" fill="#ffb9b9"/><path d="M121.926,796.69l2.849,9.324s4.144,9.065-1.554,10.36-11.137-3.626-11.137-3.626v-6.216l-2.072-9.842Z" transform="translate(365.85 -441.046)" fill="#2f2e41"/><path d="M233,796.69s1.295,17.611-1.554,18.647-12.949,1.295-13.208,0-3.367-2.59-1.036-4.4,3.885-12.431,3.885-12.431Z" transform="translate(208.153 -441.046)" fill="#2f2e41"/><path d="M173.4,445.587v7.77s8.547,17.87,11.655,46.1,13.726,114.214,11.137,115.768-30.561,2.59-31.338.518-1.554-62.675-1.554-62.675l-9.583-42.733s-1.813,15.28-3.367,17.87,2.59,86.761,0,88.056-37.553,3.626-37.035-.518S125.488,499.2,125.488,499.2s5.957-53.093,7.77-53.611,18.388-1.036,20.978-.518S173.4,445.587,173.4,445.587Z" transform="translate(293.914 -256.731)" fill="#2f2e41"/><circle cx="14.762" cy="14.762" r="14.762" transform="translate(432.87 95.101)" fill="#ffb9b9"/><path d="M157.672,300.02s7.511,11.655,5.7,14.762,19.165-3.108,19.165-3.108-12.69-15.539-12.431-17.352S157.672,300.02,157.672,300.02Z" transform="translate(286.853 -177.725)" fill="#ffb9b9"/><path d="M121.772,329.366s13.726-4.4,15.539-6.216a24.908,24.908,0,0,0,3.108-3.885s16.575-2.331,17.093-2.331,4.4,4.662,5.439,5.7,14.244,8.029,14.244,9.842,2.072,11.137,2.072,11.137-4.662,9.583-7.511,11.655-3.626,1.554-3.885,4.921-3.885,8.806-3.885,8.806-2.331,5.957-1.813,7.77,2.849,3.367-2.59,2.849-32.374,1.036-32.374-1.813,5.18-30.043,5.18-30.043Z" transform="translate(307.214 -189.719)" fill="#662483"/><path d="M238.982,343.562l-4.921-.518s-1.813,1.036-2.072,11.136-.259,34.446-2.072,36.518-9.324,34.187-9.324,34.187-2.072.518-2.072,2.331-2.331,3.367-1.295,5.439-1.036,1.554.259,2.849,7.511,3.885,7.77,2.331-.777-1.813.259-2.331,1.036-.777,1.295-2.59,2.59-3.626,2.331-4.4,11.4-23.309,11.4-24.086.777-3.626,1.813-4.144,2.59-1.036,1.813-2.331,2.072-40.143,2.072-40.143Z" transform="translate(194.924 -203.396)" fill="#662483"/><path d="M132.333,253.715c4.527-4.914,11.636-7.522,18.155-6.06s12.009,7.25,12.519,13.912a22.268,22.268,0,0,0,.37,4.075c.593,2.221,2.358,3.981,2.98,6.194.417,1.482.293,3.078.735,4.553.816,2.725,3.342,4.5,5.267,6.6a6.675,6.675,0,0,1,1.686,2.759,10.4,10.4,0,0,1,.128,2.808,19.549,19.549,0,0,0,5.241,13.637,33.641,33.641,0,0,0-6.522-3.792,10.137,10.137,0,0,1-2.782,10.468,8.85,8.85,0,0,1-10.607.687,16.189,16.189,0,0,1-4.2-5.291l-4.345-7.414a11.414,11.414,0,0,0-2.862-3.637c-1-.728-2.211-1.115-3.215-1.834-2.534-1.813-3.215-5.362-2.743-8.442s1.857-5.94,2.651-8.953c.628-2.383.825-5.114-.588-7.133-1.876-2.68-5.732-3.022-8.282-5.072a11.5,11.5,0,0,1-2.076-2.677c-.635-.892-.8-.572-1.78-.613C129.365,258.376,131.333,254.8,132.333,253.715Z" transform="translate(302.815 -153.213)" fill="#2f2e41"/><ellipse cx="1.19" cy="2.857" rx="1.19" ry="2.857" transform="translate(446.853 112.13)" fill="#ffb9b9"/><circle cx="15.236" cy="15.236" r="15.236" transform="translate(181.407 315.201)" fill="#f2f2f2"/><circle cx="15.236" cy="15.236" r="15.236" transform="translate(487.086 15.236)" fill="#f2f2f2"/><circle cx="15.236" cy="15.236" r="15.236" transform="translate(0)" fill="#f2f2f2"/></svg>