<svg xmlns="http://www.w3.org/2000/svg" width="370.335" height="312.695" viewBox="0 0 370.335 312.695">
  <g id="undraw_travel_mode_7sf4" transform="translate(0 0)">
    <path id="Tracé_271" data-name="Tracé 271" d="M841.958,447.679,879.1,389.235l-37.07,64.732.077,6.576q-4.068.033-8.056-.143l1.842-84.536-.051-.652.068-.126.176-7.988L795.412,304.61l40.631,56.509.144,1.688,1.392-63.87-35.135-64.786,35.236,53.565-.368-132.323v-.44l.012.433,2.332,104.288,32.022-42.362-31.917,51.346.7,57.131,29.467-55.757-29.358,64.156.389,31.767,42.853-77.669-42.722,88.751Z" transform="translate(-513.474 -154.953)" fill="#d0cde1"/>
    <ellipse id="Ellipse_78" data-name="Ellipse 78" cx="156.243" cy="8.024" rx="156.243" ry="8.024" transform="translate(31.388 296.647)" fill="#d0cde1"/>
    <circle id="Ellipse_79" data-name="Ellipse 79" cx="4.767" cy="4.767" r="4.767" transform="translate(274.235 300.747)" fill="#3f3d56"/>
    <path id="Tracé_272" data-name="Tracé 272" d="M753.327,494.285,740.76,460.918s1.95-6.283-3.25-5.85-19.067,5.2-19.067,5.2-4.767.433,1.733,7.15l11.267,35.317L735.127,501l-12.133-35.1a2.42,2.42,0,0,1,1.733-3.033c2.383-.65,11.483-4.55,12.35-2.167s12.133,36.617,12.133,36.617Z" transform="translate(-473.598 -294.387)" fill="#3f3d56"/>
    <path id="Tracé_273" data-name="Tracé 273" d="M721.3,548.6l24.267,72.584a26.087,26.087,0,0,0,6.333,3.062,33.2,33.2,0,0,0,6.233,1.489,7.538,7.538,0,0,0,2.355-.186c12.478-2.492,55.279-25.38,55.279-25.38s-21.883-68.25-25.567-76.484-11.917-5.2-11.917-5.2-41.589,11.23-47.559,13.317q-.185.065-.325.117a13.513,13.513,0,0,0-6.5,4.981l0,0C717.832,540.588,721.3,548.6,721.3,548.6Z" transform="translate(-476.038 -319.141)" fill="#662483"/>
    <path id="Tracé_274" data-name="Tracé 274" d="M757.013,529.692l.117.417c1.878-.526,3.478,3.663,3.494,3.705L787.273,607.7l.408-.147-3.379-9.368,36.3-16.032,2.858,8.211.409-.143-23.842-68.49-.013-.021c-.085-.134-2.094-3.275-4.479-2.643l.111.419c1.992-.53,3.819,2.175,3.989,2.435l5.046,14.5-38.156,12.473-5.491-15.222C760.959,533.474,759.273,529.059,757.013,529.692Zm47.807,7.132,3.717,10.679L770.974,561.23l-4.305-11.936Zm-29.411,36.7-4.288-11.888,37.559-13.726,3.691,10.6Zm37.1-14.6,4.046,11.623-36.9,14.766-4.1-11.378Zm-28.359,38.849-4.347-12.052L816.7,570.956l3.753,10.782Z" transform="translate(-494.333 -319.658)" opacity="0.2"/>
    <path id="Tracé_275" data-name="Tracé 275" d="M726.506,559.783c2.167,3.467,26.433,76.051,26.433,76.051a13.879,13.879,0,0,0,1.567,2.195,33.213,33.213,0,0,0,6.233,1.489,7.539,7.539,0,0,0,2.355-.186c-1.491-.537-4.821-2.277-6.472-7.4-2.167-6.717-26-77.567-26-77.567s.745-5.343,2.708-8.784q-.185.065-.325.117a13.512,13.512,0,0,0-6.5,4.981l0,0S724.339,556.317,726.506,559.783Z" transform="translate(-478.015 -332.92)" opacity="0.2"/>
    <path id="Tracé_276" data-name="Tracé 276" d="M734.381,605.869l2.383,7.367s-1.95,14.517,8.233,24.05l2.167,7.367-2.239.061-2.365-7.073a40.157,40.157,0,0,1-7.909-23.657l-2-8.115Z" transform="translate(-481.463 -362.972)" fill="#3f3d56"/>
    <circle id="Ellipse_80" data-name="Ellipse 80" cx="4.767" cy="4.767" r="4.767" transform="translate(288.761 300.855)" fill="#3f3d56"/>
    <circle id="Ellipse_81" data-name="Ellipse 81" cx="4.767" cy="4.767" r="4.767" transform="translate(334.528 280.814)" fill="#3f3d56"/>
    <path id="Tracé_277" data-name="Tracé 277" d="M556.732,286.547s-11.033,2.006-11.535,6.52a52.864,52.864,0,0,0,0,9.529Z" transform="translate(-387.259 -216.6)" fill="#575a89"/>
    <path id="Tracé_278" data-name="Tracé 278" d="M584.12,386.838s-32.1,11.535-53.16,1.5-46.64-22.568-46.64-22.568-12.538,1-11.033-6.52,11.535-51.154,34.6-65.7c0,0,14.042-18.054,22.066-17.051s39.117,75.226,39.117,75.226Z" transform="translate(-351.528 -209.852)" fill="#575a89"/>
    <path id="Tracé_279" data-name="Tracé 279" d="M584.12,386.838s-32.1,11.535-53.16,1.5-46.64-22.568-46.64-22.568-12.538,1-11.033-6.52,11.535-51.154,34.6-65.7c0,0,14.042-18.054,22.066-17.051s39.117,75.226,39.117,75.226Z" transform="translate(-351.528 -209.852)" opacity="0.2"/>
    <path id="Tracé_280" data-name="Tracé 280" d="M720.934,442.547l2.006,5.015s13.039,8.024,7.523,13.541-13.82-9.278-13.82-9.278l-3.231-6.269Z" transform="translate(-471.826 -289.563)" fill="#a0616a"/>
    <path id="Tracé_281" data-name="Tracé 281" d="M279.093,464.1l-2.006,34.6,10.532,4.514,4.012-41.625Z" transform="translate(-139.081 -213.341)" fill="#a0616a"/>
    <path id="Tracé_282" data-name="Tracé 282" d="M366.087,466.593l14.042,18.054,4.012,12.036,10.03-.5,2.508-12.036L382.637,470.1Z" transform="translate(-183.812 -215.834)" fill="#a0616a"/>
    <circle id="Ellipse_82" data-name="Ellipse 82" cx="13.541" cy="13.541" r="13.541" transform="translate(167.599 29.636)" fill="#a0616a"/>
    <path id="Tracé_283" data-name="Tracé 283" d="M586.411,257.06l1,12.538,16.048-5.015s-6.018-9.529-4.514-12.036Z" transform="translate(-408.07 -200.662)" fill="#a0616a"/>
    <path id="Tracé_284" data-name="Tracé 284" d="M566.472,273.057s9.5,2.508,15.032-3.511l11.548,5.517-15.045,56.169-31.595-8.526,5.015-11.033s-6.52-7.523.5-14.544c0,0,1.5-14.042,6.018-17.051A64.541,64.541,0,0,0,566.472,273.057Z" transform="translate(-388.092 -207.966)" fill="#d0cde1"/>
    <path id="Tracé_285" data-name="Tracé 285" d="M608.8,269.047s-17.051,13.541,1.5,53.661,34.1,74.223,40.121,72.217,26.58-17.553,19.559-23.069-36.61-23.069-40.622-46.139,5.517-46.64,5.517-46.64Z" transform="translate(-415.946 -206.186)" fill="#575a89"/>
    <path id="Tracé_286" data-name="Tracé 286" d="M419.105,144.593l43.13,72.719L450.2,222.327l-37.112-50.151Z" transform="translate(-207.496 -66.509)" fill="#575a89"/>
    <path id="Tracé_287" data-name="Tracé 287" d="M512.849,372.547h-3.511L496.3,400.631s-24.574,74.223-22.066,89.268,95.79,13.02,90.773,12.538c-4.773-.459-29.606-114.818-22.317-121.114Z" transform="translate(-351.895 -252.384)" fill="#2f2e41"/>
    <path id="Tracé_288" data-name="Tracé 288" d="M488.311,678.559s-1-4.012-5.015-4.012-4.012,5.517-4.012,5.517l-11.535,10.532s-10.03,12.538,3.009,12.538,13.039-3.009,13.039-3.009,3.511-3.511,6.52-1.5,10.03-2.006,9.027-4.012-2.5-14.984-3.508-12.758S488.311,678.559,488.311,678.559Z" transform="translate(-346.702 -397.208)" fill="#2f2e41"/>
    <path id="Tracé_289" data-name="Tracé 289" d="M634.444,657.845s1-.5-4.012,0-7.021,0-7.021,0l3.511,13.541s-3.009,23.069,7.021,21.063,10.03-16.048,10.03-16.048-1.5-12.538-.5-13.541.5-14.544-1-14.544-8.766-3.25-8.766-3.25S638.457,657.845,634.444,657.845Z" transform="translate(-426.657 -382.512)" fill="#2f2e41"/>
    <path id="Tracé_290" data-name="Tracé 290" d="M577.171,219.9c-.843-1.3-.417-3.06-1.008-4.489-.928-2.244-3.811-2.77-6.231-2.975a18.571,18.571,0,0,0-4.828.013,4.634,4.634,0,0,0-3.348,2.428c-.358.718-.268-1.532-.038-4.419a13.959,13.959,0,0,1,10.705-12.488l.1-.024a26.467,26.467,0,0,1,8.987-.827,11.693,11.693,0,0,1,7.87,4.022c.856,1.084,1.462,2.363,2.418,3.361,1.68,1.753,4.17,2.391,6.458,3.2a19.486,19.486,0,0,1,7.081,4.085,10.562,10.562,0,0,1,3.423,7.258c.048,3.2-1.989,6.508-5.272,7.139a3.685,3.685,0,0,0-1.574.679c-3.135,2.43.441,4.975.416,7.711-.021,2.283-2.562,3.771-4.843,3.877a9.189,9.189,0,0,1-9.152-7.271,19.154,19.154,0,0,1,.145-5.69c.256-2.165-4.407-7.264-1.327-3.527a5.359,5.359,0,0,1,1.178,2.48c.513,2.986-2.2,3.99-3.918,5.644A7.1,7.1,0,0,0,582.7,237.4a8.185,8.185,0,0,1-1.488-10.336c.552-.846,1.263-1.583,1.786-2.447.817-1.349,1.042-4.282-1.244-4.2C580.12,220.475,578.425,221.834,577.171,219.9Z" transform="translate(-395.681 -175.916)" fill="#2f2e41"/>
    <path id="Tracé_291" data-name="Tracé 291" d="M297.149,691.815s-20.134-37.163-68.824-21.093Z" transform="translate(-228.324 -393.292)" fill="#d0cde1"/>
    <path id="Tracé_292" data-name="Tracé 292" d="M359.63,644.273s-24.9-31.649,11.039-71.133Z" transform="translate(-290.021 -346.657)" fill="#d0cde1"/>
  </g>
</svg>
