<svg xmlns="http://www.w3.org/2000/svg" xmlns:xlink="http://www.w3.org/1999/xlink" width="347.101" height="228.187" viewBox="0 0 347.101 228.187">
  <defs>
    <linearGradient id="linear-gradient" x1="0.5" y1="1" x2="0.5" gradientUnits="objectBoundingBox">
      <stop offset="0" stop-color="gray" stop-opacity="0.251"/>
      <stop offset="0.54" stop-color="gray" stop-opacity="0.122"/>
      <stop offset="1" stop-color="gray" stop-opacity="0.102"/>
    </linearGradient>
    <linearGradient id="linear-gradient-2" x1="0.5" y1="1" x2="0.5" y2="0" xlink:href="#linear-gradient"/>
  </defs>
  <g id="undraw_confirmation_2uy0_1_" data-name="undraw_confirmation_2uy0 (1)" transform="translate(0.05 -0.017)">
    <path id="Tracé_374" data-name="Tracé 374" d="M347.268,259.5q-1.625,1.429-3.322,2.776c-.19.154-.387.3-.58.459a116.67,116.67,0,0,1-12.686,8.569l-.825.48c-.2.121-.4.233-.6.344-4.609,2.661-9.391,5.111-14.229,7.43l-.051.027-.365.172q-5.854,2.806-11.882,5.37l-.1.036q-2.718,1.145-5.437,2.229c-.74.3-1.483.583-2.226.87-1.4.535-2.8,1.06-4.213,1.565l-.175.066-.3.106-.378.139q-5.53,1.975-11.209,3.649l-.066.018q-3.96,1.154-7.971,2.135l-.366.091c-3.927.948-7.917,1.764-11.931,2.416l-.924.148q-4.4.692-8.868,1.13c-16.73,1.616-33.66.3-50.287-1.951-33.575-4.555-66.706-13.094-96.922-26.477q-8.7-3.851-17.059-8.246c-.045-.024-.085-.048-.13-.069q-5-2.631-9.874-5.482c-.951-.55-1.9-1.112-2.836-1.676Q69.718,254.779,68,253.71q-2.265-1.414-4.531-2.9l-.707-.471-.272-.184c-.384-.257-.761-.513-1.142-.773-14.2-9.665-26.855-21.379-32.835-36.037-6.911-16.914-2.489-38.359,14.628-48.357,5.884-3.443,12.722-5.313,19.633-6.856l.707-.157c1.169-.257,2.338-.5,3.5-.752,4.075-.864,8.17-1.722,12.227-2.679h0c2.114-.5,4.207-1.021,6.289-1.586l.852-.236a101.819,101.819,0,0,0,14.682-5.171h.03q.766-.34,1.51-.7c.32-.151.64-.3.961-.468a56.893,56.893,0,0,0,14.755-10.321c.335-.338.661-.683.979-1.027.245-.269.486-.541.719-.812,2.933-3.419,4.963-7.216,5.349-11.245h0a14.5,14.5,0,0,0-.181-4.056c-.474-2.534-.933-5.014-1.272-7.433a38.093,38.093,0,0,1,.03-13.081h0a24.624,24.624,0,0,1,6.769-12.369q.873-.906,1.882-1.812a39.652,39.652,0,0,1,10.46-6.609q.707-.3,1.423-.6c10.6-4.289,23.327-5.183,35.221-4.591a192.139,192.139,0,0,1,33,4.591c.861.193,1.722.4,2.576.6a228.759,228.759,0,0,1,27.184,8.406c23.07,8.678,44.844,20.726,65.187,34.022l.6.393q1.275.831,2.534,1.667,2.438,1.616,4.833,3.253l1.078.734q.8.544,1.586,1.09l1.619,1.121h0a1.775,1.775,0,0,1,.217.154l1.377.954c.8.556,1.589,1.115,2.383,1.676h0l1.7,1.208c.353.254.71.5,1.063.761l1.812,1.323.4.3c.085.06.169.121.251.187l.051.033c4.911,3.6,9.7,7.34,14.2,11.3l.58.513.06.054c.489.435.979.876,1.459,1.32a98.335,98.335,0,0,1,15.416,17.422C380.571,194.808,374.714,235.376,347.268,259.5Z" transform="translate(-25.44 -72.24)" fill="#662483" opacity="0.1"/>
    <path id="Tracé_375" data-name="Tracé 375" d="M908.3,268.133c.193-.526-1.25-3.443-1.25-3.588s-1.51-1.767-1.51-2.679S903.571,259,903.571,259s-2.652-1.1-2.942-3.492-3.069-2.44-3.178-2.444c0,0,0-.217.018-.55a7.985,7.985,0,0,0-.356-2.8,2.84,2.84,0,0,0-1.637-1.392,6.306,6.306,0,0,0-.87-2.437,2.746,2.746,0,0,1-.671-2.586,3.433,3.433,0,0,0-.378-2.232,2.287,2.287,0,0,0-1.408-1.308H892.1c-1.383-.335-2.933-.849-2.933-.849s-.157.03-.39.063l-.193-.063a8.636,8.636,0,0,1-1.009.127,1.254,1.254,0,0,1-.819-.269c-.483-.529-4.386-1.531-5.108-1.531a12.133,12.133,0,0,1-2.8-.957l-2.069-1.58a13.194,13.194,0,0,1-1.812-2.5l-.024-.033h0a8.2,8.2,0,0,1-.381-1.054c-.021-.066-.036-.133-.057-.205h0a11.525,11.525,0,0,0,1.151-1.414v-.015c.094-.13.181-.272.269-.408q.19-.3.362-.625c.048-.094.094-.19.142-.281a1.206,1.206,0,0,0,.3-.051l.13-.048a1.53,1.53,0,0,0,.332-.208l.1-.088a2.36,2.36,0,0,0,.6-.927c.033-.1.063-.208.088-.3a.44.44,0,0,1,.027-.109c.009-.033.033-.145.045-.22l.018-.121a1.223,1.223,0,0,1,.036-.214.409.409,0,0,0,0-.124c0-.088.024-.181.033-.272.042-.341.078-.677.151-1.009a.028.028,0,0,0,0-.015,7.719,7.719,0,0,1,.713-1.836c.3-.583.634-1.157.906-1.758h0c.079-.172.154-.347.22-.523s.133-.387.193-.583a.8.8,0,0,1,.042-.178,4.246,4.246,0,0,0,.1-.432,1.509,1.509,0,0,0,.036-.19c.036-.2.06-.4.079-.6a7.411,7.411,0,0,0-.5-3.362c-.359-.906-.906-1.707-1.266-2.6-.553-1.362-.7-2.9-1.374-4.2a5,5,0,0,0-6-2.444c-1.045.387-1.954,1.145-3.02,1.486a9.986,9.986,0,0,1-4.419-.094,5.494,5.494,0,0,0-4.289.74c-1.362,1.108-1.737,3.193-3.02,4.407a6.942,6.942,0,0,1-1.006.755c-.26.178-.523.353-.767.556a2.86,2.86,0,0,0-.891,1.208.982.982,0,0,0-.033.1.925.925,0,0,0-.033.124,1.257,1.257,0,0,1-.021.142.542.542,0,0,0,0,.1,1.747,1.747,0,0,0,0,.217h0v.036a1.384,1.384,0,0,0,.039.242v.066a1.2,1.2,0,0,0,.06.2.151.151,0,0,1,0,.039,2.163,2.163,0,0,0,.088.217.351.351,0,0,0,.042.109.414.414,0,0,1,.042.091,5.717,5.717,0,0,1,.447,1.108,1.256,1.256,0,0,1-.045.737,1.179,1.179,0,0,1-.193.323,4.021,4.021,0,0,1-.338.375,10.007,10.007,0,0,0-2.178,3.483c-.054.148-.106.3-.154.45h0l.063.018.063.015a2.117,2.117,0,0,0,.359.075,2.19,2.19,0,0,0,.242.027,3.742,3.742,0,0,0,.985-.079,1.511,1.511,0,0,0,.16-.036h0a.176.176,0,0,0,.048-.015h.03a5.232,5.232,0,0,0,.791-.275c.06-.027.124-.051.184-.082v1.124a11.366,11.366,0,0,0,5.787,9.239c.172.1.341.193.517.281.015.1.03.208.042.3s.024.172.033.26l-.133-.124a.879.879,0,0,0-.359-.072,1.154,1.154,0,0,0-.574.148,2.114,2.114,0,0,0-.752.734,5.356,5.356,0,0,1-2.362,1.812s-8.759,1.386-9.1,2.534l-4.1.242s-1.447.19-1.589,3.2v.069c-.021.359-.048.68-.082.967v.042c-.254,2.009-.828,2.223-.828,2.223s-1.688,2.966-1.543,4.5a.144.144,0,0,1,0,.036h0a1.973,1.973,0,0,1-.039.619,2.718,2.718,0,0,1-1.263,1.628l-.19,2.718a1.852,1.852,0,0,0-2.024,1.628,6.443,6.443,0,0,1-1.208,2.718s-2.649,2.2-2.794,4.065l-1.64,1.006s-3.8-.861-4.673-2.392c0,0-.1-.1-.266-.251l-.024-.036a.078.078,0,0,0,0,.018,13.337,13.337,0,0,0-1.592-1.4,1.184,1.184,0,0,1,.078.773l-.284-.3-.758-.846s-1.084-1.015-2.61-2.226h0q-.522-.417-1.1-.852c-1.951-1.447-4.3-2.915-6.041-3.135-.036-.072-.181-.619-.523-.619a.574.574,0,0,0-.375.184,5.026,5.026,0,0,0-.033,7.37l.4.368,1.226,1.148,4.138,3.866c.051.036.1.076.151.109l.245.3.19.245.329.42.474.6c-.024.063-.051.124-.072.184-.178.435-.332.858-.459,1.244v.042c-.03.1-.06.187-.088.278a.377.377,0,0,1-.03.094c-.03.091-.054.181-.082.263a1.276,1.276,0,0,0-.042.157.877.877,0,0,1-.03.094c-.136.48-.22.849-.266,1.054l-.32-.1.3.136a.4.4,0,0,1,0,.051l-.018.1c.094.045.193.088.3.13l.069.03,1.184.523h0c.239.106.5.217.776.344s.492.221.761.335h0c3.093,1.377,7.427,3.356,7.735,3.751a6.09,6.09,0,0,0,6.554.906,6.9,6.9,0,0,0,3.513-3.878,40.242,40.242,0,0,0,2.894-4.446c.073-.441,1.365-.939,1.963-1.148l.057-.018.242-.079v.731a37.068,37.068,0,0,1-.441,6.406.04.04,0,0,0,0,.018,6.964,6.964,0,0,1-.48,1.6c-1.108,2.344-3.177,12.728-3.177,12.728h.048a1.4,1.4,0,0,1,.362-.018c-.042.193-.07.344-.091.447s-.03.154-.03.154h.036a1.391,1.391,0,0,1,.35-.021.732.732,0,0,1,.118.015,1.857,1.857,0,0,1-.03.217v.076c0,.012-.018.094-.024.145-.251,1.728-.976,6.225-.976,6.225a14.248,14.248,0,0,1-.773,3.347,8.286,8.286,0,0,0-.4,2.416c0,.151-.021.3-.033.459-.079,1.281-.091,2.48-.091,2.48l-.021.079-.71,3.22a.937.937,0,0,0,.039.088h0c.051.1.133.263.251.468h0l.036.079a9,9,0,0,0,1.673,2.356,4.363,4.363,0,0,0,.507.432h0a.541.541,0,0,1-.021.106c-.006.03-.018.115-.027.169a4.89,4.89,0,0,1-.341,1.208,4.043,4.043,0,0,0-.347,1.317h0a6.059,6.059,0,0,0-.03.979l-.039.178h0c-.106.492-.408,1.936-.571,3.111-.039.269-.076.529-.1.77a3.75,3.75,0,0,0,0,.674,5.531,5.531,0,0,1-.06,1.13,2.555,2.555,0,0,1-.039.332c-.163,1.063-.432,2.178-.432,2.178l-.867,8.321v.492a.954.954,0,0,1-.018.217c0,.2-.03.429-.051.7a2.635,2.635,0,0,1-.018.3,1.575,1.575,0,0,1-.018.287v.157a1.421,1.421,0,0,1-.015.239,1.163,1.163,0,0,0,0,.23v.214c-.027.444-.057.924-.079,1.411v.465a3.487,3.487,0,0,1-.021.465v3.075a8.81,8.81,0,0,0,.073.961c.033.236.057.483.069.737v.35a1.677,1.677,0,0,1,0,.175v1.353c-.076,1.039-.217,1.882-.239,2.015h0v.284c0,.076.018.172.027.278v.151h0a.6.6,0,0,0,.018.175c.018.06,0,.057,0,.091,0,.109.018.22.03.338s.027.245.036.372l.018.239c0,.115.024.236.033.353v.121c0,.082.018.16.024.245l.027.371c0,.082.018.166.024.248a.85.85,0,0,1,0,.127l.039.489a1.3,1.3,0,0,0,.015.242c0,.127.018.257.03.378s0,.278.021.4a2.593,2.593,0,0,1,.018.368,5.107,5.107,0,0,1,0,1.024c-.079.344-.332,1.308-.477,2.353,0,.094-.027.187-.036.284a1.025,1.025,0,0,0,0,.169l-.018.227c0,.181-.021.366-.021.544a4.19,4.19,0,0,0,.136,1.208,5.716,5.716,0,0,1,.151.8.407.407,0,0,0,.015.133c0,.1.021.2.03.3s.015.205.021.3c0,.211.018.429.027.649v.438c.021,1.275-.039,2.522-.057,2.842v.079s.3,5.361.625,7.08c.042.227.072.456.094.692a1.531,1.531,0,0,0,.015.263,13.477,13.477,0,0,1-.205,2.972,32.685,32.685,0,0,1-.48,3.682,2.358,2.358,0,0,0-.432,1.426v.024a4.651,4.651,0,0,0,1.586,3.576l.145.142.175-.066c1.414-.5,2.815-1.03,4.213-1.565.743-.287,1.486-.574,2.226-.87q2.743-1.084,5.437-2.229h0a.345.345,0,0,1-.172-.217,9.835,9.835,0,0,1,.221-3.371c.084-.35.867-7.8.867-7.8a9.648,9.648,0,0,1,.1-3.344c.4-1-.483-4.884-.483-4.884a.863.863,0,0,1,.242-1.051c.544-.574.338-5.694.338-5.694s-.048-2.585-.048-3.256a11.944,11.944,0,0,1,1.105-3.927c.526-.816.2-3.353.2-3.353h0l.03-.193a1.921,1.921,0,0,1,.042-.269l.045-.257a35.479,35.479,0,0,1,.936-4.153c.628-2.009,1.35-5.548,1.35-5.548l4.214-11.3h0l.139-.35.051-.139a18.361,18.361,0,0,1,2.069,7.37,42.674,42.674,0,0,1,.39,5.407,65.165,65.165,0,0,0,.432,6.554s.622,7.753.622,8.086.773,6.3,1.256,7.2-.483,3.685-.77,3.972.1,7.322.1,7.322-.728,5.549-.87,6.7c-.027.208-.069.523-.115.906,4.833-2.32,9.62-4.769,14.229-7.43.2-.112.4-.224.6-.344l.033-6.865a17.345,17.345,0,0,0-.048-4.5c-.387-1.3-.77-3.776-.239-4.446s.048-3.779.048-3.779,0-6.557.722-8.182.483-11.913.483-11.913l.19-6.748s1.537-1.456,1.208-9v-.257c1.679-.106,3.573-.166,3.86.069.459.368,3.044,2.042,5.047,1.625h0a2.456,2.456,0,0,0,.924-.384,27.2,27.2,0,0,0,2.416-1.867l-.767-12.906h0l-.082-1.435c.145.22.272.417.381.6.3.459.468.74.468.74,0-2.009,5.687-8.515,5.687-8.515s5.3-6.841,6.455-7.657,3.422-5.12,3.422-5.12a20.87,20.87,0,0,1,1.157-2.392C909.854,270.958,908.111,268.659,908.3,268.133Zm-16.96,9.185a3,3,0,0,1-.64,1.29c-.024-.3-.048-.583-.072-.885v-.079a97.936,97.936,0,0,1-.535-9.8,11.682,11.682,0,0,0,.2-2.471h0c.021-1.157,0-2.259,0-2.259h0l.054-.076a24.13,24.13,0,0,0,3.99,6.542s.532,1.531,1.157,1.58.384,2.009.384,2.009a2.278,2.278,0,0,0-.822.3,7.2,7.2,0,0,0-.852.577h0C892.825,275.1,891.378,276.829,891.345,277.319Z" transform="translate(-573.546 -165.216)" fill="url(#linear-gradient)"/>
    <path id="Tracé_376" data-name="Tracé 376" d="M837,404.6s1.758-9.212,7.406-9.261l4.132,8.5-2.779,1.888S839.791,405.918,837,404.6Z" transform="translate(-591.909 -297.738)" fill="#65617d"/>
    <path id="Tracé_377" data-name="Tracé 377" d="M848.526,403.848l-2.767,1.9a32.657,32.657,0,0,1-7.219-.6,8.25,8.25,0,0,1-1.54-.523.558.558,0,0,1,.03-.148.212.212,0,0,1,0-.036,20.977,20.977,0,0,1,1.069-3.383c.172-.414.372-.84.583-1.266a8.644,8.644,0,0,1,3.582-3.927,4.9,4.9,0,0,1,1.882-.492h.251l.094.187,1.4,2.872Z" transform="translate(-591.909 -297.759)" opacity="0.1"/>
    <path id="Tracé_378" data-name="Tracé 378" d="M1020.5,489.246s5.935-.568,6.458-.142,3.893,2.613,5.89,1.235.664-6.174.664-6.364-.19-6.98-.19-6.98l-3.561-4.8-4.464-8.4-9.116-.906.236,13.344-.045,6.838Z" transform="translate(-716.969 -344.886)" fill="#65617d"/>
    <path id="Tracé_379" data-name="Tracé 379" d="M1020.5,489.246s5.935-.568,6.458-.142,3.893,2.613,5.89,1.235.664-6.174.664-6.364-.19-6.98-.19-6.98l-3.561-4.8-4.464-8.4-9.116-.906.236,13.344-.045,6.838Z" transform="translate(-716.969 -344.886)" opacity="0.1"/>
    <path id="Tracé_380" data-name="Tracé 380" d="M826.263,374.316s-.468,5.793-4.093,5.884a28.418,28.418,0,0,1-2.4-1.646c-3.171-2.371-8.2-6.932-6.811-11.176,1.993-6.077,11.68,5.135,11.68,5.135l.746.834Z" transform="translate(-574.966 -276.962)" fill="#a5636d"/>
    <path id="Tracé_381" data-name="Tracé 381" d="M841.853,392.266s-.468,5.793-4.093,5.884a28.408,28.408,0,0,1-2.4-1.646l-.3-.4a4.718,4.718,0,0,0,1.978.535,2.652,2.652,0,0,0,2.582-1.628,20.981,20.981,0,0,0,1-2.3,6.923,6.923,0,0,0,.362-1.426Z" transform="translate(-590.555 -294.912)" opacity="0.1"/>
    <path id="Tracé_382" data-name="Tracé 382" d="M840.941,401.649l-.812-1.045-2.718-3.519-1.411-1.8a4.714,4.714,0,0,0,1.975.532,2.648,2.648,0,0,0,2.583-1.628,20.4,20.4,0,0,0,1-2.3c.45-1.281.441-1.939.281-2.163a14.537,14.537,0,0,1,1.571,1.4l.021.018.26.248.1.193,1.374,2.752v.115C845.291,395.325,845.753,400.864,840.941,401.649Z" transform="translate(-591.211 -293.803)" fill="#e7effd"/>
    <path id="Tracé_383" data-name="Tracé 383" d="M911.527,572.945a1.375,1.375,0,0,0-.284-.187h-.024c-.568-.239-.048-3.184.048-3.564s.855-7.726.855-7.726a10.009,10.009,0,0,1,.1-3.323c.381-1-.477-4.833-.477-4.833a.888.888,0,0,1,.239-1.045c.523-.571.332-5.651.332-5.651s-.045-2.561-.045-3.229a11.778,11.778,0,0,1,1.09-3.893c.523-.809.19-3.322.19-3.322h0l.027-.193c.015-.069.027-.16.042-.266l.045-.254a1.228,1.228,0,0,1,.033-.193c.027-.151.057-.3.091-.5.018-.109.039-.224.063-.338.069-.362.151-.761.239-1.169.027-.127.057-.257.088-.384s.073-.3.112-.459c.024-.094.045-.184.072-.278.07-.278.145-.547.227-.8.6-2,1.332-5.509,1.332-5.509l4.413-11.592.051-.139.139.269h0a17.779,17.779,0,0,1,1.9,7.041,41.844,41.844,0,0,1,.381,5.364,63.549,63.549,0,0,0,.429,6.506s.6,7.69.6,8.022.761,6.27,1.235,7.17-.474,3.658-.761,3.927.1,7.267.1,7.267-.713,5.506-.858,6.645c-.03.272-.091.728-.154,1.287l.366-.172.051-.027c4.833-2.32,9.62-4.769,14.229-7.43l.039-7.282a17.452,17.452,0,0,0-.045-4.464c-.378-1.281-.761-3.751-.242-4.419s.051-3.748.051-3.748,0-6.506.71-8.119.477-11.825.477-11.825l.187-6.693s1.549-1.477,1.184-9.185c-.039-.822-.1-1.713-.184-2.685-.263-2.909-.529-5.542-.77-7.823-.021-.2-.042-.39-.063-.577-.024-.254-.054-.5-.079-.749-.057-.516-.112-1.012-.166-1.483-.018-.139-.033-.275-.048-.411q-.118-1.015-.22-1.873c-.024-.224-.054-.444-.079-.652-.039-.3-.076-.6-.109-.885a1.5,1.5,0,0,0-.027-.2,2.533,2.533,0,0,0-.042-.347c-.157-1.232-.251-1.906-.251-1.906h-.042l-4.775.042-10.423.1h-.305l-5.437.051h-.332l-2.61.027H914l-5.437.051h-.329l-2.232,9.2-4.558,10.448s-.069,1.145-.23,2.262v.066a.218.218,0,0,1-.018.109.789.789,0,0,0-.027.169,5.87,5.87,0,0,1-.384,1.477,3.687,3.687,0,0,0-.3,1.042,6.116,6.116,0,0,0-.07,1.157h0v.063s-.362,1.646-.574,3.048c-.039.269-.076.529-.1.77a4.87,4.87,0,0,0-.042.885,4.953,4.953,0,0,1-.033.906,2.544,2.544,0,0,1-.039.332c-.148,1.112-.447,2.356-.447,2.356l-.858,8.264a.184.184,0,0,1,0,.027v.344a.957.957,0,0,1-.018.217c0,.2-.03.429-.051.7a2.623,2.623,0,0,1-.018.3,1.58,1.58,0,0,1-.018.287v.157a1.415,1.415,0,0,1-.015.239,1.167,1.167,0,0,0,0,.23v.214c-.024.444-.054.924-.076,1.411v.465a3.5,3.5,0,0,1-.021.465v3.1a8.239,8.239,0,0,0,.073,1.009c.03.224.054.453.069.689V539.2c-.076,1.039-.217,1.882-.239,2.015h0v.284c0,.076.018.172.027.278v.151h0a.6.6,0,0,0,.018.175c.018.06,0,.057,0,.091,0,.109.018.22.03.338s.024.245.036.372l.018.239c0,.115.024.236.033.353v.121c0,.082.018.16.024.245l.027.371c0,.082.018.166.024.248v.127l.039.489a1.3,1.3,0,0,0,.015.242c0,.127.018.257.03.378s0,.278.021.4a2.6,2.6,0,0,1,.018.369,5.372,5.372,0,0,1,0,.991,23.136,23.136,0,0,0-.471,2.386c0,.094-.027.187-.036.284a1.025,1.025,0,0,0,0,.169l-.018.227c0,.181-.021.365-.021.544a4.166,4.166,0,0,0,.136,1.139,6.393,6.393,0,0,1,.166,1c.024.193.039.4.051.6s.018.429.027.649v.438c.018,1.435-.06,2.806-.06,2.806a.3.3,0,0,0,0,.036v.024c.03.6.3,5.367.6,6.968a7.26,7.26,0,0,1,.106.858,1.537,1.537,0,0,0,.015.263,13.836,13.836,0,0,1-.214,2.776,33.176,33.176,0,0,1-.586,3.688,2.579,2.579,0,0,0-.426,1.652v.024a4.694,4.694,0,0,0,1.568,3.323l.338.338c1.414-.5,2.815-1.03,4.213-1.565.743-.287,1.486-.574,2.226-.87q2.743-1.084,5.437-2.229Z" transform="translate(-634.233 -360.066)" fill="#3f3d56"/>
    <path id="Tracé_384" data-name="Tracé 384" d="M989,286.687l-7.029,7.506s-9.019-3.625-8.07-4.833c.368-.477.3-1.984.1-3.649-.332-2.631-1.045-5.66-1.045-5.66s15.764-2.564,14.432.1a4.362,4.362,0,0,0-.1,3.153A11.954,11.954,0,0,0,989,286.687Z" transform="translate(-686.797 -216.496)" fill="#a5636d"/>
    <path id="Tracé_385" data-name="Tracé 385" d="M987.382,280.11c-.483.97-.716,1.063-.414,2.114-2.06,2.211-4.682,4.63-7.941,4.63A11.248,11.248,0,0,1,974,285.677c-.332-2.631-1.045-5.66-1.045-5.66S988.714,277.449,987.382,280.11Z" transform="translate(-686.797 -216.47)" opacity="0.1"/>
    <path id="Tracé_386" data-name="Tracé 386" d="M978.255,240.554a11.3,11.3,0,0,1-22.6,0v-.163a11.3,11.3,0,1,1,22.6.163Z" transform="translate(-674.722 -181.759)" fill="#a5636d"/>
    <path id="Tracé_387" data-name="Tracé 387" d="M962.448,499.231c-1.51,0-6.482.054-12.052.142h-.069l-1.839.03h-.057c-6.606.106-13.115-1.184-15.727-.939-5.557.523,1.994-5.135,1.994-5.135a46.514,46.514,0,0,0,12.656,1.281l1.6-.085c5.047-.284,10.121-.758,12.773-1.556C961.907,494.444,962.176,496.579,962.448,499.231Z" transform="translate(-657.281 -365.88)" opacity="0.1"/>
    <path id="Tracé_388" data-name="Tracé 388" d="M962.448,498.291c-1.51,0-6.482.051-12.052.142h-.069l-1.839.03h-.057c-6.606.106-13.115-1.184-15.727-.939-5.557.52,1.994-5.135,1.994-5.135a46.44,46.44,0,0,0,12.656,1.278l1.6-.082c5.047-.284,10.121-.761,12.773-1.556C961.907,493.5,962.176,495.645,962.448,498.291Z" transform="translate(-657.281 -365.224)" fill="#5f5d7e"/>
    <path id="Tracé_389" data-name="Tracé 389" d="M947.237,311.036l-8.738,4.084-6.739,52.126s3.987-1.812,6.267-.664,9.306.1,9.306.1,5.135-.3,5.887.284,9.69-2.374,9.69-2.374,1.613-3.609.378-4.177.381-6.183.381-6.183l-.758-37.607-1.51-4.833-4.084-2.468-4.177,3.322-1.994.287Z" transform="translate(-658.048 -237.7)" opacity="0.1"/>
    <path id="Tracé_390" data-name="Tracé 390" d="M947.237,309.151l-8.735,4.084-6.742,52.139s3.987-1.812,6.267-.665,9.306.094,9.306.094,5.135-.284,5.887.284,9.69-2.374,9.69-2.374,1.613-3.606.378-4.177.381-6.174.381-6.174l-.758-37.607-1.51-4.833-4.084-2.471-4.177,3.322-1.994.284Z" transform="translate(-658.048 -236.395)" fill="#e7effd"/>
    <path id="Tracé_391" data-name="Tracé 391" d="M966.875,319.341s2.519,2.99,2.471,3.609-.142,2.087-.142,2.087l-1.885,3.848s-1.045,4.8-1.045,5.793-1.661,9.638-1.661,9.638l-1.993,13.29L960.1,375.035l2.564,4.416,3.039-2.564,4.032-31.05.855-6.125s.906-11.016.906-12.154a38.826,38.826,0,0,0-.523-4.132s.619-2.848,3.184-3.513-.19-.145-.19-.145L972.5,318.58l-1.284.523S967.636,318.012,966.875,319.341Z" transform="translate(-677.828 -244.163)" opacity="0.1"/>
    <path id="Tracé_392" data-name="Tracé 392" d="M965.893,318.4s2.516,2.99,2.471,3.606-.145,2.09-.145,2.09l-1.9,3.848s-1.045,4.793-1.045,5.79-1.661,9.641-1.661,9.641l-2,13.29L959.1,374.092l2.564,4.416,3.039-2.564,4.032-31.047.855-6.125s.906-11.015.906-12.157a38.629,38.629,0,0,0-.523-4.129,4.83,4.83,0,0,1,3.18-3.516c2.576-.664-.187-.142-.187-.142l-1.474-1.187-1.281.523S966.654,317.069,965.893,318.4Z" transform="translate(-677.13 -243.507)" fill="#662483"/>
    <path id="Tracé_393" data-name="Tracé 393" d="M971.7,303.65s-.381.284-.474,2.184a37.916,37.916,0,0,1-1.426,6.174s4.938-3.419,7.409-3.039Z" transform="translate(-684.598 -233.743)" opacity="0.1"/>
    <path id="Tracé_394" data-name="Tracé 394" d="M971.7,301.76s-.381.287-.474,2.184a38,38,0,0,1-1.426,6.174s4.938-3.419,7.409-3.039Z" transform="translate(-684.598 -232.424)" fill="#e7effd"/>
    <path id="Tracé_395" data-name="Tracé 395" d="M1002.775,298.62,995,305.458s6.554,3.893,7.409,4.833,1.71-9.306,1.71-9.306Z" transform="translate(-702.187 -230.232)" opacity="0.1"/>
    <path id="Tracé_396" data-name="Tracé 396" d="M1003.687,296.73l-7.787,6.838s6.551,3.893,7.406,4.833,1.71-9.309,1.71-9.309Z" transform="translate(-702.815 -228.913)" fill="#e7effd"/>
    <path id="Tracé_397" data-name="Tracé 397" d="M924.653,303.484s-.855-.429-1.661.806a5.405,5.405,0,0,1-2.326,1.812s-8.644,1.377-8.977,2.516l-4.035.236s-1.426.172-1.559,3.193-.906,3.274-.906,3.274-1.664,2.945-1.51,4.464a2.473,2.473,0,0,1-1.284,2.28l5.947,15.416s.19,6.364-.906,8.69S904.3,358.8,904.3,358.8s.855-.19.806.381-1.045,6.79-1.045,6.79a13.67,13.67,0,0,1-.758,3.322c-.474.855-.522,5.319-.522,5.319L902,377.843s1.812,4.035,4.561,3.464S914.3,369.96,914.3,369.96l3.18-11.632,2.471-11.493.713-7.787,1.139-17.238,1.661-11.4S925.327,304.29,924.653,303.484Z" transform="translate(-637.277 -233.576)" opacity="0.1"/>
    <path id="Tracé_398" data-name="Tracé 398" d="M923.75,301.6s-.855-.426-1.661.809a5.405,5.405,0,0,1-2.329,1.812s-8.641,1.377-8.974,2.516l-4.035.239s-1.426.19-1.568,3.181-.906,3.277-.906,3.277-1.661,2.945-1.51,4.464a2.472,2.472,0,0,1-1.281,2.277l5.926,15.422s.19,6.364-.906,8.69-3.132,12.631-3.132,12.631.855-.19.807.381-1.045,6.79-1.045,6.79a13.671,13.671,0,0,1-.758,3.322c-.474.855-.522,5.319-.522,5.319l-.755,3.244s1.812,4.035,4.558,3.467,7.741-11.351,7.741-11.351l3.181-11.632,2.471-11.478.71-7.787,1.142-17.235,1.661-11.4S924.415,302.406,923.75,301.6Z" transform="translate(-636.648 -232.26)" fill="#65617d"/>
    <path id="Tracé_399" data-name="Tracé 399" d="M847.842,403.15l-2.767,1.9a32.656,32.656,0,0,1-7.219-.6l-1.534-.68-.3-.136.317.1a6.268,6.268,0,0,0,3.8.136c3.9-1.311,3.467-7.747,3.322-9.2a1.308,1.308,0,0,0-.03-.275.082.082,0,0,1,0-.018l.024.036a1.729,1.729,0,0,0,.178.251,2,2,0,0,0,.175.184h0l1.374,2.752v.115Z" transform="translate(-591.225 -297.061)" opacity="0.1"/>
    <path id="Tracé_400" data-name="Tracé 400" d="M858.043,362l-1.329.381-.19,2.718a1.825,1.825,0,0,0-1.993,1.616,6.6,6.6,0,0,1-1.187,2.718s-2.613,2.184-2.755,4.035l-1.616,1s-3.751-.855-4.606-2.374c0,0,1.71,12.251-7.406,9.261,0,0,10.209,4.464,10.683,5.08a6,6,0,0,0,6.458.906,6.85,6.85,0,0,0,3.467-3.893,39.711,39.711,0,0,0,2.848-4.416c.094-.571,2.232-1.235,2.232-1.235l4.084-9.874Z" transform="translate(-591.881 -274.469)" fill="#65617d"/>
    <path id="Tracé_401" data-name="Tracé 401" d="M1014.942,303l1.377-6.267a7.134,7.134,0,0,0,1.235,2.516c.631.474,2.042,1.568,2.042,1.568a11.864,11.864,0,0,0,2.752.951c.71,0,4.561,1,5.035,1.51s2.374.142,2.374.142,1.568.523,2.945.855,2.042,2.613,1.755,3.513a2.746,2.746,0,0,0,.664,2.564,6.08,6.08,0,0,1,.855,2.416,2.786,2.786,0,0,1,1.616,1.377,9.579,9.579,0,0,1,.332,3.322l-7.074,9.967a29.088,29.088,0,0,1-.19,4.7c-.284.855,1,15.386,1,15.386l1.471,24.976a26.262,26.262,0,0,1-2.374,1.852c-.429.19-.855-8.832-.855-9.164s-10.967-16.431-10.967-16.431a14.732,14.732,0,0,1-1.474-2.9c0-.523-1.377-5.316-1.377-5.316L1014,331.3Z" transform="translate(-715.448 -228.913)" opacity="0.1"/>
    <path id="Tracé_402" data-name="Tracé 402" d="M1039.819,316.909c0,.326-.018.544-.018.544l-7.071,9.967h0a29.057,29.057,0,0,1-.187,4.7c-.166.5.2,5.606.531,9.8.239,3.02.465,5.582.465,5.582l.622,10.6.846,14.383a26.582,26.582,0,0,1-2.371,1.852c-.426.19-.855-8.832-.855-9.167s-10.976-16.434-10.976-16.434a14.779,14.779,0,0,1-1.471-2.9c0-.523-1.377-5.319-1.377-5.319l-2.087-9.258.948-28.3.807-6.267a13.411,13.411,0,0,0,1.812,2.516c.625.471,2.039,1.568,2.039,1.568a11.847,11.847,0,0,0,2.755.951c.713,0,4.558,1,5.035,1.51s2.374.142,2.374.142,1.565.523,2.942.855,2.042,2.613,1.758,3.513a2.736,2.736,0,0,0,.665,2.564,6.117,6.117,0,0,1,.855,2.416,2.794,2.794,0,0,1,1.616,1.377A8.165,8.165,0,0,1,1039.819,316.909Z" transform="translate(-716.753 -228.885)" fill="#65617d"/>
    <path id="Tracé_403" data-name="Tracé 403" d="M909.72,783.12c-.74.3-1.483.583-2.226.87-2.329-.68-4.5-1.48-4.5-1.48A61.821,61.821,0,0,1,909.72,783.12Z" transform="translate(-637.968 -567.967)" opacity="0.1"/>
    <path id="Tracé_404" data-name="Tracé 404" d="M999.67,700.6s5.651,1.329,5.983,2.232Z" transform="translate(-705.446 -510.797)" opacity="0.1"/>
    <path id="Tracé_405" data-name="Tracé 405" d="M924.42,714.12s-2.945.855-.094,2.564S924.42,714.12,924.42,714.12Z" transform="translate(-651.992 -520.233)" opacity="0.1"/>
    <path id="Tracé_406" data-name="Tracé 406" d="M970.74,560.357c.332,0,5.509-1.71,7.312-.948a12,12,0,0,0,4.038.758Z" transform="translate(-685.254 -412.115)" opacity="0.1"/>
    <path id="Tracé_407" data-name="Tracé 407" d="M957.436,574.942l-.051.471-4.428,11.58s-.713,3.513-1.332,5.506a36.1,36.1,0,0,0-.924,4.123l3.927-24.3Z" transform="translate(-671.267 -421.263)" opacity="0.1"/>
    <path id="Tracé_408" data-name="Tracé 408" d="M988.9,502.042l-1.839.03H987l-1.078-4.787c.529-.024,1.063-.051,1.6-.085Z" transform="translate(-695.849 -368.832)" fill="#3f3d56"/>
    <path id="Tracé_409" data-name="Tracé 409" d="M1025.8,483.475l-1.181.976-3.936,3.253s-10.683,5.7-13.625.284c-2.595-4.769,9.517-8.173,12.435-8.916.4-.1.622-.151.622-.151Z" transform="translate(-710.347 -356.074)" fill="#a5636d"/>
    <path id="Tracé_410" data-name="Tracé 410" d="M918.87,339.49s2.087.951,2.561,2.28S918.87,339.49,918.87,339.49Z" transform="translate(-649.051 -258.758)" opacity="0.1"/>
    <path id="Tracé_411" data-name="Tracé 411" d="M892.618,386.66s-3.039,3.7-1.812,5.135S892.618,386.66,892.618,386.66Z" transform="translate(-629.26 -291.68)" opacity="0.1"/>
    <path id="Tracé_412" data-name="Tracé 412" d="M1070.525,346.41s-2.848.284-2.945,2.755Z" transform="translate(-752.844 -263.587)" opacity="0.1"/>
    <path id="Tracé_413" data-name="Tracé 413" d="M989.92,454.133c.3-.284,6.838-9.967,8.357-9.116Z" transform="translate(-698.641 -332.374)" opacity="0.1"/>
    <path id="Tracé_414" data-name="Tracé 414" d="M978.255,240.582a11.262,11.262,0,0,1-1.338,5.334h-.085c-.716-.151-1.087-.985-1.634-1.51a2.226,2.226,0,0,0-2.564-.359,2.6,2.6,0,0,0-1.259,2.438c-.362-1.51-.248-3.138-.6-4.66s-1.417-3.066-2.872-3.093c-.628,0-1.359.233-1.812-.239-.275-.284-.329-.731-.535-1.075-1.042-1.682-4.207-.831-5.5.033a33.82,33.82,0,0,1-4.4,2.981,11.3,11.3,0,1,1,22.6.163Z" transform="translate(-674.722 -181.787)" opacity="0.1"/>
    <path id="Tracé_415" data-name="Tracé 415" d="M958.875,223.021c.205.344.26.791.535,1.075.453.468,1.184.227,1.812.239,1.456.024,2.519,1.568,2.872,3.09s.239,3.141.6,4.661a2.6,2.6,0,0,1,1.26-2.434,2.22,2.22,0,0,1,2.561.359c.547.52.906,1.353,1.637,1.51s1.408-.538,1.667-1.293a20.442,20.442,0,0,0,.408-2.365c.323-1.483,1.29-2.7,1.812-4.1a7.431,7.431,0,0,0-.048-5.3c-.356-.906-.885-1.694-1.247-2.585-.544-1.353-.689-2.878-1.353-4.168a4.9,4.9,0,0,0-5.914-2.416c-1.033.39-1.93,1.142-2.978,1.477a9.835,9.835,0,0,1-4.355-.091,5.389,5.389,0,0,0-4.229.734c-1.344,1.1-1.713,3.165-2.975,4.374-.532.507-1.19.831-1.749,1.3a2.394,2.394,0,0,0-.979,1.927c.085.985,1.048,1.879.692,2.788a2.2,2.2,0,0,1-.529.695,9.968,9.968,0,0,0-2.3,3.911c2.543.794,5.292-2.009,7.282-3.322C954.67,222.19,957.836,221.335,958.875,223.021Z" transform="translate(-668.043 -167.687)" fill="#4c3e42"/>
    <path id="Tracé_416" data-name="Tracé 416" d="M1054.913,483.468l-1.181.976c-1.042-1.737-5.322-5.2-5.322-5.2l.184-.178c.4-.1.622-.151.622-.151Z" transform="translate(-739.465 -356.067)" opacity="0.1"/>
    <path id="Tracé_417" data-name="Tracé 417" d="M1056.711,478.222s-.426,1.057-.864,1.972-.906,1.743-.942,1.069c-.048-1.332-5.555-5.8-5.555-5.8l.746-.725.867-.843Z" transform="translate(-740.121 -352.57)" fill="#e7effd"/>
    <path id="Tracé_418" data-name="Tracé 418" d="M1057.006,452.077l.622,10.6c-1.474-2.293-5.524-8.173-8.128-7.983l6.316-7.249a8.132,8.132,0,0,0,.725-.93C1056.779,449.524,1057.006,452.077,1057.006,452.077Z" transform="translate(-740.225 -333.453)" opacity="0.1"/>
    <path id="Tracé_419" data-name="Tracé 419" d="M1058.463,478.222s-.426,1.057-.864,1.972c-1.655-2.271-3.926-4.95-5.739-5.452l.867-.843Z" transform="translate(-741.873 -352.57)" opacity="0.1"/>
    <path id="Tracé_420" data-name="Tracé 420" d="M1062.226,361l1.709,1.329s2.848.048,3.132,2.416,2.9,3.467,2.9,3.467,1.948,1.945,1.948,2.848,1.471,2.516,1.471,2.658,1.426,3.039,1.235,3.561,1.51,2.8,1,3.658a20.963,20.963,0,0,0-1.139,2.374s-2.232,4.274-3.374,5.08-6.361,7.6-6.361,7.6-5.6,6.458-5.6,8.457c0,0-5.461-9.119-8.69-8.88l6.316-7.264s1.09-1.187,1.139-1.9,3.039-3.99,4.464-4.132c0,0,.235-1.948-.381-1.994s-1.139-1.568-1.139-1.568-4.18-4.938-4.229-8.074S1062.226,361,1062.226,361Z" transform="translate(-740.888 -273.771)" fill="#65617d"/>
    <path id="Tracé_421" data-name="Tracé 421" d="M1090.248,376s-3.99,2.942-3.135,3.893S1090.248,376,1090.248,376Z" transform="translate(-766.394 -284.24)" opacity="0.1"/>
    <path id="Tracé_422" data-name="Tracé 422" d="M1098.4,413.772s7.406-2.374,8.155,0Z" transform="translate(-774.356 -309.867)" opacity="0.1"/>
    <path id="Tracé_423" data-name="Tracé 423" d="M922.647,374.08s0,10.825-.927,11.894S922.647,374.08,922.647,374.08Z" transform="translate(-650.859 -282.9)" opacity="0.1"/>
    <path id="Tracé_424" data-name="Tracé 424" d="M1067.11,385.63l1.377,3.869S1069.034,385.7,1067.11,385.63Z" transform="translate(-752.516 -290.961)" opacity="0.1"/>
    <g id="Groupe_112" data-name="Groupe 112" transform="translate(278.049 50.447)" opacity="0.1">
      <path id="Tracé_425" data-name="Tracé 425" d="M954.064,241.938c.347-.891-.562-1.764-.683-2.718a1.812,1.812,0,0,0-.151.858c.06.722.6,1.392.734,2.06A1.2,1.2,0,0,0,954.064,241.938Z" transform="translate(-951.08 -239.22)"/>
      <path id="Tracé_426" data-name="Tracé 426" d="M964.85,259.084c-.341-1.51-.242-3.084-.586-4.579s-1.417-3.069-2.872-3.093c-.628,0-1.359.23-1.812-.239-.275-.284-.329-.731-.535-1.075-1.039-1.682-4.2-.831-5.5.033-1.942,1.29-4.609,3.99-7.1,3.38-.118.287-.23.577-.323.876,2.543.794,5.292-2.009,7.282-3.322,1.3-.861,4.458-1.716,5.5-.03.205.344.26.791.535,1.075.453.468,1.184.227,1.812.239,1.456.024,2.519,1.568,2.872,3.09s.239,3.141.6,4.661A2.579,2.579,0,0,1,964.85,259.084Z" transform="translate(-946.12 -246.139)"/>
      <path id="Tracé_427" data-name="Tracé 427" d="M1015.3,274.268c-.26.755-.936,1.447-1.667,1.293s-1.087-.985-1.634-1.51a2.229,2.229,0,0,0-2.564-.356,2.583,2.583,0,0,0-1.259,2.3,2.48,2.48,0,0,1,1.117-1.374,2.22,2.22,0,0,1,2.561.359c.547.52.906,1.353,1.637,1.51s1.408-.538,1.667-1.293a6.643,6.643,0,0,0,.26-1.365A4.209,4.209,0,0,1,1015.3,274.268Z" transform="translate(-989.432 -263.105)"/>
      <path id="Tracé_428" data-name="Tracé 428" d="M1034.651,252.341c-.535,1.408-1.51,2.622-1.812,4.1-.066.3-.1.6-.139.906.323-1.474,1.287-2.685,1.812-4.09a7.164,7.164,0,0,0,.438-1.969A6.876,6.876,0,0,1,1034.651,252.341Z" transform="translate(-1006.549 -247.644)"/>
    </g>
    <circle id="Ellipse_111" data-name="Ellipse 111" cx="0.118" cy="0.118" r="0.118" transform="translate(237.413 89.289)" fill="#e6e8ec"/>
    <path id="Tracé_429" data-name="Tracé 429" d="M497.7,584.42s3.323-2.383,6.775-.906c0,0-.967,2.048-5.255,2.021Z" transform="translate(-355.092 -428.739)" fill="#662483"/>
    <path id="Tracé_430" data-name="Tracé 430" d="M496.007,588.09s-.888,4,1.812,6.588c0,0,1.51-1.691-.2-5.627Z" transform="translate(-353.813 -432.27)" fill="#662483"/>
    <path id="Tracé_431" data-name="Tracé 431" d="M481.75,569.859s.124-3.374,7.763-2.549a3.626,3.626,0,0,1-2.507,3.3C484.378,571.741,483.124,570.922,481.75,569.859Z" transform="translate(-343.96 -417.676)" fill="#662483"/>
    <path id="Tracé_432" data-name="Tracé 432" d="M476.918,576s-3.171,1.154-.036,8.17a3.614,3.614,0,0,0,2.368-3.4C479.5,577.918,478.35,576.991,476.918,576Z" transform="translate(-339.596 -423.832)" fill="#662483"/>
    <path id="Tracé_433" data-name="Tracé 433" d="M465.33,548.628s-.646-5.518,7.14-5.249c0,0,.743,4.99-5.718,6.527Z" transform="translate(-332.49 -401.056)" fill="#662483"/>
    <path id="Tracé_434" data-name="Tracé 434" d="M447.58,529.2s.825-6.316,8.657-4.742c0,0,.236,5.437-7.334,6.189Z" transform="translate(-320.111 -387.682)" fill="#662483"/>
    <path id="Tracé_435" data-name="Tracé 435" d="M434.35,508.517s1.546-6.192,9.306-4.642c0,0-1.619,5.564-8.759,5.739Z" transform="translate(-310.877 -373.318)" fill="#662483"/>
    <path id="Tracé_436" data-name="Tracé 436" d="M421.76,487.71s1.51-6.409,8.992-4.787c0,0-2.247,6.119-8.457,5.851Z" transform="translate(-302.089 -358.684)" fill="#662483"/>
    <path id="Tracé_437" data-name="Tracé 437" d="M413.39,464.726s1.042-7.8,8.037-6.358c0,0-1.74,7.134-7.479,7.466Z" transform="translate(-296.247 -341.605)" fill="#662483"/>
    <path id="Tracé_438" data-name="Tracé 438" d="M405.35,441.789s1.308-7.88,8.391-5.875c0,0-2.462,7.494-7.853,6.947Z" transform="translate(-290.636 -325.83)" fill="#662483"/>
    <path id="Tracé_439" data-name="Tracé 439" d="M400.08,415.714s2.253-7.917,7.678-7.914c0,0-2.3,8.358-7.164,9.463Z" transform="translate(-286.958 -306.435)" fill="#662483"/>
    <path id="Tracé_440" data-name="Tracé 440" d="M396.45,391.547s2.416-9.517,6.85-8.962c0,0-1.646,7.267-6.645,10.42Z" transform="translate(-284.424 -288.82)" fill="#662483"/>
    <path id="Tracé_441" data-name="Tracé 441" d="M393.86,366.9s2.3-7.944,6.645-8.421c0,0-1.477,7.784-6.467,10.454Z" transform="translate(-282.616 -272.012)" fill="#662483"/>
    <path id="Tracé_442" data-name="Tracé 442" d="M391.19,343.121s2.945-7.974,5.814-8.261c0,0-1.115,7.784-5.479,9.538Z" transform="translate(-280.753 -255.526)" fill="#662483"/>
    <path id="Tracé_443" data-name="Tracé 443" d="M389.13,317.941s1.67-8.605,4.512-9.421c0,0-.124,6.989-4.2,10.046Z" transform="translate(-279.315 -237.142)" fill="#662483"/>
    <path id="Tracé_444" data-name="Tracé 444" d="M384.42,291.851s1.839-6.877,4.126-8c0,0-.154,8.028-3.522,9.641Z" transform="translate(-276.028 -219.923)" fill="#662483"/>
    <path id="Tracé_445" data-name="Tracé 445" d="M378.672,263.41l-.882-11.97s4.685,8.88,1.272,14.063Z" transform="translate(-271.4 -197.302)" fill="#662483"/>
    <path id="Tracé_446" data-name="Tracé 446" d="M358.309,231.058s-3.461-8.629-4.229-9.088c0,0,6.343,5.437,6.041,12.767Z" transform="translate(-254.852 -176.734)" fill="#662483"/>
    <path id="Tracé_447" data-name="Tracé 447" d="M452.868,560.654s-5.533-.507-5.071,7.267c0,0,5.008.6,6.385-5.878Z" transform="translate(-320.243 -413.116)" fill="#662483"/>
    <path id="Tracé_448" data-name="Tracé 448" d="M433.719,540.08s-6.364.224-5.539,8.155c0,0,5.376.749,6.853-6.711Z" transform="translate(-306.519 -398.761)" fill="#662483"/>
    <path id="Tracé_449" data-name="Tracé 449" d="M412.7,520.568s-5.881-2.489-9.309,4.642c0,0,5.422,2.054,9.862-3.534Z" transform="translate(-289.268 -384.849)" fill="#662483"/>
    <path id="Tracé_450" data-name="Tracé 450" d="M400,498.441s-6.026-2.655-9.236,4.307c0,0,6.243,1.885,9.765-3.244Z" transform="translate(-280.453 -369.352)" fill="#662483"/>
    <path id="Tracé_451" data-name="Tracé 451" d="M390.02,475.317s-5.9-5.219-10.23.453c0,0,5.987,4.25,10.538.746Z" transform="translate(-272.796 -352.03)" fill="#662483"/>
    <path id="Tracé_452" data-name="Tracé 452" d="M382.774,450.4s-5.941-5.343-10.224.646c0,0,6.6,4.316,10.472.51Z" transform="translate(-267.743 -334.636)" fill="#662483"/>
    <path id="Tracé_453" data-name="Tracé 453" d="M379.33,420.891s-4.679-6.772-9.81-5.026c0,0,4.857,7.177,9.822,6.645Z" transform="translate(-265.628 -311.864)" fill="#662483"/>
    <path id="Tracé_454" data-name="Tracé 454" d="M376.245,395.705s-4.781-8.578-8.925-6.9c0,0,3.461,6.6,9.1,8.364Z" transform="translate(-264.093 -293.026)" fill="#662483"/>
    <path id="Tracé_455" data-name="Tracé 455" d="M373.829,371.425s-4.833-6.708-9.079-5.7c0,0,4,6.835,9.6,7.678Z" transform="translate(-262.299 -276.995)" fill="#662483"/>
    <path id="Tracé_456" data-name="Tracé 456" d="M377.24,344.191s-3.836-7.587-6.72-7.551c0,0,2,7.605,6.53,8.853Z" transform="translate(-266.326 -256.768)" fill="#662483"/>
    <path id="Tracé_457" data-name="Tracé 457" d="M372.955,321.63s-4.229-7.672-7.195-7.572c0,0,2.271,6.612,7.089,8.267Z" transform="translate(-263.004 -241.006)" fill="#662483"/>
    <path id="Tracé_458" data-name="Tracé 458" d="M373.5,295.668s-3.193-6.361-5.657-7c0,0,1.773,7.832,5.4,8.729Z" transform="translate(-264.456 -223.287)" fill="#662483"/>
    <path id="Tracé_459" data-name="Tracé 459" d="M363.425,267.774,356.46,258s2.066,9.822,8,11.644Z" transform="translate(-256.513 -201.881)" fill="#662483"/>
    <path id="Tracé_460" data-name="Tracé 460" d="M344.345,241.456s-7.853-4.987-8.155-5.826c0,0,4.186,7.249,11.447,8.273Z" transform="translate(-242.365 -186.268)" fill="#662483"/>
    <path id="Tracé_461" data-name="Tracé 461" d="M335.155,228.608s-9.1-8.1-11.345-8.01a14.352,14.352,0,0,1,11.538,7.551Z" transform="translate(-233.724 -175.775)" fill="#662483"/>
    <path id="Tracé_462" data-name="Tracé 462" d="M368.157,266.361l-.32.054c-2.145-12.852-4.833-20.394-7.6-21.234l.094-.3C363.254,245.762,365.958,253.2,368.157,266.361Z" transform="translate(-259.151 -192.724)" fill="#444053"/>
    <path id="Tracé_463" data-name="Tracé 463" d="M389.065,344.585l-.48.06c-.148-1.208-.272-2.434-.375-3.661-.87-10.674-1.96-20.463-3.181-27.788l.266-.356c1.208,7.337,2.528,17.416,3.4,28.09C388.793,342.165,388.92,343.395,389.065,344.585Z" transform="translate(-276.453 -240.157)" fill="#444053"/>
    <path id="Tracé_464" data-name="Tracé 464" d="M436.272,472.912a62.983,62.983,0,0,1-17.92-12.233,70.187,70.187,0,0,1-13.426-17.555c-4.4-8.155-7.282-18.28-8.5-28.175l.514.217c2.718,22.206,13.453,37.048,21.835,45.022a62.5,62.5,0,0,0,17.73,12.121Z" transform="translate(-284.41 -311.425)" fill="#444053"/>
    <g id="Groupe_113" data-name="Groupe 113" transform="translate(133.377 30.168)" opacity="0.7">
      <path id="Tracé_465" data-name="Tracé 465" d="M548.25,573.447s3.884-1.284,6.736,1.145c0,0-1.531,1.67-5.618.365Z" transform="translate(-523.751 -451.98)" fill="#662483"/>
      <path id="Tracé_466" data-name="Tracé 466" d="M544.547,574.25s-2.036,3.552-.224,6.832c0,0,1.942-1.169,1.48-5.437Z" transform="translate(-520.487 -452.778)" fill="#662483"/>
      <path id="Tracé_467" data-name="Tracé 467" d="M536.46,555.071s1.124-3.187,8.155-.124a3.638,3.638,0,0,1-3.377,2.416C538.393,557.665,537.457,556.494,536.46,555.071Z" transform="translate(-515.522 -438.377)" fill="#662483"/>
      <path id="Tracé_468" data-name="Tracé 468" d="M528.945,558s-3.374.16-2.465,7.79a3.626,3.626,0,0,0,3.271-2.543A4.386,4.386,0,0,0,528.945,558Z" transform="translate(-508.449 -441.436)" fill="#662483"/>
      <path id="Tracé_469" data-name="Tracé 469" d="M525.35,530.735s1.027-5.461,8.379-2.888c0,0-.776,4.984-7.4,4.531Z" transform="translate(-507.768 -419.909)" fill="#662483"/>
      <path id="Tracé_470" data-name="Tracé 470" d="M514.34,507.009s2.667-5.784,9.665-1.951c0,0-1.386,5.247-8.841,3.724Z" transform="translate(-500.084 -403.569)" fill="#662483"/>
      <path id="Tracé_471" data-name="Tracé 471" d="M507.93,483.7s3.322-5.452,10.269-1.664c0,0-3.2,4.833-10.07,2.888Z" transform="translate(-495.61 -387.482)" fill="#662483"/>
      <path id="Tracé_472" data-name="Tracé 472" d="M502,460s3.341-5.672,10.013-1.9c0,0-3.966,5.174-9.822,3.069Z" transform="translate(-491.471 -370.808)" fill="#662483"/>
      <path id="Tracé_473" data-name="Tracé 473" d="M499.83,435.528s3.322-7.143,9.557-3.679c0,0-3.785,6.292-9.363,4.9Z" transform="translate(-489.956 -352.726)" fill="#662483"/>
      <path id="Tracé_474" data-name="Tracé 474" d="M499.2,411.169s3.594-7.134,9.759-3.111c0,0-4.582,6.421-9.569,4.28Z" transform="translate(-489.517 -335.924)" fill="#662483"/>
      <path id="Tracé_475" data-name="Tracé 475" d="M500.76,385.743s4.506-6.887,9.683-5.271c0,0-4.679,7.3-9.665,6.9Z" transform="translate(-490.605 -317.358)" fill="#662483"/>
      <path id="Tracé_476" data-name="Tracé 476" d="M503.2,361.045s5.135-8.37,9.206-6.515c0,0-3.736,6.446-9.439,7.971Z" transform="translate(-492.148 -299.235)" fill="#662483"/>
      <path id="Tracé_477" data-name="Tracé 477" d="M507.981,337s4.561-6.9,8.844-6.062c0,0-3.724,6.992-9.285,8.058Z" transform="translate(-495.338 -282.908)" fill="#662483"/>
      <path id="Tracé_478" data-name="Tracé 478" d="M513.487,313.017s5.186-6.739,8.01-6.159c0,0-3.38,7.1-8.068,7.479Z" transform="translate(-499.448 -266.125)" fill="#662483"/>
      <path id="Tracé_479" data-name="Tracé 479" d="M518.35,287.55s4.153-7.717,7.113-7.651c0,0-2.2,6.645-7,8.342Z" transform="translate(-502.882 -247.333)" fill="#662483"/>
      <path id="Tracé_480" data-name="Tracé 480" d="M522.6,260.972s3.8-6.017,6.319-6.412c0,0-2.537,7.621-6.231,8.155Z" transform="translate(-505.849 -229.648)" fill="#662483"/>
      <path id="Tracé_481" data-name="Tracé 481" d="M524.222,229.276l2.718-11.686s1.833,9.868-2.96,13.812Z" transform="translate(-506.812 -203.844)" fill="#662483"/>
      <path id="Tracé_482" data-name="Tracé 482" d="M521.238,192.327s-.737-9.27-1.338-9.937c0,0,4.449,7.086,1.963,13.985Z" transform="translate(-503.964 -179.276)" fill="#662483"/>
      <path id="Tracé_483" data-name="Tracé 483" d="M508.531,538.018s-5.135-2.135-7,5.437c0,0,4.594,2.081,7.853-3.712Z" transform="translate(-491.143 -427.296)" fill="#662483"/>
      <path id="Tracé_484" data-name="Tracé 484" d="M495.857,513.3s-6.141-1.679-7.717,6.15c0,0,4.908,2.317,8.542-4.368Z" transform="translate(-481.797 -410.132)" fill="#662483"/>
      <path id="Tracé_485" data-name="Tracé 485" d="M483.559,488.948s-4.872-4.126-10.269,1.664c0,0,4.564,3.573,10.466-.441Z" transform="translate(-471.432 -392.246)" fill="#662483"/>
      <path id="Tracé_486" data-name="Tracé 486" d="M478.2,463.823s-4.96-4.328-10.1,1.371c0,0,5.4,3.655,10.288-.2Z" transform="translate(-467.81 -374.606)" fill="#662483"/>
      <path id="Tracé_487" data-name="Tracé 487" d="M477.041,437.7s-4.081-6.739-9.9-2.613c0,0,4.449,5.841,9.838,3.848Z" transform="translate(-467.14 -354.716)" fill="#662483"/>
      <path id="Tracé_488" data-name="Tracé 488" d="M477.367,411.83s-4.084-6.865-9.967-2.416c0,0,5.02,6.086,9.847,3.6Z" transform="translate(-467.321 -336.682)" fill="#662483"/>
      <path id="Tracé_489" data-name="Tracé 489" d="M484.631,380.443s-2.45-7.853-7.871-7.717c0,0,2.5,8.3,7.4,9.282Z" transform="translate(-473.854 -312.121)" fill="#662483"/>
      <path id="Tracé_490" data-name="Tracé 490" d="M489.24,355.315s-2.015-9.611-6.47-9.239c0,0,1.341,7.331,6.2,10.689Z" transform="translate(-478.049 -293.514)" fill="#662483"/>
      <path id="Tracé_491" data-name="Tracé 491" d="M494.234,331.155S491.615,323.3,487.26,323c0,0,1.788,7.72,6.88,10.188Z" transform="translate(-481.183 -277.416)" fill="#662483"/>
      <path id="Tracé_492" data-name="Tracé 492" d="M505.642,305.983s-1.4-8.385-4.171-9.2c0,0-.356,7.853,3.6,10.4Z" transform="translate(-491.096 -259.115)" fill="#662483"/>
      <path id="Tracé_493" data-name="Tracé 493" d="M508.335,283.173s-1.761-8.584-4.615-9.363c0,0,.2,6.986,4.31,10Z" transform="translate(-492.671 -243.083)" fill="#662483"/>
      <path id="Tracé_494" data-name="Tracé 494" d="M516.4,258.53s-1.157-7.022-3.322-8.37c0,0-.637,8.007,2.558,9.943Z" transform="translate(-499.168 -226.577)" fill="#662483"/>
      <path id="Tracé_495" data-name="Tracé 495" d="M515.051,228.912l-3.742-11.4s-.951,9.995,4.171,13.5Z" transform="translate(-497.919 -203.788)" fill="#662483"/>
      <path id="Tracé_496" data-name="Tracé 496" d="M504.851,198.1s-6.014-7.1-6.041-7.992c0,0,1.839,8.155,8.457,11.3Z" transform="translate(-489.244 -184.664)" fill="#662483"/>
      <path id="Tracé_497" data-name="Tracé 497" d="M499.847,183.1s-6.279-10.448-8.457-11.025a14.324,14.324,0,0,1,8.759,10.644Z" transform="translate(-484.065 -172.08)" fill="#662483"/>
      <path id="Tracé_498" data-name="Tracé 498" d="M519.937,229.013l-.32-.045c1.776-12.906,1.444-20.91-.936-22.532l.184-.266C521.386,207.889,521.758,215.784,519.937,229.013Z" transform="translate(-503.113 -195.873)" fill="#444053"/>
      <path id="Tracé_499" data-name="Tracé 499" d="M502.817,310.03l-.477-.088c.217-1.193.462-2.416.734-3.606,2.344-10.448,4.229-20.119,5.228-27.486l.359-.26c-1.015,7.367-2.767,17.38-5.117,27.839C503.279,307.637,503.032,308.843,502.817,310.03Z" transform="translate(-491.708 -246.419)" fill="#444053"/>
      <path id="Tracé_500" data-name="Tracé 500" d="M520.289,446.429a62.921,62.921,0,0,1-13.468-17.008,70.1,70.1,0,0,1-7.608-20.756c-1.776-9.1-1.51-19.633.269-29.425l.426.359c-4,22.013,1.812,39.374,7.451,49.481a62.3,62.3,0,0,0,13.323,16.845Z" transform="translate(-488.683 -316.669)" fill="#444053"/>
    </g>
    <path id="Tracé_501" data-name="Tracé 501" d="M162.847,370.259a11.477,11.477,0,0,1-2.2.658,22.129,22.129,0,0,1-4,.378c.039.353.069.683.1.982.072.822.115,1.386.115,1.386l-1.417-.1-11.683-.8-6.832-1.012a12.747,12.747,0,0,0,1.072,1.26,5.651,5.651,0,0,0,1.365,1.06s6.165,4.993,7.231,5.038c.151,0,.2.151.175.39,2.595,0,10.662.378,8.424,4.869a3.579,3.579,0,0,1-1.833,1.785c-2.589,1.1-6.494-.876-8.506-2.087-.2.384-.384.74-.55,1.045-.341.643-.58,1.069-.58,1.069l-.2-.145-10.366-7.382-2.271-1.927a7.924,7.924,0,0,1-1.966-.341h0l-.3-.1a.577.577,0,0,0-.033.082,4.227,4.227,0,0,0-.184.725v.109a8.5,8.5,0,0,0-.085.849c0,.193-.015.4-.015.6-.018,4.114,1.631,10.726,1.631,10.726s4.274,10.9,2.758,13.417h0a1.133,1.133,0,0,1-.3.326,3,3,0,0,0-1.021,1.894c-.565,2.67.426,6.745.426,6.745s-.091.151-.245.387a11.682,11.682,0,0,1-1.124,1.51c-.063.073-.13.148-.2.217a5.266,5.266,0,0,1-.6.544c.039.118.082.239.124.368s.1.332.139.513a7.364,7.364,0,0,1-.378,4.443,12.24,12.24,0,0,0-.761,3.193h0a24.421,24.421,0,0,0,.154,6.011c-.045-.024-.085-.048-.13-.069q-5.011-2.619-9.88-5.47c-.951-.55-1.9-1.112-2.836-1.676q-1.734-1.045-3.452-2.114-2.265-1.414-4.531-2.9l-.707-.471-.272-.184c-.384-.257-.761-.513-1.142-.773a58.008,58.008,0,0,1-4.271-6.343c-.214-.384-.408-.749-.568-1.084v-.018l-.1-.22-.426-.151h0c-.8-.281-1.308-.477-1.308-.477h0a14.818,14.818,0,0,0,.526-4.138,12.532,12.532,0,0,0-3.875-9.249c-4.579-4.328-5.21-8.6-5.277-10.242v-.3a3.785,3.785,0,0,1,.018-.414l.35-.335c-.888-.178-1.722-.26-1.722-.26s3.039-10.994,8.155-14.664a24.009,24.009,0,0,0,6.141-7.424,112.525,112.525,0,0,1,9.146-13.408l.921-1.163.269-.341.057-.069.072-.1q-.187-.284-.381-.562l-.085-.124a3.074,3.074,0,0,1-.692-1.93v-.175a2.319,2.319,0,0,1,.066-.356.339.339,0,0,0,.036.054c.432-1.256,2.1-1.812,3.322-2.507,2.891-1.625,4.123-5.18,4.742-8.487.48-2.573.879-5.458,2.872-7.11,1.287-1.063,3.02-1.414,4.322-2.468a8.1,8.1,0,0,0,1.836-2.359c.3-.513.562-1.045.843-1.559a15.723,15.723,0,0,1,5.216-5.881,8.667,8.667,0,0,1,7.53-1c.945.359,1.812.906,2.718,1.308a10.587,10.587,0,0,0,1.728.538,30.312,30.312,0,0,1,5.521,1.314c2.818,1.25,4.651,4.017,6.325,6.645a31.661,31.661,0,0,1,3,5.346v-.208a7.668,7.668,0,0,1,.6,2.779,4.229,4.229,0,0,1-.13,1.208,3.461,3.461,0,0,1-1.879,2.154l-.142.069a6.041,6.041,0,0,1-.586.263c-.03.166-.063.335-.1.5-.015.07-.033.142-.051.211-.039.169-.085.335-.133.5a11.623,11.623,0,0,1-3.625,5.539,12.181,12.181,0,0,1-4.053,2.3c-.106.036-.217.063-.323.1a2.6,2.6,0,0,1-.381.7,2.033,2.033,0,0,1-.411.4,2.492,2.492,0,0,1-.3.175.406.406,0,0,1-.082.039,3.952,3.952,0,0,1-3.625-.625c-.054-.036-.106-.079-.157-.118a3.467,3.467,0,0,1-.057.541c-.03.187-.051.3-.085.459s-.045.233-.066.344-.036.187-.054.275l-.036.154a23.729,23.729,0,0,1-3.365,8.185,11.667,11.667,0,0,1-.764,1.03l-.749,1.142v.154a13,13,0,0,1-1.942,7.186,20.947,20.947,0,0,1-1.344,2.021l.169.1c1.691.964,5.026,2.676,7.134,2.531,0,0,7.974,1.03,8.9.513.127-.073.251.027.365.242,1.29-.785,4.256-2.45,6.6-2.67,1.637-.157,2.969.39,3.217,2.416S164.557,369.525,162.847,370.259Z" transform="translate(-70.046 -238.156)" fill="url(#linear-gradient-2)"/>
    <path id="Tracé_502" data-name="Tracé 502" d="M148.116,630.465a6.621,6.621,0,0,1,.435,5.808,14.753,14.753,0,0,0-.74,5.814c-.951-.55-1.9-1.112-2.836-1.676q-1.734-1.045-3.452-2.114-2.265-1.413-4.531-2.9l-.707-.471-.272-.184a.569.569,0,0,0-.088-.121,54.84,54.84,0,0,1-4.165-6.379c-.254-.471-.474-.906-.649-1.3v-.021a2.542,2.542,0,0,1-.353-1.453,2.978,2.978,0,0,1,1.465-1.812c1.74-.906,4.531-.069,7.291,1.263a50.424,50.424,0,0,1,6.808,4.147l.245.178.024.018c.906.643,1.432,1.069,1.432,1.069A1.449,1.449,0,0,1,148.116,630.465Z" transform="translate(-98.963 -456.828)" fill="#fbbebe"/>
    <path id="Tracé_503" data-name="Tracé 503" d="M146.631,629.142a6.621,6.621,0,0,1,.435,5.814,14.761,14.761,0,0,0-.74,5.817q-1.426-.831-2.836-1.679-1.737-1.045-3.452-2.114c-1.51-.945-3.02-1.912-4.516-2.9l-.707-.471-.272-.184a.659.659,0,0,0-.088-.121,54.292,54.292,0,0,1-4.165-6.379c-.254-.471-.474-.906-.649-1.3V625.6a2.55,2.55,0,0,1-.353-1.456,2.987,2.987,0,0,1,1.465-1.812c1.74-.906,4.531-.069,7.291,1.263a50.418,50.418,0,0,1,6.808,4.147l.245.178.024.018c.906.643,1.432,1.069,1.432,1.069S146.576,629.055,146.631,629.142Z" transform="translate(-97.937 -455.906)" opacity="0.05"/>
    <path id="Tracé_504" data-name="Tracé 504" d="M176.176,639.616a7.376,7.376,0,0,1-.426,1.51,11.942,11.942,0,0,0-.686,2.718h0a24.018,24.018,0,0,0,.024,5.941q-5.011-2.619-9.88-5.47c-.951-.55-1.9-1.112-2.836-1.676a8.72,8.72,0,0,0-.855-3.368,60.143,60.143,0,0,1-4.585-7c-.205-.362-.384-.713-.55-1.045v-.015c-.063-.133-.124-.26-.181-.387a3.45,3.45,0,0,1-.516-1.888,3.486,3.486,0,0,1,1.244-1.794c2.679-1.957,8.249.692,12.526,3.322l.106.063c.809.5,1.577,1,2.265,1.468l.4.272c1.77,1.208,2.945,2.148,2.945,2.148a6.432,6.432,0,0,1,.7,1.444,7.658,7.658,0,0,1,.251.876,7.3,7.3,0,0,1,.054,2.878Z" transform="translate(-116.361 -459.056)" fill="#fbbebe"/>
    <path id="Tracé_505" data-name="Tracé 505" d="M131.768,628.218a30.023,30.023,0,0,0,7.2,1.812,3.41,3.41,0,0,0,.547-.027h0a63.111,63.111,0,0,1,8.581.42c1.408.124,2.764.254,3.884.368l2.815.3v-1.087c-.782-.538-1.691-1.136-2.664-1.74-4.292-2.652-9.931-5.361-12.631-3.389-3.8-1.836-7.663-2.718-8.759.55A5.878,5.878,0,0,0,131.768,628.218Z" transform="translate(-98.956 -456.8)" opacity="0.1"/>
    <path id="Tracé_506" data-name="Tracé 506" d="M99.246,547.893c.06,1.628.671,5.854,5.041,10.121,5.576,5.437,3.2,13.254,3.2,13.254s6.645,2.61,9.511,2.679a3.4,3.4,0,0,0,.547-.027c1.719-.239,8.551.393,12.477.788l2.815.3V551.9l-30.79-7.479L99.258,547.2a5.436,5.436,0,0,0-.012.695Z" transform="translate(-76.984 -401.79)" fill="#5c5c8e"/>
    <path id="Tracé_507" data-name="Tracé 507" d="M135.46,630.91" transform="translate(-102.264 -462.156)" fill="none"/>
    <g id="Groupe_114" data-name="Groupe 114" transform="translate(22.256 142.645)" opacity="0.1">
      <path id="Tracé_508" data-name="Tracé 508" d="M180.428,642.807l.5.051v.248l-2.815-.3c-2.818-.284-7.125-.689-9.967-.806C170.116,641.823,176.625,642.424,180.428,642.807Z" transform="translate(-147.336 -612.518)"/>
      <path id="Tracé_509" data-name="Tracé 509" d="M99.258,547.249l2.788-2.779,1.861.45-2.323,2.329a5.437,5.437,0,0,0,0,.695c.06,1.628.671,5.851,5.041,10.121,5.576,5.437,3.2,13.251,3.2,13.251a52.544,52.544,0,0,0,8.647,2.6,7.468,7.468,0,0,0-.906.051,3.41,3.41,0,0,1-.547.027c-2.866-.072-9.511-2.682-9.511-2.682s2.377-7.814-3.2-13.251c-4.392-4.271-5-8.493-5.062-10.112A5.436,5.436,0,0,1,99.258,547.249Z" transform="translate(-99.24 -544.47)"/>
    </g>
    <path id="Tracé_510" data-name="Tracé 510" d="M303,494.782s9.312-6.458,9.992-.646-9.992,5-9.992,5Z" transform="translate(-219.2 -365.001)" fill="#fbbebe"/>
    <path id="Tracé_511" data-name="Tracé 511" d="M234.143,487.7s5.035,3.322,7.823,3.126c0,0,7.611,1.021,8.5.51s1.429,7.376,1.429,7.376l-12.508-.885-8.022-1.223s-4.011-2.447-4.011-4.555S234.143,487.7,234.143,487.7Z" transform="translate(-166.399 -362.202)" fill="#f7cddd"/>
    <path id="Tracé_512" data-name="Tracé 512" d="M234.143,487.7s5.035,3.322,7.823,3.126c0,0,7.611,1.021,8.5.51s1.429,7.376,1.429,7.376l-12.508-.885-8.022-1.223s-4.011-2.447-4.011-4.555S234.143,487.7,234.143,487.7Z" transform="translate(-166.399 -362.202)" fill="#662483"/>
    <path id="Tracé_513" data-name="Tracé 513" d="M268.9,543.315s11.324-.468,8.786,4.805-11.115-1.13-11.115-1.13Z" transform="translate(-193.773 -401.012)" fill="#fbbebe"/>
    <path id="Tracé_514" data-name="Tracé 514" d="M236.58,465.038s9.176-6.865,7.886-15.226-7.886,6.391-7.886,6.391Z" transform="translate(-172.842 -333.967)" fill="#5c5c8e"/>
    <path id="Tracé_515" data-name="Tracé 515" d="M245,353.833a11.61,11.61,0,0,0,7.249,10.75,10.413,10.413,0,0,0,1.492.5,11.775,11.775,0,0,0,1.646.3c.4.039.8.06,1.208.06a11.432,11.432,0,0,0,3.809-.661A11.6,11.6,0,1,0,245,353.833Z" transform="translate(-178.718 -260.666)" fill="#fbbebe"/>
    <path id="Tracé_516" data-name="Tracé 516" d="M99.246,547.893c1.039.19,2.323.541,2.323,1.078,0,.906,14.5,5.8,14.5,5.8s-.544,1.266.906,3.443S130.212,572.9,130.212,572.9l-.039.368-.151,1.441-.719,6.89s4.531-1.631,5.98-1.45a1.974,1.974,0,0,0,1.447-.677,6.947,6.947,0,0,0-.945-2.317s-1.175-.924-2.948-2.148V551.9l-30.79-7.479L99.258,547.2a5.436,5.436,0,0,0-.012.695Z" transform="translate(-76.984 -401.79)" opacity="0.1"/>
    <path id="Tracé_517" data-name="Tracé 517" d="M94.94,442.438s3.625.359,3.625,1.269,14.5,5.8,14.5,5.8-.544,1.266.906,3.443,13.239,14.682,13.239,14.682l-.906,8.7s4.531-1.631,5.98-1.45c.649.082,1.365-.52,1.957-1.208a12.65,12.65,0,0,0,1.308-1.864s-1.634-6.893.544-8.524-2.356-13.592-2.356-13.592-2.051-8.505-1.447-12.154a4.435,4.435,0,0,1,.175-.716.217.217,0,0,1,.027-.082c1.293-3.486,15.2-32.726,15.2-32.726a20.817,20.817,0,0,0-.175-2.48c-.027-.23-.063-.468-.109-.707a12.141,12.141,0,0,0-.281-1.29c-.079-.278-.163-.544-.263-.8-.429-1.105-1.087-1.954-2.072-1.975a6.021,6.021,0,0,0-3.625-1.528,15.891,15.891,0,0,0-8.155,1.528c-8.518,3.625-10.511,3.806-10.511,3.806l-4.283,5.609-.882,1.154a110.929,110.929,0,0,0-8.732,13.257,23.68,23.68,0,0,1-5.863,7.343C97.843,431.564,94.94,442.438,94.94,442.438Z" transform="translate(-73.983 -297.612)" fill="#662483"/>
    <path id="Tracé_518" data-name="Tracé 518" d="M161.321,482.3s-12.1,2.99-16.791,10.535Z" transform="translate(-108.595 -358.433)" opacity="0.1"/>
    <path id="Tracé_519" data-name="Tracé 519" d="M183.665,526.18s-2.286,15.362-1.652,16.519S183.665,526.18,183.665,526.18Z" transform="translate(-134.679 -389.059)" opacity="0.1"/>
    <path id="Tracé_520" data-name="Tracé 520" d="M189.781,543.356c.882,1.154,4.455,10.061,4.455,10.061L193.2,568.371l-.906,8.7s4.531-1.631,5.983-1.45c.646.081,1.365-.517,1.957-1.208-.942-5.1-2.954-15.754-3.322-15.96-.48-.272-2.927-8.838-3.057-11.218s-3.537-7.744-3.537-7.744S188.9,542.2,189.781,543.356Z" transform="translate(-139.976 -398.349)" opacity="0.1"/>
    <path id="Tracé_521" data-name="Tracé 521" d="M201.646,437.337c.22.68.571,4.621.571,4.621a5.315,5.315,0,0,0,4.506,4.975,4.437,4.437,0,0,1,.175-.716c1.087-3.078,15.226-32.808,15.226-32.808a19.521,19.521,0,0,0-.565-4.476c-3.078-.906-7.953.489-7.953.489-1.408-.184-6,8.953-6,8.953s-3.063,7-3.4,7.95,0,2.519-.136,3.063-1.568,1.015-1.77,1.767-.069,2.238-.205,2.51A10.931,10.931,0,0,0,201.646,437.337Z" transform="translate(-148.419 -307.012)" opacity="0.1"/>
    <path id="Tracé_522" data-name="Tracé 522" d="M205.251,435.544c.224.68.571,4.621.571,4.621a5.132,5.132,0,0,0,3.624,4.721,7.641,7.641,0,0,0,2.175.435l2.187,1.9,10.091,7.445s3.763-6.947,2.743-6.992-6.908-4.984-6.908-4.984c-1.812-.96-3.606-4.174-4.443-5.823a4.693,4.693,0,0,0,.109-.6c.365-3.078,7.977-14.86,7.977-14.86a22.292,22.292,0,0,0,4.09-9.883c.033-.145.054-.3.082-.45a4.923,4.923,0,0,0,.06-.6c.136-2.468-1.658-3.365-3.791-3.579h0a15.35,15.35,0,0,0-3.322.1,23.928,23.928,0,0,0-3.262.64c-.906-.118-3.159,3.673-4.633,6.358h0c-.794,1.456-1.365,2.595-1.365,2.595s-3.078,7-3.422,7.953,0,2.516-.136,3.063-1.568,1.015-1.767,1.767-.072,2.238-.208,2.51A11.086,11.086,0,0,0,205.251,435.544Z" transform="translate(-150.936 -305.763)" fill="#662483"/>
    <path id="Tracé_523" data-name="Tracé 523" d="M166.61,374.79c1.915,1.969,5.038,1.975,7.533.976s4.612-2.824,6.929-4.229c1.51-.906,3.093-1.67,4.573-2.616h0c.217-.142.429-.284.634-.429,1.71-1.208,3.187-2.758,4.953-3.866a7.708,7.708,0,0,1,3.981-1.275,4.51,4.51,0,0,1,1.9.4,2.455,2.455,0,0,1,.3.157,8.253,8.253,0,0,1,1.6,1.208c.5.45.979.93,1.51,1.347.033-.145.054-.3.082-.45a4.932,4.932,0,0,0,.06-.6c.4.039.8.06,1.208.06a11.432,11.432,0,0,0,3.815-.677.848.848,0,0,1,.027-.148c.435-2.283,1.208-4.7,3.057-5.986,1.066-.746,2.77-1.048,4.244-1.616a11.6,11.6,0,1,0-21.856,1.257,15.891,15.891,0,0,0-8.155,1.528c-8.518,3.625-10.511,3.806-10.511,3.806l-4.259,5.618a4.812,4.812,0,0,1,1.033,2.229C169.368,373.008,167.894,374.062,166.61,374.79Z" transform="translate(-124.005 -260.679)" opacity="0.1"/>
    <path id="Tracé_524" data-name="Tracé 524" d="M208.8,339.057c-1.839,1.287-2.622,3.7-3.057,5.983a4.7,4.7,0,0,1-.7,2.03c-.976,1.266-2.939.906-4.214,0s-2.277-2.283-3.7-2.927c-1.891-.852-4.111-.229-5.878.879s-3.247,2.658-4.957,3.863c-1.652,1.166-3.495,2-5.216,3.045-2.314,1.411-4.428,3.232-6.926,4.229s-5.618,1-7.53-.973c1.284-.713,2.758-1.767,2.658-3.292s-1.879-2.67-1.758-4.229,1.96-2.181,3.28-2.948c2.764-1.607,3.927-5.135,4.531-8.4.459-2.546.837-5.394,2.743-7.029,1.226-1.054,2.891-1.4,4.126-2.44a12.762,12.762,0,0,0,2.561-3.872,15.381,15.381,0,0,1,4.978-5.82,8.036,8.036,0,0,1,7.195-.982c.906.353,1.716.906,2.6,1.29,2.2.954,4.733.828,6.92,1.83,2.691,1.238,4.44,3.975,6.041,6.572,1.368,2.22,4.044,6.15,3.3,9.019C215.028,337.816,210.794,337.659,208.8,339.057Z" transform="translate(-124.012 -242.163)" fill="#7c5c5c"/>
    <g id="Groupe_115" data-name="Groupe 115" transform="translate(42.595 88.77)" opacity="0.1">
      <path id="Tracé_525" data-name="Tracé 525" d="M169.587,420.053a1.875,1.875,0,0,1,.063-.353,5.424,5.424,0,0,1,1.151,2.416,2.087,2.087,0,0,1-.051.619C170.209,421.866,169.511,421.053,169.587,420.053Z" transform="translate(-168.675 -403.511)"/>
      <path id="Tracé_526" data-name="Tracé 526" d="M173.578,388.968c2.5-1,4.612-2.824,6.926-4.229,1.722-1.048,3.564-1.879,5.216-3.045,1.71-1.208,3.19-2.758,4.957-3.863s3.987-1.731,5.878-.879c1.423.643,2.416,2.006,3.7,2.927s3.238,1.281,4.213.015a4.654,4.654,0,0,0,.7-2.027c.435-2.283,1.208-4.7,3.057-5.987,2-1.4,6.231-1.238,7-4.183a4.53,4.53,0,0,0,.1-1.6,6.425,6.425,0,0,1,.447,3.773c-.77,2.945-5,2.788-7,4.183-1.836,1.287-2.622,3.7-3.057,5.986a4.676,4.676,0,0,1-.7,2.027c-.979,1.266-2.942.906-4.229-.015s-2.277-2.283-3.7-2.927c-1.891-.852-4.111-.227-5.878.879s-3.247,2.658-4.957,3.863c-1.652,1.169-3.495,2-5.216,3.045-2.314,1.414-4.428,3.232-6.926,4.229s-5.618.994-7.53-.976a9.4,9.4,0,0,0,1.4-.93A8.052,8.052,0,0,0,173.578,388.968Z" transform="translate(-166.58 -366.1)"/>
    </g>
    <path id="Tracé_527" data-name="Tracé 527" d="M480.272,310.293l-12.384-12.453a6.575,6.575,0,0,0-9.339-.063l-77.764,77.105L347.9,341.744a6.557,6.557,0,0,0-9.273-.066l-12.517,12.384a6.645,6.645,0,0,0-.063,9.339l49.934,50.326a6.645,6.645,0,0,0,9.339.066L480.2,319.629a6.575,6.575,0,0,0,.069-9.336Z" transform="translate(-233.973 -228.307)" fill="#3acc6c"/>
    <g id="Groupe_116" data-name="Groupe 116" transform="translate(219.395 181.832)" opacity="0.5">
      <path id="Tracé_528" data-name="Tracé 528" d="M760.172,674.222s-9.236-.556-8.155,5.917a1.58,1.58,0,0,0,.822,1.661s0-.48.945-.317a4.168,4.168,0,0,0,1.006.048,2.075,2.075,0,0,0,1.226-.5h0s2.595-1.072,3.606-5.319c0,0,.746-.924.716-1.163l-1.558.668a2.783,2.783,0,0,1,.115,2.057s-.051-2.018-.35-1.969c-.06,0-.81.39-.81.39a4.658,4.658,0,0,1,.224,3.383s.263-2.416-.51-3.241l-1.1.64a4.85,4.85,0,0,1,.344,3.673s.187-2.531-.577-3.516l-.994.773s1.006,1.993.393,3.365c0,0-.079-2.948-.6-3.172a6.03,6.03,0,0,0-1,1.084s.689,1.447.263,2.211c0,0-.263-1.966-.477-1.972a6.511,6.511,0,0,0-.957,2.19,4.718,4.718,0,0,1,.746-2.317,2.616,2.616,0,0,0-1.326.689s.133-.906,1.54-1a6.086,6.086,0,0,1,.906-1.045,5.676,5.676,0,0,0-2.247.26,2.516,2.516,0,0,1,2.5-.474l.982-.8a8.1,8.1,0,0,0-2.622.024s.906-.767,2.887-.208l1.069-.637a9.737,9.737,0,0,0-2.507-.217,3.85,3.85,0,0,1,2.821.045l.764-.344s-1.151-.227-1.489-.26-.353-.13-.353-.13a4,4,0,0,1,2.16.242A9.76,9.76,0,0,0,760.172,674.222Z" transform="translate(-751.928 -674.21)" fill="#662483"/>
    </g>
    <g id="Groupe_117" data-name="Groupe 117" transform="translate(209.379 136.631)" opacity="0.5">
      <path id="Tracé_529" data-name="Tracé 529" d="M720.453,524.569s-4.691,7.977,1.574,9.946a1.583,1.583,0,0,0,1.855.024s-.42-.233.145-.988a4.321,4.321,0,0,0,.5-.873,2.114,2.114,0,0,0,.106-1.323h0s.22-2.8-3.1-5.627c0,0-.486-1.087-.71-1.169l-.115,1.691a2.8,2.8,0,0,1,1.885.834s-1.812-.87-1.915-.583c-.018.06-.021.906-.021.906a4.609,4.609,0,0,1,3.117,1.335s-2.03-1.329-3.12-1.015l.073,1.269a4.847,4.847,0,0,1,3.431,1.359s-2.172-1.317-3.4-1.084L721,530.51s2.235,0,3.174,1.175c0,0-2.661-1.266-3.1-.906a6.918,6.918,0,0,0,.507,1.386s1.6.042,2.09.77c0,0-1.87-.658-1.975-.471a6.648,6.648,0,0,0,1.51,1.848,4.726,4.726,0,0,1-1.725-1.719,2.6,2.6,0,0,0,0,1.51s-.758-.538-.19-1.812a6.009,6.009,0,0,1-.523-1.284,5.73,5.73,0,0,0-.788,2.114,2.525,2.525,0,0,1,.713-2.446l-.266-1.238a8.176,8.176,0,0,0-1.169,2.35s-.275-1.151,1.127-2.667l-.085-1.241a9.624,9.624,0,0,0-1.329,2.132,3.841,3.841,0,0,1,1.317-2.492l.042-.837s-.725.924-.906,1.208-.275.257-.275.257a3.972,3.972,0,0,1,1.193-1.812A10.08,10.08,0,0,0,720.453,524.569Z" transform="translate(-718.766 -524.56)" fill="#662483"/>
    </g>
    <g id="Groupe_118" data-name="Groupe 118" transform="translate(180.043 72.991)" opacity="0.5">
      <path id="Tracé_530" data-name="Tracé 530" d="M623.326,313.866s-4.688,7.98,1.574,9.946a1.577,1.577,0,0,0,1.854.024s-.42-.233.148-.988a4.3,4.3,0,0,0,.5-.873,2.093,2.093,0,0,0,.106-1.323h0s.223-2.8-3.1-5.627c0,0-.486-1.084-.71-1.166l-.115,1.688a2.791,2.791,0,0,1,1.885.834s-1.812-.87-1.912-.583c-.021.06-.021.906-.021.906a4.6,4.6,0,0,1,3.114,1.335s-2.03-1.329-3.12-1.015l.076,1.269a4.842,4.842,0,0,1,3.428,1.359s-2.172-1.314-3.395-1.084l.239,1.238s2.235,0,3.178,1.178c0,0-2.664-1.269-3.1-.906a6.769,6.769,0,0,0,.51,1.383s1.6.042,2.087.77c0,0-1.87-.658-1.972-.471a6.547,6.547,0,0,0,1.51,1.849,4.731,4.731,0,0,1-1.728-1.716,2.622,2.622,0,0,0,0,1.492s-.758-.538-.19-1.827a6.013,6.013,0,0,1-.523-1.284,5.728,5.728,0,0,0-.788,2.114,2.523,2.523,0,0,1,.716-2.447L623.3,318.7a8.113,8.113,0,0,0-1.166,2.35s-.278-1.151,1.124-2.667l-.085-1.241a9.623,9.623,0,0,0-1.329,2.132,3.831,3.831,0,0,1,1.317-2.489l.042-.84s-.725.924-.906,1.208-.275.257-.275.257a3.993,3.993,0,0,1,1.208-1.812A9.665,9.665,0,0,0,623.326,313.866Z" transform="translate(-621.641 -313.86)" fill="#662483"/>
    </g>
    <g id="Groupe_119" data-name="Groupe 119" transform="translate(70.882 12.561)" opacity="0.5">
      <path id="Tracé_531" data-name="Tracé 531" d="M270.087,113.79s-17.458,12.686-5.9,22.735a3.686,3.686,0,0,0,3.945,1.779s-.683-.888,1.235-1.975a9.837,9.837,0,0,0,1.879-1.4,4.863,4.863,0,0,0,1.459-2.718h0s3.087-5.781-1.386-14.921c0,0-.027-2.776-.435-3.159l-1.812,3.51s2.625,1.235,3.256,3.54c0,0-3.084-3.561-3.552-3.02-.094.106-.882,1.9-.882,1.9s4.558,2.169,5.422,5.757c0,0-3.105-4.736-5.739-5.08l-1.024,2.782s4.926,2.057,6.068,6.1c0,0-3.419-4.833-6.252-5.482l-.64,2.872s4.766,2.1,5.693,5.473c0,0-4.531-5.189-5.8-4.805a14.217,14.217,0,0,0-.2,3.434s3.389,1.586,3.751,3.594c0,0-3.386-3.147-3.785-2.845,0,0,.368,3.625,1.528,5.367a11.043,11.043,0,0,1-2.093-5.28,6.113,6.113,0,0,0-1.368,3.2s-1.124-1.858,1.29-4.087a14.066,14.066,0,0,1,.085-3.232,13.3,13.3,0,0,0-3.664,3.8s.057-2.67,3.806-4.564l.58-2.9s-3.688,2.274-4.682,3.927c0,0,.48-2.718,4.887-4.658l.979-2.733a22.836,22.836,0,0,0-4.833,3.322s.988-2.416,5.135-4.1l.867-1.752s-2.416,1.3-3.066,1.734-.831.3-.831.3a9.291,9.291,0,0,1,4.247-2.77S270.289,113.932,270.087,113.79Z" transform="translate(-260.232 -113.79)" fill="#662483"/>
    </g>
    <g id="Groupe_120" data-name="Groupe 120" transform="translate(37.697 51.795)" opacity="0.5">
      <path id="Tracé_532" data-name="Tracé 532" d="M176.443,246.311s-22.584-9.5-25.544,7.627a4.169,4.169,0,0,0,.6,4.875s.462-1.184,2.646.039a11.228,11.228,0,0,0,2.465,1,5.546,5.546,0,0,0,3.51-.187h0s7.424-.4,13.673-10.118c0,0,2.676-1.655,2.812-2.277l-4.479.3s.344,3.277-1.51,5.243c0,0,1.646-5.086.855-5.228-.16-.03-2.365.26-2.365.26s.571,5.7-2.416,8.647c0,0,2.773-5.8,1.565-8.545l-3.3.637s.906,6-2.362,9.481c0,0,2.685-6.162,1.649-9.291l-3.165,1.063s.764,5.863-1.969,8.759c0,0,2.386-7.433,1.263-8.457a16.542,16.542,0,0,0-3.455,1.812s.453,4.229-1.287,5.754c0,0,1.069-5.135.541-5.346,0,0-3.307,2.489-4.316,4.636a12.56,12.56,0,0,1,3.9-5.135,6.925,6.925,0,0,0-3.927.553s1.145-2.178,4.727-1.145c0,0,2.655-1.839,3.187-1.812,0,0-3.389-1.51-5.838-1.323,0,0,2.625-1.51,6.666,1.012l3.15-1.142s-4.377-2.244-6.572-2.235c0,0,2.918-1.13,7.394,2.012l3.232-.668a25.588,25.588,0,0,0-6.071-2.733s2.933-.465,7,2.582l2.211-.184s-2.676-1.577-3.486-1.96-.773-.631-.773-.631a10.541,10.541,0,0,1,5.186,2.495S176.422,246.592,176.443,246.311Z" transform="translate(-150.363 -243.685)" fill="#662483"/>
    </g>
    <g id="Groupe_121" data-name="Groupe 121" transform="translate(28.321 18.2)" opacity="0.5">
      <path id="Tracé_533" data-name="Tracé 533" d="M141.254,144.7s-8.007-18.506-19.518-10.019a3.425,3.425,0,0,0-2.416,3.232s.948-.441,1.546,1.531a9.382,9.382,0,0,0,.906,2,4.549,4.549,0,0,0,2.193,1.888h0s4.639,3.993,13.894,1.779c0,0,2.534.541,2.969.251L138,142.984a6.078,6.078,0,0,1-3.89,2.247s3.875-2.084,3.486-2.619c-.079-.109-1.552-1.19-1.552-1.19s-2.909,3.709-6.343,3.766c0,0,4.95-1.867,5.8-4.183l-2.326-1.51s-2.921,4.087-6.844,4.3c0,0,5.1-2.129,6.273-4.582l-2.486-1.157s-2.888,3.927-6.153,4.075c0,0,5.651-3.057,5.564-4.3a13.126,13.126,0,0,0-3.09-.882s-2.135,2.764-4.041,2.685c0,0,3.561-2.444,3.365-2.869,0,0-3.383-.4-5.2.3a10.307,10.307,0,0,1,5.24-.828,5.659,5.659,0,0,0-2.643-1.9s1.924-.643,3.461,2.009a13.146,13.146,0,0,1,2.93.737,12.354,12.354,0,0,0-2.718-4.114s2.416.6,3.386,4.4l2.522,1.121s-1.32-3.83-2.631-5.071c0,0,2.377.991,3.247,5.407l2.292,1.447a21.185,21.185,0,0,0-2.045-5.083s2.006,1.4,2.688,5.524l1.42,1.148s-.695-2.459-.957-3.147-.1-.816-.1-.816a8.684,8.684,0,0,1,1.658,4.434S141.085,144.862,141.254,144.7Z" transform="translate(-119.32 -132.456)" fill="#662483"/>
    </g>
    <g id="Groupe_122" data-name="Groupe 122" transform="translate(197.072 33.245)" opacity="0.5">
      <path id="Tracé_534" data-name="Tracé 534" d="M687.262,189.1s-1.888-9.061-7.853-6.31a1.577,1.577,0,0,0-1.389,1.229s.468-.112.556.831a4.33,4.33,0,0,0,.214.982,2.116,2.116,0,0,0,.813,1.051h0s1.716,2.223,6.074,2.084c0,0,1.09.477,1.314.387l-1.054-1.329a2.788,2.788,0,0,1-1.954.649s1.933-.577,1.812-.855c-.027-.057-.589-.68-.589-.68a4.609,4.609,0,0,1-3.2,1.105s2.4-.381,2.993-1.344l-.906-.891a4.845,4.845,0,0,1-3.455,1.3s2.492-.483,3.244-1.477l-1.009-.755s-1.661,1.492-3.144,1.26c0,0,2.824-.852,2.9-1.42a6.017,6.017,0,0,0-1.308-.683s-1.208,1.045-2.063.834c0,0,1.812-.767,1.779-.979a6.508,6.508,0,0,0-2.368-.347,4.745,4.745,0,0,1,2.432.112,2.592,2.592,0,0,0-1.012-1.1s.924-.112,1.371,1.208a5.922,5.922,0,0,1,1.247.6,5.81,5.81,0,0,0-.84-2.114,2.527,2.527,0,0,1,1.115,2.292l1.03.737a8.1,8.1,0,0,0-.713-2.525s.976.668.957,2.718l.906.864a9.687,9.687,0,0,0-.447-2.474,3.829,3.829,0,0,1,.695,2.718l.532.649s-.082-1.169-.136-1.51.03-.378.03-.378a3.993,3.993,0,0,1,.335,2.151A10.138,10.138,0,0,0,687.262,189.1Z" transform="translate(-678.02 -182.268)" fill="#662483"/>
    </g>
    <g id="Groupe_123" data-name="Groupe 123" transform="translate(164.563 201.216)" opacity="0.5">
      <path id="Tracé_535" data-name="Tracé 535" d="M579.636,745.218s-1.885-9.061-7.853-6.31a1.58,1.58,0,0,0-1.392,1.229s.468-.112.556.831a4.174,4.174,0,0,0,.217.982,2.115,2.115,0,0,0,.81,1.051h0s1.716,2.223,6.077,2.084c0,0,1.09.477,1.311.387l-1.051-1.329a2.792,2.792,0,0,1-1.957.649s1.933-.577,1.812-.855c-.024-.057-.589-.68-.589-.68a4.609,4.609,0,0,1-3.2,1.105s2.4-.381,2.993-1.344l-.906-.906a4.754,4.754,0,0,1-3.443,1.293s2.492-.483,3.244-1.477l-1.009-.755s-1.658,1.492-3.141,1.26c0,0,2.824-.849,2.9-1.42a6.1,6.1,0,0,0-1.308-.683s-1.208,1.045-2.066.834c0,0,1.812-.767,1.779-.979a6.508,6.508,0,0,0-2.368-.347,4.754,4.754,0,0,1,2.435.112,2.613,2.613,0,0,0-1.012-1.1s.921-.112,1.368,1.208a5.935,5.935,0,0,1,1.25.6,5.812,5.812,0,0,0-.84-2.114,2.521,2.521,0,0,1,1.112,2.292l1.033.737a8.13,8.13,0,0,0-.716-2.525s.979.668.961,2.718l.906.864a9.6,9.6,0,0,0-.45-2.474,3.82,3.82,0,0,1,.7,2.718l.532.649s-.085-1.169-.139-1.51.03-.375.03-.375a3.978,3.978,0,0,1,.335,2.148A11.325,11.325,0,0,0,579.636,745.218Z" transform="translate(-570.39 -738.388)" fill="#662483"/>
    </g>
  </g>
</svg>
