<svg xmlns="http://www.w3.org/2000/svg" width="538.006" height="293.563" viewBox="0 0 538.006 293.563"><g transform="translate(0 -0.035)"><path d="M557.306,408.642a88.209,88.209,0,0,1-7.677,14.765,63.525,63.525,0,0,1-4.65,6.4.329.329,0,0,1-.051.056H25l.07-.056c.468-.365,3.214-2.587,7.485-6.4,3.064-2.727,6.91-6.274,11.228-10.54C79.1,378.13,146.941,295.908,90.441,220.587c-52.524-70.021,4.028-82.727,41.333-84.21a106.577,106.577,0,0,1,42.04,6.872,373.509,373.509,0,0,0,89.773,21.193c1.347.15,2.7.3,4.079.435a393.031,393.031,0,0,0,65.394,1.188h0c.641-.037,1.287-.084,1.937-.131a388.589,388.589,0,0,0,63.962-9.895c1.361-.332,2.7-.646,4.042-.959,70-16.2,134.535,39,118.4,101.384-5.965,23.074-4.449,47.668,15.439,67.565C569.4,356.507,565.456,388.493,557.306,408.642Z" transform="translate(-25 -136.26)" fill="#662483" opacity="0.1"/><path d="M557.386,709.478a88.211,88.211,0,0,1-7.677,14.765,63.518,63.518,0,0,1-4.65,6.4H25.15c.468-.365,3.214-2.587,7.485-6.4,3.064-2.727,6.91-6.274,11.228-10.54l54.8-11.322a10.657,10.657,0,0,1,2.152-.22l58.418-.084h.061l28.936-.037h.066l24.421-.028h32.36l67.1-.094h28.87l11.523-.131h3.808l33.516-.047h15.85l38.713-.051h11.527l36.669-.052L523.6,701.6a10.972,10.972,0,0,1,2.559.3Z" transform="translate(-25.08 -437.096)" fill="#454b69"/><path d="M32.635,750H549.709a63.55,63.55,0,0,1-4.65,6.4H25.15C25.608,756.007,28.355,753.785,32.635,750Z" transform="translate(-25.08 -462.853)" fill="none"/><path d="M32.635,750H549.709a63.55,63.55,0,0,1-4.65,6.4H25.15C25.608,756.007,28.355,753.785,32.635,750Z" transform="translate(-25.08 -462.853)" opacity="0.4"/><path d="M606.038,286.087l-1.039.2-46.952,9.02c-13.637,2.62-27.471,5.254-41.324,4.248-10.035-.73-19.41-3.705-29.052-6.316-5.45-1.478-11.228-2.068-13.076-8.168-2.55-8.421,1.6-20.889,2.578-29.422.936-8.374,1.488-16.959-.178-25.235a44.863,44.863,0,0,0-1.46-5.492c-1.67-4.954-4.295-10.105-2.877-15.134,1.118-3.991,4.529-6.84,7.719-9.478,6.25-5.146,12.632-10.915,15.111-18.629,1.216-3.743,1.446-7.771,2.756-11.485,2.484-7.064,8.725-12.346,15.668-15.144s14.578-3.392,22.068-3.392a149.49,149.49,0,0,1,19.767,1.314c7.157.937,14.371,2.476,20.654,6.022s11.579,9.357,13.043,16.44c2.073,10.016-3.682,20.683-.594,30.409,1.553,4.917,5.146,8.889,7.64,13.389a31.892,31.892,0,0,1,2.339,24.8c-2.985,9.249-10.292,18.606-6.55,27.574,2.381,5.7,8.463,8.748,12.7,13.268Q605.547,285.479,606.038,286.087Z" transform="translate(-263.013 -144.437)" fill="#454b69"/><path d="M606.736,349.481v1.38l-46.952,9.02c-13.637,2.62-27.471,5.254-41.324,4.248-10.035-.73-19.41-3.705-29.052-6.316-5.45-1.478-11.228-2.068-13.076-8.168-2.55-8.421,1.6-20.889,2.578-29.422.936-8.374,15.34-38.947,13.675-47.223l86.081,3.743c.58,4.571,23.331,27.513,21.913,31.9-2.985,9.249-10.292,18.606-6.55,27.574C596.415,341.917,602.5,344.962,606.736,349.481Z" transform="translate(-264.749 -209.01)" opacity="0.1"/><path d="M536.178,355.709c.51,2.9.781,6.082-.7,8.608-1.97,3.387-6.264,4.468-10.105,5.235l-13.333,2.667a5.174,5.174,0,0,0-2.55,1.011,4.459,4.459,0,0,0-1.188,2.915c-.538,4.828,1.17,9.586,2.727,14.185,3.149,9.315,5.792,18.826,9.773,27.813s9.446,17.567,17.244,23.574,18.119,9.207,27.668,6.858c8.318-2.044,15.139-7.916,21.02-14.143,4.851-5.146,9.389-10.76,11.743-17.436,1.623-4.585,2.152-9.469,2.662-14.306l2.367-22.25c.37-3.481.613-7.4-1.647-10.068a11.99,11.99,0,0,0-3.715-2.681c-5.118-2.718-10.508-4.964-15.27-8.239s-8.987-7.785-10.433-13.38c-.865-3.359-.711-7.017-2.185-10.147-1.647-3.509-5.146-5.885-8.889-6.929a30.318,30.318,0,0,0-11.546-.468c-3.855.435-18.713,1.549-20.309,5.895-.856,2.339,2.695,7.359,3.537,9.661A67.437,67.437,0,0,1,536.178,355.709Z" transform="translate(-282.145 -238.385)" fill="#efb7b9"/><path d="M536.178,355.709c.51,2.9.781,6.082-.7,8.608-1.97,3.387-6.264,4.468-10.105,5.235l-13.333,2.667a5.174,5.174,0,0,0-2.55,1.011,4.459,4.459,0,0,0-1.188,2.915c-.538,4.828,1.17,9.586,2.727,14.185,3.149,9.315,5.792,18.826,9.773,27.813s9.446,17.567,17.244,23.574,18.119,9.207,27.668,6.858c8.318-2.044,15.139-7.916,21.02-14.143,4.851-5.146,9.389-10.76,11.743-17.436,1.623-4.585,2.152-9.469,2.662-14.306l2.367-22.25c.37-3.481.613-7.4-1.647-10.068a11.99,11.99,0,0,0-3.715-2.681c-5.118-2.718-10.508-4.964-15.27-8.239s-8.987-7.785-10.433-13.38c-.865-3.359-.711-7.017-2.185-10.147-1.647-3.509-5.146-5.885-8.889-6.929a30.318,30.318,0,0,0-11.546-.468c-3.855.435-18.713,1.549-20.309,5.895-.856,2.339,2.695,7.359,3.537,9.661A67.437,67.437,0,0,1,536.178,355.709Z" transform="translate(-282.145 -238.385)" opacity="0.1"/><path d="M561.346,443.5l7.818-16.552c3.663-7.757,7.406-15.906,7.017-24.472-.075-1.7-.094-3.832,1.4-4.6a4.014,4.014,0,0,1,2.054-.262,83.083,83.083,0,0,1,24.1,4.875,9.561,9.561,0,0,1,4.094,2.367,9.771,9.771,0,0,1,1.839,4.351,127.028,127.028,0,0,1,2.681,15.846c1.4,13.2.706,26.522,0,39.766l-2.077,40.435a3.864,3.864,0,0,1-.342,1.666,3.6,3.6,0,0,1-2.718,1.427,59.02,59.02,0,0,1-12.2.393c-28.631-1.085-57.413-2.751-85.857.72q.192-6.311-.2-12.632c-1.127-18.194-5.843-35.944-10.475-53.572-2.7-10.292-5.315-21.52-.968-31.219a13.376,13.376,0,0,1,2.709-4.126,15.392,15.392,0,0,1,6.868-3.448,43.71,43.71,0,0,1,13.235-1.5l29.5,64.22c1.347,2.938,2.456,6.03,3.8,8.931,1.207-5.01-.243-10.882,1.207-16.313A102.737,102.737,0,0,1,561.346,443.5Z" transform="translate(-275.224 -275.303)" fill="#fff"/><path d="M519.874,486.431c5.277.332,10.4-2.372,14.035-6.194s6.026-8.669,8.051-13.567a133.8,133.8,0,0,0,6.919-21.572c1.4-6.269,2.4-12.758,1.432-19.111-1.338-8.772-6.3-16.744-7.149-25.576-.145-1.544-.051-3.35,1.188-4.281a4.935,4.935,0,0,1,2.732-.711c8.823-.524,18.517-.426,25.352,5.174,2.082,1.7,3.771,3.832,5.806,5.586,4.847,4.211,11.7,6.353,14.807,11.944a41.434,41.434,0,0,1,2.363,6.246c1.787,4.959,4.88,9.319,7.953,13.609-2.98,12.575-6.4,25.16-9.385,37.735a165.006,165.006,0,0,1-6.246,21.848c-1.8,4.632-4.056,9.357-3.5,14.316a32.683,32.683,0,0,0,1.436,5.7,65.5,65.5,0,0,1,2.756,20.365l-133.492.328c6.4-9.17,8.271-20.416,7.621-31.574a34.5,34.5,0,0,0-4.211-15.354c-4.239-7.251-11.7-11.977-19.046-16.023-5.146-2.807-10.671,12.987-16.234,11.177.9-6.353,1.31-30.877.936-37.272a17.079,17.079,0,0,1,.337-6.25c.44-1.371,1.249-2.6,1.8-3.93,2.194-5.338.1-12.164,3.649-16.706,2.451-3.158,6.751-4.056,10.246-6,3.588-2,6.363-5.146,9.488-7.832a42.194,42.194,0,0,1,21.6-9.642,27.2,27.2,0,0,1,4.122,12.164c.239,2.718.066,5.474.444,8.178a40.266,40.266,0,0,0,3.537,10.489c6.255,14.124,12.533,28.29,20.458,41.553a44.016,44.016,0,0,0,7.925,10.4C510.84,484.555,515.513,486.637,519.874,486.431Z" transform="translate(-236.834 -274.048)" fill="#662483"/><path d="M519.874,486.431c5.277.332,10.4-2.372,14.035-6.194s6.026-8.669,8.051-13.567a133.8,133.8,0,0,0,6.919-21.572c1.4-6.269,2.4-12.758,1.432-19.111-1.338-8.772-6.3-16.744-7.149-25.576-.145-1.544-.051-3.35,1.188-4.281a4.935,4.935,0,0,1,2.732-.711c8.823-.524,18.517-.426,25.352,5.174,2.082,1.7,3.771,3.832,5.806,5.586,4.847,4.211,11.7,6.353,14.807,11.944a41.434,41.434,0,0,1,2.363,6.246c1.787,4.959,4.88,9.319,7.953,13.609-2.98,12.575-6.4,25.16-9.385,37.735a165.006,165.006,0,0,1-6.246,21.848c-1.8,4.632-4.056,9.357-3.5,14.316a32.683,32.683,0,0,0,1.436,5.7,65.5,65.5,0,0,1,2.756,20.365l-133.492.328c6.4-9.17,8.271-20.416,7.621-31.574a34.5,34.5,0,0,0-4.211-15.354c-4.239-7.251-11.7-11.977-19.046-16.023-5.146-2.807-10.671,12.987-16.234,11.177.9-6.353,1.31-30.877.936-37.272a17.079,17.079,0,0,1,.337-6.25c.44-1.371,1.249-2.6,1.8-3.93,2.194-5.338.1-12.164,3.649-16.706,2.451-3.158,6.751-4.056,10.246-6,3.588-2,6.363-5.146,9.488-7.832a42.194,42.194,0,0,1,21.6-9.642,27.2,27.2,0,0,1,4.122,12.164c.239,2.718.066,5.474.444,8.178a40.266,40.266,0,0,0,3.537,10.489c6.255,14.124,12.533,28.29,20.458,41.553a44.016,44.016,0,0,0,7.925,10.4C510.84,484.555,515.513,486.637,519.874,486.431Z" transform="translate(-236.834 -274.048)" opacity="0.1"/><circle cx="40.103" cy="40.103" r="40.103" transform="translate(235.877 36.056)" fill="#efb7b9"/><path d="M533.787,285.409c1.1-10.377-3.214-20.529-8.1-29.75-2.339-4.407-4.847-8.8-6.021-13.642s-.837-10.325,2.166-14.306c2.554-3.387,6.606-5.216,10.353-7.2,10.578-5.614,20.248-13.867,24.9-24.9-2.629,1.432-1.946,5.7.374,7.588s5.483,2.25,8.337,3.149c10.4,3.275,16.646,13.651,21.651,23.345a11.157,11.157,0,0,1,1.642,5.034,10.212,10.212,0,0,1-1.675,4.88c-2.47,4.4-5.492,8.622-6.615,13.539-1.286,5.614.07,11.518,1.834,17.024,1.871,5.857,4.356,11.761,8.847,15.962s11.457,6.288,16.982,3.574c-5.516-9.483-11.228-20.079-9.076-30.83,1.039-5.146,3.832-9.825,5.02-14.943,2.264-9.764-1.506-19.808-5.207-29.127l-11.06-27.813c-1.689-4.253-3.612-8.791-7.485-11.2-2.62-1.623-5.792-2.044-8.861-2.339-9.881-.88-20.117-.589-29.314,3.088-16.758,6.695-27.265,23.2-35.6,39.209-2.5,4.8-4.964,9.89-4.861,15.3a42.454,42.454,0,0,0,1.558,8.744c2.742,11.771,2.891,23.967,3.032,36.051.108,9.272-.374,18.012-4.43,26.456,5.558,1.1,13.619,4.084,19.12,1.9C528.468,301.362,532.884,292.627,533.787,285.409Z" transform="translate(-278.85 -155.809)" fill="#454b69"/><g transform="translate(223.141 39.055)" opacity="0.1"><path d="M506.557,338.888q.028-1.979,0-4c-.14-12.084-.29-24.281-3.032-36.051a60.839,60.839,0,0,1-1.432-6.961,18.194,18.194,0,0,0-.126,2.428,42.446,42.446,0,0,0,1.558,8.744C506.253,314.752,506.422,326.874,506.557,338.888Z" transform="translate(-501.966 -258.112)"/><path d="M714.64,315.087a28.309,28.309,0,0,0,.608-8.337,25.985,25.985,0,0,1-.608,4.126c-1.188,5.146-3.981,9.782-5.02,14.943a24.8,24.8,0,0,0-.374,6.915,24.54,24.54,0,0,1,.374-2.7C710.659,324.869,713.452,320.214,714.64,315.087Z" transform="translate(-612.224 -266.025)"/><path d="M608.093,257.407a6.742,6.742,0,0,0,.365-2.063,11.273,11.273,0,0,0-1.642-5.034c-5.006-9.694-11.228-20.061-21.651-23.345-2.854-.9-6.012-1.263-8.337-3.149a5.932,5.932,0,0,1-2.049-4.117c-5.071,9.31-13.782,16.43-23.223,21.431-3.743,1.988-7.8,3.818-10.353,7.2a15.958,15.958,0,0,0-2.681,11.326,14.32,14.32,0,0,1,2.681-7.116c2.554-3.387,6.606-5.216,10.353-7.2,9.441-5,18.152-12.122,23.223-21.431a5.932,5.932,0,0,0,2.049,4.117c2.339,1.871,5.483,2.25,8.337,3.149,10.4,3.275,16.646,13.651,21.651,23.345a18.424,18.424,0,0,1,1.277,2.887Z" transform="translate(-521.359 -219.7)"/><path d="M680.529,376.059c-4.491-4.211-6.966-10.105-8.847-15.962a46.21,46.21,0,0,1-2.246-10.157c-.435,4.8.758,9.722,2.246,14.367,1.871,5.857,4.356,11.761,8.847,15.963s11.457,6.288,16.982,3.574c-.664-1.137-1.324-2.292-1.979-3.457C690.4,381.832,684.506,379.774,680.529,376.059Z" transform="translate(-591.04 -289.009)"/><path d="M533.95,402.846c-.9,7.219-5.319,15.953-12.51,18.807-4.992,1.979-12.1-.295-17.52-1.553a40.522,40.522,0,0,1-1.6,3.86c5.558,1.1,13.619,4.084,19.12,1.9,7.191-2.854,11.607-11.588,12.51-18.807a32.5,32.5,0,0,0,.1-5.436C534.025,402.027,533.983,402.439,533.95,402.846Z" transform="translate(-502.154 -316.512)"/></g><path d="M653.407,649.485c-7.228-1.146-14.564-3.359-21.731-1.871a30.209,30.209,0,0,0-11.406,5.427c1.9,1.52,4.117,2.877,5.324,4.992a19.649,19.649,0,0,1,1.675,4.617,39.291,39.291,0,0,1,1.637,8.589,13.073,13.073,0,0,1-2.208,8.313c9.113.9,17.946-1.347,26.835-3.542a7.35,7.35,0,0,0,2.84-1.146c1.4-1.1,1.815-3.069,1.825-4.861a33.281,33.281,0,0,0-1.81-9.389C655.3,656.933,654.5,653.144,653.407,649.485Z" transform="translate(-341.783 -408.102)" fill="#fff"/><path d="M732.821,483.171c3.588.468,6.372,3.364,8.421,6.339,5.75,8.281,8.229,18.32,10.989,28.019a372.944,372.944,0,0,0,12.1,35.612,53.586,53.586,0,0,0,3.63,7.813c1.156,1.932,2.559,3.789,3.069,5.984,1.235,5.305-3.139,10.292-7.7,13.249a30.479,30.479,0,0,1-7.883,3.8,46.954,46.954,0,0,1-8.384,1.432L721.1,588.223c-11.953,1.3-24.014,2.6-35.972,1.347-.753-2.62.725-4.473.618-7.2a16.081,16.081,0,0,0-1.7-5.563,35.552,35.552,0,0,1-2.774-10.063,13.641,13.641,0,0,0-.669-3.775,3.539,3.539,0,0,0-2.807-2.339c7.018-.7,12.346-2.021,19.364-2.723,2.606-.262,5.315-.557,7.537-1.941,2.755-1.717,4.3-4.814,5.525-7.818,3.036-7.439,4.992-15.635,3.4-23.513-1.31-6.461-4.964-12.477-4.945-19.069,0-3.925,1.338-7.729,2.919-11.322,1.675-3.8,3.86-7.682,7.537-9.609S728.672,482.609,732.821,483.171Z" transform="translate(-372.393 -320.697)" fill="#662483"/><path d="M732.821,483.171c3.588.468,6.372,3.364,8.421,6.339,5.75,8.281,8.229,18.32,10.989,28.019a372.944,372.944,0,0,0,12.1,35.612,53.586,53.586,0,0,0,3.63,7.813c1.156,1.932,2.559,3.789,3.069,5.984,1.235,5.305-3.139,10.292-7.7,13.249a30.479,30.479,0,0,1-7.883,3.8,46.954,46.954,0,0,1-8.384,1.432L721.1,588.223c-11.953,1.3-24.014,2.6-35.972,1.347-.753-2.62.725-4.473.618-7.2a16.081,16.081,0,0,0-1.7-5.563,35.552,35.552,0,0,1-2.774-10.063,13.641,13.641,0,0,0-.669-3.775,3.539,3.539,0,0,0-2.807-2.339c7.018-.7,12.346-2.021,19.364-2.723,2.606-.262,5.315-.557,7.537-1.941,2.755-1.717,4.3-4.814,5.525-7.818,3.036-7.439,4.992-15.635,3.4-23.513-1.31-6.461-4.964-12.477-4.945-19.069,0-3.925,1.338-7.729,2.919-11.322,1.675-3.8,3.86-7.682,7.537-9.609S728.672,482.609,732.821,483.171Z" transform="translate(-372.393 -320.697)" opacity="0.08"/><path d="M443.795,388.061c1.7-4.033,3.425-8.2,3.471-12.571.051-4.73-1.871-9.221-3.34-13.712a79.294,79.294,0,0,1-3.607-16.931,2.339,2.339,0,0,1,.234-1.623,2.789,2.789,0,0,1,1.8-.8c3.237-.739,5.684-3.354,7.705-5.988a65.658,65.658,0,0,0,7.888-13.174c1.549-3.448,3.644-7.654,7.425-7.687a214.454,214.454,0,0,1-5.651,21.169c3.953-1.011,7.71-2.48,11.663-3.49a6.984,6.984,0,0,1,2.4-.318,3.615,3.615,0,0,1,2.442,5.394c1.932,2.264,5.146,2.872,7.672,4.426s4.341,5.4,2.1,7.35a6.263,6.263,0,0,0-1.315,1.132c-1.085,1.675,1.572,3.6,1.352,5.581-.178,1.623-2.26,2.381-3.836,1.951s-2.807-1.609-4.211-2.475-3.237-1.4-4.6-.505c-.365,4.4-.758,8.889-2.662,12.9-.7,1.464-1.591,2.835-2.152,4.356a21.465,21.465,0,0,0-.992,5.113l-1.7,15.527C457.769,395.3,450.5,392.875,443.795,388.061Z" transform="translate(-245.99 -231.664)" fill="#efb7b9"/><path d="M441.611,478.329l-1.492-10.1a16.422,16.422,0,0,1-.239-2.489c0-2.339,1.029-4.571,2.026-6.7,8.257,3.855,17.184,5.226,26.292,5.23,1.2,0,2.573-.112,3.322-1.053,1.549,1.782,1.6,4.65.936,6.915s-1.927,4.3-2.77,6.512a9.284,9.284,0,0,1-1.586,3.2c-1.263,1.361-3.312,1.6-5.174,1.586a33.078,33.078,0,0,1-5.839-.557C452.1,479.948,446.6,477.435,441.611,478.329Z" transform="translate(-245.785 -308.014)" fill="#fff"/><path d="M457.648,493.861q-9.614-1.095-19.1-3.088a38.63,38.63,0,0,0-9.394-1.249c-2.058.084-4.271.5-6.082-.524a29.281,29.281,0,0,1-.239,18.217c-1.249,3.509-3.153,6.779-4.07,10.391-1.909,7.556.711,15.794-1.675,23.214a5.876,5.876,0,0,1-1.441,2.582c-.73.669-1.726,1.015-2.4,1.74-.992,1.067-1.053,2.671-1.057,4.126l-.042,12.889c-.028,8.206.08,16.908,4.412,23.859a22.654,22.654,0,0,0,24.393,9.656,18.134,18.134,0,0,0,6.625-3.242c3.144-2.5,5.146-6.11,7.106-9.628,2.339-4.211,4.678-8.515,5.432-13.254a37.661,37.661,0,0,0-.15-10.152c-2.115-18.713-6.7-37.268-5.717-56.051a16.987,16.987,0,0,1,3.4-9.488Z" transform="translate(-231.025 -323.958)" fill="#662483"/><path d="M502.306,663.021a56.708,56.708,0,0,1-9.764,0c-2.339-.281-4.622-.856-6.943-1.249a44.5,44.5,0,0,0-35.831,9.955c-1.8,1.535-3.612,3.888-2.62,6.035,1.067,2.311,4.327,2.246,6.84,1.815a20.584,20.584,0,0,0-7.018,5.488,4.142,4.142,0,0,0-1.23,2.98c.285,2.316,3.429,2.737,5.754,2.536a1.937,1.937,0,0,0,.716,2.807,4.8,4.8,0,0,0,3.251.239,24.1,24.1,0,0,0,6.905-2.391,2.632,2.632,0,0,0,1.4,3.06,5.78,5.78,0,0,0,3.607.332c5.717-.936,10.489-4.912,16.065-6.475,8.917-2.494,18.246,1.483,27.513,1.764a19.2,19.2,0,0,0,8.519-1.4c3.242-1.474,5.857-4.239,9.282-5.221,3.8-1.085,8.168.164,11.649-1.712,2.531-1.361.248-11.855-.4-13.876-1.184-3.7-2.372-6.147-6.316-6.522C523.714,660.2,512.359,662.441,502.306,663.021Z" transform="translate(-248.894 -415.457)" fill="#efb7b9"/><path d="M619.88,657.285s15.106,12.786,6.391,26.737l16.842-5.815V666c0-.58-6.4-9.3-6.4-9.3l-7.555-1.165Z" transform="translate(-341.575 -412.585)" fill="#fff"/><path d="M243.486,521.32h5.665a11.7,11.7,0,0,1,11.7,11.7v17.361H231.79V533.016A11.7,11.7,0,0,1,243.486,521.32Z" transform="translate(-123.351 -277.41)" fill="#3f3d56"/><path d="M243.486,521.32h5.665a11.7,11.7,0,0,1,11.7,11.7v17.361H231.79V533.016A11.7,11.7,0,0,1,243.486,521.32Z" transform="translate(-123.351 -277.41)" opacity="0.1"/><circle cx="2.325" cy="2.325" r="2.325" transform="translate(119.48 245.65)" fill="#3f3d56"/><circle cx="2.325" cy="2.325" r="2.325" transform="translate(119.48 242.745)" fill="#3f3d56"/><circle cx="2.325" cy="2.325" r="2.325" transform="translate(119.48 239.84)" fill="#3f3d56"/><circle cx="2.325" cy="2.325" r="2.325" transform="translate(119.48 236.934)" fill="#3f3d56"/><circle cx="2.325" cy="2.325" r="2.325" transform="translate(119.48 234.029)" fill="#3f3d56"/><circle cx="2.325" cy="2.325" r="2.325" transform="translate(119.48 231.124)" fill="#3f3d56"/><circle cx="2.325" cy="2.325" r="2.325" transform="translate(119.48 228.214)" fill="#3f3d56"/><circle cx="2.325" cy="2.325" r="2.325" transform="translate(122.97 229.379)" fill="#3f3d56"/><circle cx="2.325" cy="2.325" r="2.325" transform="translate(125.295 228.214)" fill="#3f3d56"/><circle cx="2.325" cy="2.325" r="2.325" transform="translate(127.62 227.054)" fill="#3f3d56"/><circle cx="2.325" cy="2.325" r="2.325" transform="translate(119.48 225.309)" fill="#3f3d56"/><circle cx="2.325" cy="2.325" r="2.325" transform="translate(119.48 222.404)" fill="#3f3d56"/><circle cx="2.325" cy="2.325" r="2.325" transform="translate(119.48 219.498)" fill="#3f3d56"/><circle cx="2.325" cy="2.325" r="2.325" transform="translate(119.48 216.593)" fill="#3f3d56"/><path d="M283.781,578.8q-.87.126-1.74.182a13.363,13.363,0,0,0,1.5-1.535,9.824,9.824,0,0,0-1.4-2.727,4.781,4.781,0,0,1-1.871.589c-.575.084-1.156.145-1.736.187a29,29,0,0,0,2.222-2.339,9.871,9.871,0,1,0,3.242,7.3,9.671,9.671,0,0,0-.15-1.7Z" transform="translate(-152.32 -367.384)" fill="#662483"/><path d="M312.038,611.524a4.511,4.511,0,0,1-1.956.65c-.575.084-1.156.15-1.736.187a17.039,17.039,0,0,0,1.722-1.787,5.82,5.82,0,1,0,1.97.936Z" transform="translate(-172.825 -388.555)" fill="#662483"/><circle cx="2.325" cy="2.325" r="2.325" transform="translate(115.995 229.379)" fill="#3f3d56"/><circle cx="2.325" cy="2.325" r="2.325" transform="translate(113.67 228.214)" fill="#3f3d56"/><circle cx="2.325" cy="2.325" r="2.325" transform="translate(111.344 227.054)" fill="#3f3d56"/><path d="M245.45,611.524a4.51,4.51,0,0,0,1.956.65c.575.084,1.156.15,1.736.187a16.565,16.565,0,0,1-1.722-1.787,5.82,5.82,0,1,1-1.97.936Z" transform="translate(-141.048 -388.555)" fill="#662483"/><path d="M243.47,525h5.665a11.7,11.7,0,0,1,11.7,11.7v15.378a1.984,1.984,0,0,1-1.984,1.984h-25.1a1.984,1.984,0,0,1-1.984-1.984V536.7A11.7,11.7,0,0,1,243.47,525Z" transform="translate(-123.335 -279.368)" fill="#3f3d56"/><g transform="translate(112.065 203.351)" opacity="0.1"><path d="M305.489,589.49a8.81,8.81,0,0,1-.749.711,7.6,7.6,0,0,0,.8-.07C305.526,589.916,305.512,589.7,305.489,589.49Z" transform="translate(-285.933 -580.786)"/><path d="M297.28,581.347c.585-.037,1.16-.1,1.74-.182a5.613,5.613,0,0,0,1.511-.412,10.251,10.251,0,0,0-.814-1.343,3.521,3.521,0,0,1-.936.4,13.472,13.472,0,0,1-1.5,1.539Z" transform="translate(-281.963 -575.422)"/><path d="M265.564,581.8a9.862,9.862,0,0,1,15.2-8.309l.15-.159A9.871,9.871,0,1,0,267.9,588.178a9.824,9.824,0,0,1-2.339-6.377Z" transform="translate(-264.54 -570.885)"/></g><g transform="translate(129.945 221.823)" opacity="0.1"><path d="M314.68,614.8c.58-.037,1.16-.1,1.736-.182a4.515,4.515,0,0,0,1.956-.655,5.815,5.815,0,0,1,2.339,4.117,5.332,5.332,0,0,0,.033-.613,5.792,5.792,0,0,0-2.339-4.678,4.51,4.51,0,0,1-1.956.65l-.468.061A11.871,11.871,0,0,1,314.68,614.8Z" transform="translate(-309.103 -611.658)"/><path d="M308.57,611.53a4.778,4.778,0,0,1,.58.042c.3-.323.6-.669.908-1.006a5.8,5.8,0,0,0-7.3,5.614,3.982,3.982,0,0,0,.028.58A5.81,5.81,0,0,1,308.57,611.53Z" transform="translate(-302.76 -610.37)"/></g><g transform="translate(102.03 221.823)" opacity="0.1"><path d="M249.153,614.8c-.58-.037-1.16-.1-1.736-.182a4.515,4.515,0,0,1-1.956-.655,5.815,5.815,0,0,0-2.339,4.117,5.328,5.328,0,0,1-.033-.613,5.792,5.792,0,0,1,2.339-4.678,4.51,4.51,0,0,0,1.956.65l.468.061A11.076,11.076,0,0,0,249.153,614.8Z" transform="translate(-243.09 -611.658)"/><path d="M253.858,611.53a4.92,4.92,0,0,0-.585.042c-.3-.323-.6-.669-.9-1.006a5.8,5.8,0,0,1,7.3,5.614,3.982,3.982,0,0,1-.028.58,5.81,5.81,0,0,0-5.782-5.23Z" transform="translate(-248.028 -610.37)"/></g><path d="M167.649,706.365H121.942A1.942,1.942,0,0,1,120,704.424V682.791a1.942,1.942,0,0,1,2.774-1.754c13.132,6.232,27.279,8.37,43.976.1a1.946,1.946,0,0,1,2.807,1.736v21.52A1.942,1.942,0,0,1,167.649,706.365Z" transform="translate(-75.556 -426.053)" fill="#662483"/><path d="M167.649,706.365H121.942A1.942,1.942,0,0,1,120,704.424V682.791a1.942,1.942,0,0,1,2.774-1.754c13.132,6.232,27.279,8.37,43.976.1a1.946,1.946,0,0,1,2.807,1.736v21.52A1.942,1.942,0,0,1,167.649,706.365Z" transform="translate(-75.556 -426.053)" opacity="0.1"/><ellipse cx="2.704" cy="3.542" rx="2.704" ry="3.542" transform="translate(66.217 256.785)" fill="#3f3d56"/><ellipse cx="2.704" cy="3.542" rx="2.704" ry="3.542" transform="translate(66.217 252.457)" fill="#3f3d56"/><ellipse cx="2.704" cy="3.542" rx="2.704" ry="3.542" transform="translate(66.217 248.125)" fill="#3f3d56"/><ellipse cx="2.704" cy="3.542" rx="2.704" ry="3.542" transform="translate(66.217 243.798)" fill="#3f3d56"/><ellipse cx="2.704" cy="3.542" rx="2.704" ry="3.542" transform="translate(66.217 239.465)" fill="#3f3d56"/><ellipse cx="2.704" cy="3.542" rx="2.704" ry="3.542" transform="translate(66.217 235.133)" fill="#3f3d56"/><ellipse cx="2.704" cy="3.542" rx="2.704" ry="3.542" transform="translate(66.217 230.806)" fill="#3f3d56"/><path d="M167.664,549.88a13.758,13.758,0,0,0,1.006-1.483l-7.111-1.17,7.691.056a12.964,12.964,0,0,0,.248-10.292l-10.316,5.352,9.516-7.018a12.964,12.964,0,1,0-21.413,14.5,12.676,12.676,0,0,0-1.478,2.362l9.226,4.847-9.824-3.322A12.978,12.978,0,0,0,147.3,565.88a12.964,12.964,0,1,0,20.379,0,12.964,12.964,0,0,0,0-16.028Z" transform="translate(-88.6 -345.165)" fill="#662483"/><path d="M144.49,590.713a12.907,12.907,0,0,0,2.774,8.014,12.964,12.964,0,1,0,20.379,0C169.379,596.523,144.49,589.258,144.49,590.713Z" transform="translate(-88.588 -377.984)" opacity="0.1"/><path d="M167.649,707.511H121.942A1.942,1.942,0,0,1,120,705.57V682.791a1.942,1.942,0,0,1,2.774-1.754c13.132,6.232,23.546,13.5,43.976.1a1.9,1.9,0,0,1,2.807,1.736v22.69A1.941,1.941,0,0,1,167.649,707.511Z" transform="translate(-75.556 -426.053)" fill="#662483"/><path d="M803.785,560.962l-67.434,8.922-3.373.444L700.01,552.719V548.6L803.036,537.36Z" transform="translate(-372.522 -285.946)" fill="#9c9ca1"/><path d="M740.85,564.393,813.9,555.78l-.749,13.488-56.9,4.173Z" transform="translate(-394.255 -295.749)" fill="#939498"/><path d="M761.346,714.5v4.426l-3.373.468L725,701.762V697.64l31.471,16.842S760.6,714.87,761.346,714.5Z" transform="translate(-397.516 -434.989)" opacity="0.4"/><path d="M813.023,574.042l-15.139,70.2a4.482,4.482,0,0,0,4.968,5.394l95.78-12.678a4.482,4.482,0,0,0,3.668-3.032l20.664-62.315a4.491,4.491,0,0,0-4.473-5.895l-101.3,4.809A4.491,4.491,0,0,0,813.023,574.042Z" transform="translate(-436.248 -364.78)" fill="#3f3d56"/><ellipse cx="4.07" cy="2.615" rx="4.07" ry="2.615" transform="translate(423.777 238.662) rotate(-84)" fill="#fff"/></g></svg>